STARTFONT 2.1
COMMENT 
COMMENT Copyright (C) 2012-2025 Uwe Waldmann
COMMENT 
COMMENT Permission is hereby granted, free of charge, to any person obtaining
COMMENT a copy of this font software and associated files (the "Software"),
COMMENT to deal in the Software without restriction, including without
COMMENT limitation the rights to use, copy, modify, merge, publish,
COMMENT distribute, embed, sublicense, and/or sell copies of the Software,
COMMENT and to permit persons to whom the Software is furnished to do so,
COMMENT subject to the following conditions:
COMMENT 
COMMENT (1) The above copyright notice, this permission notice, and the
COMMENT     disclaimer below shall be included in all copies or substantial
COMMENT     portions of the Software.
COMMENT 
COMMENT (2) If the design of any glyphs in the fonts that are contained in the
COMMENT     Software or generated during the installation process is modified
COMMENT     or if additional glyphs are added to the fonts, the fonts
COMMENT     must be renamed. The new names may not contain the word "UW",
COMMENT     irrespective of capitalisation; the new names may contain the word
COMMENT     "ttyp0", irrespective of capitalisation, only if preceded by a
COMMENT     foundry name different from "UW".
COMMENT 
COMMENT THE SOFTWARE IS PROVIDED "AS IS", WITHOUT WARRANTY OF ANY KIND, EXPRESS
COMMENT OR IMPLIED, INCLUDING BUT NOT LIMITED TO THE WARRANTIES OF
COMMENT MERCHANTABILITY, FITNESS FOR A PARTICULAR PURPOSE AND NONINFRINGEMENT.
COMMENT IN NO EVENT SHALL THE AUTHORS OR COPYRIGHT HOLDERS BE LIABLE FOR ANY
COMMENT CLAIM, DAMAGES OR OTHER LIABILITY, WHETHER IN AN ACTION OF CONTRACT,
COMMENT TORT OR OTHERWISE, ARISING FROM, OUT OF OR IN CONNECTION WITH THE
COMMENT SOFTWARE OR THE USE OR OTHER DEALINGS IN THE SOFTWARE.
COMMENT 
FONT -UW-Ttyp0-Medium-R-Normal--40-280-75-75-C-180-ISO10646-1
SIZE 40 75 75
FONTBOUNDINGBOX 18 40 0 -9
STARTPROPERTIES 21
FONTNAME_REGISTRY ""
FOUNDRY "UW"
FAMILY_NAME "Ttyp0"

STARTCHAR DDefaultChar
ENCODING 0
SWIDTH 432 0
DWIDTH 18 0
BBX 18 40 0 -9
BITMAP
000000
000000
000000
000000
000000
000000
000000
1CE700
1CE700
1CE700
1C0700
000000
000000
000000
1C0700
1C0700
1C0700
1C0700
000000
000000
1C0700
1C0700
1C0700
1C0700
000000
000000
000000
1C0700
1CE700
1CE700
1CE700
000000
000000
000000
000000
000000
000000
000000
000000
000000
ENDCHAR
STARTCHAR Space
ENCODING 32
SWIDTH 432 0
DWIDTH 18 0
BBX 18 40 0 -9
BITMAP
000000
000000
000000
000000
000000
000000
000000
000000
000000
000000
000000
000000
000000
000000
000000
000000
000000
000000
000000
000000
000000
000000
000000
000000
000000
000000
000000
000000
000000
000000
000000
000000
000000
000000
000000
000000
000000
000000
000000
000000
ENDCHAR
STARTCHAR PExclam
ENCODING 33
SWIDTH 432 0
DWIDTH 18 0
BBX 18 40 0 -9
BITMAP
000000
000000
000000
000000
000000
000000
000000
00E000
01F000
01F000
01F000
01F000
01F000
01F000
01F000
00E000
00E000
00E000
00E000
00E000
00E000
004000
004000
000000
000000
000000
00E000
01F000
01F000
01F000
00E000
000000
000000
000000
000000
000000
000000
000000
000000
000000
ENDCHAR
STARTCHAR PQuote2Ascii
ENCODING 34
SWIDTH 432 0
DWIDTH 18 0
BBX 18 40 0 -9
BITMAP
000000
000000
000000
000000
000000
000000
0F1E00
0F1E00
0F1E00
0F1E00
0F1E00
0F1E00
0F1E00
060C00
060C00
000000
000000
000000
000000
000000
000000
000000
000000
000000
000000
000000
000000
000000
000000
000000
000000
000000
000000
000000
000000
000000
000000
000000
000000
000000
ENDCHAR
STARTCHAR SNumberSign
ENCODING 35
SWIDTH 432 0
DWIDTH 18 0
BBX 18 40 0 -9
BITMAP
000000
000000
000000
000000
000000
000000
000000
000000
000000
000000
000000
000000
071C00
071C00
071C00
071C00
1FFF00
1FFF00
1FFF00
071C00
071C00
071C00
071C00
1FFF00
1FFF00
1FFF00
071C00
071C00
071C00
071C00
000000
000000
000000
000000
000000
000000
000000
000000
000000
000000
ENDCHAR
STARTCHAR CurrDollar
ENCODING 36
SWIDTH 432 0
DWIDTH 18 0
BBX 18 40 0 -9
BITMAP
000000
000000
000000
000000
000000
000000
00E000
00E000
00E000
00E000
03F800
0FFE00
0FFE00
1EEF00
1CE700
1CE000
1CE000
0EE000
0FE000
07F000
01FC00
00FE00
00EE00
00E700
00E700
00E700
1CE700
1EEF00
0FFE00
0FFE00
03F800
00E000
00E000
00E000
00E000
000000
000000
000000
000000
000000
ENDCHAR
STARTCHAR SPercent
ENCODING 37
SWIDTH 432 0
DWIDTH 18 0
BBX 18 40 0 -9
BITMAP
000000
000000
000000
000000
000000
000000
000000
0E0780
1F0700
3B8F00
3B8E00
3B9E00
3B9C00
3BBC00
1F3800
0E7800
007000
00F000
00E000
01E000
01C000
03C000
038E00
079F00
073B80
0F3B80
0E3B80
1E3B80
1C3B80
3C1F00
380E00
000000
000000
000000
000000
000000
000000
000000
000000
000000
ENDCHAR
STARTCHAR SAmpersand
ENCODING 38
SWIDTH 432 0
DWIDTH 18 0
BBX 18 40 0 -9
BITMAP
000000
000000
000000
000000
000000
000000
000000
000000
03C000
07E000
0FF000
0E7000
0E7000
0E7000
0E7000
0EE000
0FE000
07C000
078000
0F8700
1F8700
1FCF00
3CCE00
38FC00
387C00
387800
387C00
38FE00
3FEF80
1FC780
0F8380
000000
000000
000000
000000
000000
000000
000000
000000
000000
ENDCHAR
STARTCHAR PApostropheAscii
ENCODING 39
SWIDTH 432 0
DWIDTH 18 0
BBX 18 40 0 -9
BITMAP
000000
000000
000000
000000
000000
000000
00E000
01F000
01F000
01F000
00F000
007000
00E000
01E000
03C000
038000
000000
000000
000000
000000
000000
000000
000000
000000
000000
000000
000000
000000
000000
000000
000000
000000
000000
000000
000000
000000
000000
000000
000000
000000
ENDCHAR
STARTCHAR PParenL
ENCODING 40
SWIDTH 432 0
DWIDTH 18 0
BBX 18 40 0 -9
BITMAP
000000
000000
000000
000000
000000
000000
000C00
001C00
003C00
007800
00F000
01E000
01C000
03C000
038000
078000
070000
070000
070000
070000
070000
070000
070000
070000
078000
038000
03C000
01C000
01E000
00F000
007800
003C00
001C00
000C00
000000
000000
000000
000000
000000
000000
ENDCHAR
STARTCHAR PParenR
ENCODING 41
SWIDTH 432 0
DWIDTH 18 0
BBX 18 40 0 -9
BITMAP
000000
000000
000000
000000
000000
000000
060000
070000
078000
03C000
01E000
00F000
007000
007800
003800
003C00
001C00
001C00
001C00
001C00
001C00
001C00
001C00
001C00
003C00
003800
007800
007000
00F000
01E000
03C000
078000
070000
060000
000000
000000
000000
000000
000000
000000
ENDCHAR
STARTCHAR SAsterisk
ENCODING 42
SWIDTH 432 0
DWIDTH 18 0
BBX 18 40 0 -9
BITMAP
000000
000000
000000
000000
000000
000000
000000
000000
000000
000000
000000
000000
000000
000000
061800
0E1C00
0F3C00
073800
033000
03F000
3FFF00
3FFF00
3FFF00
03F000
033000
073800
0F3C00
0E1C00
061800
000000
000000
000000
000000
000000
000000
000000
000000
000000
000000
000000
ENDCHAR
STARTCHAR MPlus
ENCODING 43
SWIDTH 432 0
DWIDTH 18 0
BBX 18 40 0 -9
BITMAP
000000
000000
000000
000000
000000
000000
000000
000000
000000
000000
000000
000000
000000
000000
000000
00E000
00E000
00E000
00E000
00E000
1FFF00
1FFF00
1FFF00
00E000
00E000
00E000
00E000
00E000
000000
000000
000000
000000
000000
000000
000000
000000
000000
000000
000000
000000
ENDCHAR
STARTCHAR PComma
ENCODING 44
SWIDTH 432 0
DWIDTH 18 0
BBX 18 40 0 -9
BITMAP
000000
000000
000000
000000
000000
000000
000000
000000
000000
000000
000000
000000
000000
000000
000000
000000
000000
000000
000000
000000
000000
000000
000000
000000
000000
000000
00E000
01F000
01F000
01F000
00F000
007000
00E000
01E000
03C000
038000
000000
000000
000000
000000
ENDCHAR
STARTCHAR PHyphenMinus
ENCODING 45
SWIDTH 432 0
DWIDTH 18 0
BBX 18 40 0 -9
BITMAP
000000
000000
000000
000000
000000
000000
000000
000000
000000
000000
000000
000000
000000
000000
000000
000000
000000
000000
000000
000000
1FFF00
1FFF00
1FFF00
000000
000000
000000
000000
000000
000000
000000
000000
000000
000000
000000
000000
000000
000000
000000
000000
000000
ENDCHAR
STARTCHAR PFullStop
ENCODING 46
SWIDTH 432 0
DWIDTH 18 0
BBX 18 40 0 -9
BITMAP
000000
000000
000000
000000
000000
000000
000000
000000
000000
000000
000000
000000
000000
000000
000000
000000
000000
000000
000000
000000
000000
000000
000000
000000
000000
000000
00E000
01F000
01F000
01F000
00E000
000000
000000
000000
000000
000000
000000
000000
000000
000000
ENDCHAR
STARTCHAR PSolidus
ENCODING 47
SWIDTH 432 0
DWIDTH 18 0
BBX 18 40 0 -9
BITMAP
000000
000000
000000
000000
000000
000000
000380
000380
000780
000780
000F00
000F00
001E00
001E00
003C00
003C00
007800
007800
00F000
00F000
01E000
01E000
03C000
03C000
078000
078000
0F0000
0F0000
1E0000
1E0000
3C0000
3C0000
380000
380000
000000
000000
000000
000000
000000
000000
ENDCHAR
STARTCHAR Digit0
ENCODING 48
SWIDTH 432 0
DWIDTH 18 0
BBX 18 40 0 -9
BITMAP
000000
000000
000000
000000
000000
000000
000000
000000
00E000
03F800
07FC00
071C00
0E0E00
0E0E00
1C0700
1C0700
1C0700
1C0700
1C0700
1C0700
1C0700
1C0700
1C0700
1C0700
1C0700
0E0E00
0E0E00
071C00
07FC00
03F800
00E000
000000
000000
000000
000000
000000
000000
000000
000000
000000
ENDCHAR
STARTCHAR Digit1
ENCODING 49
SWIDTH 432 0
DWIDTH 18 0
BBX 18 40 0 -9
BITMAP
000000
000000
000000
000000
000000
000000
000000
000000
001C00
003C00
007C00
00FC00
01FC00
03DC00
079C00
0F1C00
0E1C00
001C00
001C00
001C00
001C00
001C00
001C00
001C00
001C00
001C00
001C00
001C00
001C00
001C00
001C00
000000
000000
000000
000000
000000
000000
000000
000000
000000
ENDCHAR
STARTCHAR Digit2
ENCODING 50
SWIDTH 432 0
DWIDTH 18 0
BBX 18 40 0 -9
BITMAP
000000
000000
000000
000000
000000
000000
000000
000000
03F800
0FFE00
0FFE00
1E0F00
1C0700
1C0700
1C0700
000700
000E00
001E00
003C00
007800
00F000
01E000
03C000
078000
070000
0E0000
0E0000
1C0000
1FFF00
1FFF00
1FFF00
000000
000000
000000
000000
000000
000000
000000
000000
000000
ENDCHAR
STARTCHAR Digit3
ENCODING 51
SWIDTH 432 0
DWIDTH 18 0
BBX 18 40 0 -9
BITMAP
000000
000000
000000
000000
000000
000000
000000
000000
03F800
0FFE00
0FFE00
1E0F00
1C0700
1C0700
000700
000700
000E00
00FC00
00F800
00FC00
000E00
000700
000700
000700
000700
1C0700
1C0700
1E0F00
0FFE00
0FFE00
03F800
000000
000000
000000
000000
000000
000000
000000
000000
000000
ENDCHAR
STARTCHAR Digit4
ENCODING 52
SWIDTH 432 0
DWIDTH 18 0
BBX 18 40 0 -9
BITMAP
000000
000000
000000
000000
000000
000000
000000
000000
001C00
003C00
003C00
007C00
00FC00
00FC00
01DC00
01DC00
039C00
079C00
071C00
0E1C00
0E1C00
1C1C00
1FFF00
1FFF00
1FFF00
001C00
001C00
001C00
001C00
001C00
001C00
000000
000000
000000
000000
000000
000000
000000
000000
000000
ENDCHAR
STARTCHAR Digit5
ENCODING 53
SWIDTH 432 0
DWIDTH 18 0
BBX 18 40 0 -9
BITMAP
000000
000000
000000
000000
000000
000000
000000
000000
0FFE00
0FFE00
0FFE00
0E0000
0E0000
0E0000
0E0000
0EF000
0FFC00
0FFE00
0F0E00
0E0700
000700
000700
000700
000700
000700
000700
1C0700
1E0E00
0FFE00
0FFC00
03F000
000000
000000
000000
000000
000000
000000
000000
000000
000000
ENDCHAR
STARTCHAR Digit6
ENCODING 54
SWIDTH 432 0
DWIDTH 18 0
BBX 18 40 0 -9
BITMAP
000000
000000
000000
000000
000000
000000
000000
000000
007C00
01FC00
03FC00
07C000
070000
0F0000
0E0000
0E0000
1C0000
1DF000
1FFC00
1FFE00
1E0E00
1C0700
1C0700
1C0700
1C0700
1C0700
1C0700
0E0E00
0FFE00
07FC00
01F000
000000
000000
000000
000000
000000
000000
000000
000000
000000
ENDCHAR
STARTCHAR Digit7
ENCODING 55
SWIDTH 432 0
DWIDTH 18 0
BBX 18 40 0 -9
BITMAP
000000
000000
000000
000000
000000
000000
000000
000000
1FFF00
1FFF00
1FFF00
000700
000F00
000E00
001C00
001C00
003800
003800
003800
007000
007000
007000
00E000
00E000
00E000
00E000
01C000
01C000
01C000
01C000
01C000
000000
000000
000000
000000
000000
000000
000000
000000
000000
ENDCHAR
STARTCHAR Digit8
ENCODING 56
SWIDTH 432 0
DWIDTH 18 0
BBX 18 40 0 -9
BITMAP
000000
000000
000000
000000
000000
000000
000000
000000
01F000
07FC00
0FFE00
0E0E00
1C0700
1C0700
1C0700
0E0E00
0F1E00
07BC00
01F000
03F800
07FC00
0F1E00
0E0E00
1C0700
1C0700
1C0700
1C0700
0E0E00
0FFE00
07FC00
01F000
000000
000000
000000
000000
000000
000000
000000
000000
000000
ENDCHAR
STARTCHAR Digit9
ENCODING 57
SWIDTH 432 0
DWIDTH 18 0
BBX 18 40 0 -9
BITMAP
000000
000000
000000
000000
000000
000000
000000
000000
01F000
07FC00
0FFE00
0E0E00
1C0700
1C0700
1C0700
1C0700
1C0700
1C0700
0E0F00
0FFF00
07FF00
01F700
000700
000E00
000E00
001E00
001C00
007C00
07F800
07F000
07C000
000000
000000
000000
000000
000000
000000
000000
000000
000000
ENDCHAR
STARTCHAR PColon
ENCODING 58
SWIDTH 432 0
DWIDTH 18 0
BBX 18 40 0 -9
BITMAP
000000
000000
000000
000000
000000
000000
000000
000000
000000
000000
000000
000000
000000
000000
000000
000000
00E000
01F000
01F000
01F000
00E000
000000
000000
000000
000000
000000
00E000
01F000
01F000
01F000
00E000
000000
000000
000000
000000
000000
000000
000000
000000
000000
ENDCHAR
STARTCHAR PSemicolon
ENCODING 59
SWIDTH 432 0
DWIDTH 18 0
BBX 18 40 0 -9
BITMAP
000000
000000
000000
000000
000000
000000
000000
000000
000000
000000
000000
000000
000000
000000
000000
000000
00E000
01F000
01F000
01F000
00E000
000000
000000
000000
000000
000000
00E000
01F000
01F000
01F000
00F000
007000
00E000
01E000
03C000
038000
000000
000000
000000
000000
ENDCHAR
STARTCHAR MLess
ENCODING 60
SWIDTH 432 0
DWIDTH 18 0
BBX 18 40 0 -9
BITMAP
000000
000000
000000
000000
000000
000000
000000
000000
000000
000000
000000
000F00
001E00
003C00
007800
00F000
01E000
03C000
078000
0F0000
1E0000
1E0000
0F0000
078000
03C000
01E000
00F000
007800
003C00
001E00
000F00
000000
000000
000000
000000
000000
000000
000000
000000
000000
ENDCHAR
STARTCHAR MEqual
ENCODING 61
SWIDTH 432 0
DWIDTH 18 0
BBX 18 40 0 -9
BITMAP
000000
000000
000000
000000
000000
000000
000000
000000
000000
000000
000000
000000
000000
000000
000000
000000
000000
1FFF00
1FFF00
1FFF00
000000
000000
000000
1FFF00
1FFF00
1FFF00
000000
000000
000000
000000
000000
000000
000000
000000
000000
000000
000000
000000
000000
000000
ENDCHAR
STARTCHAR MGreater
ENCODING 62
SWIDTH 432 0
DWIDTH 18 0
BBX 18 40 0 -9
BITMAP
000000
000000
000000
000000
000000
000000
000000
000000
000000
000000
000000
1E0000
0F0000
078000
03C000
01E000
00F000
007800
003C00
001E00
000F00
000F00
001E00
003C00
007800
00F000
01E000
03C000
078000
0F0000
1E0000
000000
000000
000000
000000
000000
000000
000000
000000
000000
ENDCHAR
STARTCHAR PQuestion
ENCODING 63
SWIDTH 432 0
DWIDTH 18 0
BBX 18 40 0 -9
BITMAP
000000
000000
000000
000000
000000
000000
000000
03F800
0FFE00
0FFE00
1E0F00
1C0700
1C0700
1C0700
000F00
000E00
001E00
003C00
007800
00F000
00E000
00E000
00E000
000000
000000
000000
00E000
01F000
01F000
01F000
00E000
000000
000000
000000
000000
000000
000000
000000
000000
000000
ENDCHAR
STARTCHAR SCommercialAt
ENCODING 64
SWIDTH 432 0
DWIDTH 18 0
BBX 18 40 0 -9
BITMAP
000000
000000
000000
000000
000000
000000
000000
000000
000000
000000
01F000
07FC00
0FFE00
1E0F00
1C0700
180300
38FB80
39FB80
3BFB80
3B9B80
3B1B80
3B3B80
3BFF80
39FF80
38CF00
180000
1C0000
1E0F00
0FFE00
07FC00
01F000
000000
000000
000000
000000
000000
000000
000000
000000
000000
ENDCHAR
STARTCHAR LtCapA
ENCODING 65
SWIDTH 432 0
DWIDTH 18 0
BBX 18 40 0 -9
BITMAP
000000
000000
000000
000000
000000
000000
000000
000000
00E000
00E000
00E000
01F000
01F000
01F000
03B800
03B800
03B800
071C00
071C00
071C00
0E0E00
0FFE00
0FFE00
1FFF00
1C0700
1C0700
380380
380380
380380
7001C0
7001C0
000000
000000
000000
000000
000000
000000
000000
000000
000000
ENDCHAR
STARTCHAR LtCapB
ENCODING 66
SWIDTH 432 0
DWIDTH 18 0
BBX 18 40 0 -9
BITMAP
000000
000000
000000
000000
000000
000000
000000
000000
1FF000
1FFC00
1FFC00
1C1E00
1C0E00
1C0E00
1C0E00
1C0E00
1C1C00
1FFC00
1FF800
1FFC00
1C1E00
1C0E00
1C0700
1C0700
1C0700
1C0700
1C0700
1C0F00
1FFE00
1FFE00
1FF800
000000
000000
000000
000000
000000
000000
000000
000000
000000
ENDCHAR
STARTCHAR LtCapC
ENCODING 67
SWIDTH 432 0
DWIDTH 18 0
BBX 18 40 0 -9
BITMAP
000000
000000
000000
000000
000000
000000
000000
000000
00F800
03FE00
07FE00
0F0F00
0E0700
0E0000
1C0000
1C0000
1C0000
1C0000
1C0000
1C0000
1C0000
1C0000
1C0000
1C0000
1C0000
0E0000
0E0700
0F0F00
07FE00
03FE00
00F800
000000
000000
000000
000000
000000
000000
000000
000000
000000
ENDCHAR
STARTCHAR LtCapD
ENCODING 68
SWIDTH 432 0
DWIDTH 18 0
BBX 18 40 0 -9
BITMAP
000000
000000
000000
000000
000000
000000
000000
000000
1FE000
1FF800
1FFC00
1C1C00
1C0E00
1C0E00
1C0700
1C0700
1C0700
1C0700
1C0700
1C0700
1C0700
1C0700
1C0700
1C0700
1C0700
1C0E00
1C0E00
1C1C00
1FFC00
1FF800
1FE000
000000
000000
000000
000000
000000
000000
000000
000000
000000
ENDCHAR
STARTCHAR LtCapE
ENCODING 69
SWIDTH 432 0
DWIDTH 18 0
BBX 18 40 0 -9
BITMAP
000000
000000
000000
000000
000000
000000
000000
000000
1FFF00
1FFF00
1FFF00
1C0000
1C0000
1C0000
1C0000
1C0000
1C0000
1FFC00
1FFC00
1FFC00
1C0000
1C0000
1C0000
1C0000
1C0000
1C0000
1C0000
1C0000
1FFF00
1FFF00
1FFF00
000000
000000
000000
000000
000000
000000
000000
000000
000000
ENDCHAR
STARTCHAR LtCapF
ENCODING 70
SWIDTH 432 0
DWIDTH 18 0
BBX 18 40 0 -9
BITMAP
000000
000000
000000
000000
000000
000000
000000
000000
0FFF80
0FFF80
0FFF80
0E0000
0E0000
0E0000
0E0000
0E0000
0E0000
0FFE00
0FFE00
0FFE00
0E0000
0E0000
0E0000
0E0000
0E0000
0E0000
0E0000
0E0000
0E0000
0E0000
0E0000
000000
000000
000000
000000
000000
000000
000000
000000
000000
ENDCHAR
STARTCHAR LtCapG
ENCODING 71
SWIDTH 432 0
DWIDTH 18 0
BBX 18 40 0 -9
BITMAP
000000
000000
000000
000000
000000
000000
000000
000000
00F800
03FE00
07FE00
0F0F00
0E0700
0E0000
1C0000
1C0000
1C0000
1C0000
1C0000
1C3F00
1C3F00
1C3F00
1C0700
1C0700
1C0700
0E0700
0E0700
0F0F00
07FF00
03FF00
00F700
000000
000000
000000
000000
000000
000000
000000
000000
000000
ENDCHAR
STARTCHAR LtCapH
ENCODING 72
SWIDTH 432 0
DWIDTH 18 0
BBX 18 40 0 -9
BITMAP
000000
000000
000000
000000
000000
000000
000000
000000
1C0700
1C0700
1C0700
1C0700
1C0700
1C0700
1C0700
1C0700
1C0700
1FFF00
1FFF00
1FFF00
1C0700
1C0700
1C0700
1C0700
1C0700
1C0700
1C0700
1C0700
1C0700
1C0700
1C0700
000000
000000
000000
000000
000000
000000
000000
000000
000000
ENDCHAR
STARTCHAR LtCapI
ENCODING 73
SWIDTH 432 0
DWIDTH 18 0
BBX 18 40 0 -9
BITMAP
000000
000000
000000
000000
000000
000000
000000
000000
0FFE00
0FFE00
0FFE00
00E000
00E000
00E000
00E000
00E000
00E000
00E000
00E000
00E000
00E000
00E000
00E000
00E000
00E000
00E000
00E000
00E000
0FFE00
0FFE00
0FFE00
000000
000000
000000
000000
000000
000000
000000
000000
000000
ENDCHAR
STARTCHAR LtCapJ
ENCODING 74
SWIDTH 432 0
DWIDTH 18 0
BBX 18 40 0 -9
BITMAP
000000
000000
000000
000000
000000
000000
000000
000000
001F00
001F00
001F00
000E00
000E00
000E00
000E00
000E00
000E00
000E00
000E00
000E00
000E00
000E00
000E00
1C0E00
1C0E00
1C0E00
1C0E00
0E1C00
0FFC00
07F800
03F000
000000
000000
000000
000000
000000
000000
000000
000000
000000
ENDCHAR
STARTCHAR LtCapK
ENCODING 75
SWIDTH 432 0
DWIDTH 18 0
BBX 18 40 0 -9
BITMAP
000000
000000
000000
000000
000000
000000
000000
000000
1C0700
1C0700
1C0F00
1C0E00
1C1C00
1C3C00
1C3800
1C7000
1CF000
1CE000
1DE000
1FF000
1FF000
1F3800
1E3800
1C1C00
1C1C00
1C1C00
1C0E00
1C0E00
1C0700
1C0700
1C0700
000000
000000
000000
000000
000000
000000
000000
000000
000000
ENDCHAR
STARTCHAR LtCapL
ENCODING 76
SWIDTH 432 0
DWIDTH 18 0
BBX 18 40 0 -9
BITMAP
000000
000000
000000
000000
000000
000000
000000
000000
1C0000
1C0000
1C0000
1C0000
1C0000
1C0000
1C0000
1C0000
1C0000
1C0000
1C0000
1C0000
1C0000
1C0000
1C0000
1C0000
1C0000
1C0000
1C0000
1C0000
1FFF00
1FFF00
1FFF00
000000
000000
000000
000000
000000
000000
000000
000000
000000
ENDCHAR
STARTCHAR LtCapM
ENCODING 77
SWIDTH 432 0
DWIDTH 18 0
BBX 18 40 0 -9
BITMAP
000000
000000
000000
000000
000000
000000
000000
000000
380380
380380
3C0780
3C0780
3E0F80
3E0F80
3F1F80
3F1F80
3BBB80
3BBB80
39F380
39F380
38E380
38E380
384380
380380
380380
380380
380380
380380
380380
380380
380380
000000
000000
000000
000000
000000
000000
000000
000000
000000
ENDCHAR
STARTCHAR LtCapN
ENCODING 78
SWIDTH 432 0
DWIDTH 18 0
BBX 18 40 0 -9
BITMAP
000000
000000
000000
000000
000000
000000
000000
000000
1C0700
1C0700
1E0700
1E0700
1F0700
1F0700
1F8700
1F8700
1DC700
1DC700
1CC700
1CE700
1C6700
1C7700
1C7700
1C3F00
1C3F00
1C1F00
1C1F00
1C0F00
1C0F00
1C0700
1C0700
000000
000000
000000
000000
000000
000000
000000
000000
000000
ENDCHAR
STARTCHAR LtCapO
ENCODING 79
SWIDTH 432 0
DWIDTH 18 0
BBX 18 40 0 -9
BITMAP
000000
000000
000000
000000
000000
000000
000000
000000
01E000
07F800
0FFC00
1E1E00
1C0E00
380700
380700
380700
380700
380700
380700
380700
380700
380700
380700
380700
380700
380700
1C0E00
1E1E00
0FFC00
07F800
01E000
000000
000000
000000
000000
000000
000000
000000
000000
000000
ENDCHAR
STARTCHAR LtCapP
ENCODING 80
SWIDTH 432 0
DWIDTH 18 0
BBX 18 40 0 -9
BITMAP
000000
000000
000000
000000
000000
000000
000000
000000
1FF000
1FFC00
1FFE00
1C0E00
1C0700
1C0700
1C0700
1C0700
1C0700
1C0700
1C0E00
1FFE00
1FFC00
1FF000
1C0000
1C0000
1C0000
1C0000
1C0000
1C0000
1C0000
1C0000
1C0000
000000
000000
000000
000000
000000
000000
000000
000000
000000
ENDCHAR
STARTCHAR LtCapQ
ENCODING 81
SWIDTH 432 0
DWIDTH 18 0
BBX 18 40 0 -9
BITMAP
000000
000000
000000
000000
000000
000000
000000
000000
01E000
07F800
0FFC00
1E1E00
1C0E00
380700
380700
380700
380700
380700
380700
380700
380700
380700
380700
3B8700
3FC700
3FE700
1C7E00
1E3E00
0FFC00
07F800
01F800
000C00
000F80
000780
000380
000000
000000
000000
000000
000000
ENDCHAR
STARTCHAR LtCapR
ENCODING 82
SWIDTH 432 0
DWIDTH 18 0
BBX 18 40 0 -9
BITMAP
000000
000000
000000
000000
000000
000000
000000
000000
1FE000
1FF800
1FFC00
1C1C00
1C0E00
1C0E00
1C0E00
1C0E00
1C0E00
1C1C00
1FFC00
1FF800
1FF000
1C7000
1C7800
1C3800
1C3C00
1C1C00
1C1E00
1C0E00
1C0F00
1C0700
1C0780
000000
000000
000000
000000
000000
000000
000000
000000
000000
ENDCHAR
STARTCHAR LtCapS
ENCODING 83
SWIDTH 432 0
DWIDTH 18 0
BBX 18 40 0 -9
BITMAP
000000
000000
000000
000000
000000
000000
000000
000000
03F800
07FE00
0FFE00
0E0F00
1C0700
1C0000
1C0000
0E0000
0F0000
07C000
03F000
01F800
007C00
001E00
000E00
000700
000700
000700
1C0700
1E0E00
0FFE00
0FFC00
03F800
000000
000000
000000
000000
000000
000000
000000
000000
000000
ENDCHAR
STARTCHAR LtCapT
ENCODING 84
SWIDTH 432 0
DWIDTH 18 0
BBX 18 40 0 -9
BITMAP
000000
000000
000000
000000
000000
000000
000000
000000
3FFF80
3FFF80
3FFF80
00E000
00E000
00E000
00E000
00E000
00E000
00E000
00E000
00E000
00E000
00E000
00E000
00E000
00E000
00E000
00E000
00E000
00E000
00E000
00E000
000000
000000
000000
000000
000000
000000
000000
000000
000000
ENDCHAR
STARTCHAR LtCapU
ENCODING 85
SWIDTH 432 0
DWIDTH 18 0
BBX 18 40 0 -9
BITMAP
000000
000000
000000
000000
000000
000000
000000
000000
1C0700
1C0700
1C0700
1C0700
1C0700
1C0700
1C0700
1C0700
1C0700
1C0700
1C0700
1C0700
1C0700
1C0700
1C0700
1C0700
1C0700
1C0700
1C0700
0E0E00
0FFE00
07FC00
01F000
000000
000000
000000
000000
000000
000000
000000
000000
000000
ENDCHAR
STARTCHAR LtCapV
ENCODING 86
SWIDTH 432 0
DWIDTH 18 0
BBX 18 40 0 -9
BITMAP
000000
000000
000000
000000
000000
000000
000000
000000
7001C0
7001C0
380380
380380
380380
1C0700
1C0700
1C0700
0E0E00
0E0E00
0E0E00
071C00
071C00
071C00
03B800
03B800
03B800
01F000
01F000
01F000
00E000
00E000
00E000
000000
000000
000000
000000
000000
000000
000000
000000
000000
ENDCHAR
STARTCHAR LtCapW
ENCODING 87
SWIDTH 432 0
DWIDTH 18 0
BBX 18 40 0 -9
BITMAP
000000
000000
000000
000000
000000
000000
000000
000000
380380
380380
380380
380380
380380
380380
380380
384380
1CE700
1CE700
1CE700
1CE700
1DF700
1DF700
1DB700
1FBF00
0FBE00
0F1E00
0F1E00
0F1E00
0E0E00
0E0E00
0E0E00
000000
000000
000000
000000
000000
000000
000000
000000
000000
ENDCHAR
STARTCHAR LtCapX
ENCODING 88
SWIDTH 432 0
DWIDTH 18 0
BBX 18 40 0 -9
BITMAP
000000
000000
000000
000000
000000
000000
000000
000000
1C0700
1C0700
1C0700
0E0E00
0E0E00
071C00
071C00
03B800
03B800
01F000
01F000
00E000
01F000
01F000
03B800
03B800
071C00
071C00
0E0E00
0E0E00
1C0700
1C0700
1C0700
000000
000000
000000
000000
000000
000000
000000
000000
000000
ENDCHAR
STARTCHAR LtCapY
ENCODING 89
SWIDTH 432 0
DWIDTH 18 0
BBX 18 40 0 -9
BITMAP
000000
000000
000000
000000
000000
000000
000000
000000
380380
380380
1C0700
1C0700
0E0E00
0E0E00
071C00
071C00
03B800
03B800
01F000
01F000
00E000
00E000
00E000
00E000
00E000
00E000
00E000
00E000
00E000
00E000
00E000
000000
000000
000000
000000
000000
000000
000000
000000
000000
ENDCHAR
STARTCHAR LtCapZ
ENCODING 90
SWIDTH 432 0
DWIDTH 18 0
BBX 18 40 0 -9
BITMAP
000000
000000
000000
000000
000000
000000
000000
000000
1FFF00
1FFF00
1FFF00
000E00
000E00
001C00
001C00
003800
003800
007000
00F000
00E000
01E000
01C000
038000
038000
070000
070000
0E0000
0E0000
1FFF00
1FFF00
1FFF00
000000
000000
000000
000000
000000
000000
000000
000000
000000
ENDCHAR
STARTCHAR PSquareBrackL
ENCODING 91
SWIDTH 432 0
DWIDTH 18 0
BBX 18 40 0 -9
BITMAP
000000
000000
000000
000000
000000
000000
07FC00
07FC00
07FC00
070000
070000
070000
070000
070000
070000
070000
070000
070000
070000
070000
070000
070000
070000
070000
070000
070000
070000
070000
070000
070000
070000
07FC00
07FC00
07FC00
000000
000000
000000
000000
000000
000000
ENDCHAR
STARTCHAR PRevSolidus
ENCODING 92
SWIDTH 432 0
DWIDTH 18 0
BBX 18 40 0 -9
BITMAP
000000
000000
000000
000000
000000
000000
380000
380000
3C0000
3C0000
1E0000
1E0000
0F0000
0F0000
078000
078000
03C000
03C000
01E000
01E000
00F000
00F000
007800
007800
003C00
003C00
001E00
001E00
000F00
000F00
000780
000780
000380
000380
000000
000000
000000
000000
000000
000000
ENDCHAR
STARTCHAR PSquareBrackR
ENCODING 93
SWIDTH 432 0
DWIDTH 18 0
BBX 18 40 0 -9
BITMAP
000000
000000
000000
000000
000000
000000
07FC00
07FC00
07FC00
001C00
001C00
001C00
001C00
001C00
001C00
001C00
001C00
001C00
001C00
001C00
001C00
001C00
001C00
001C00
001C00
001C00
001C00
001C00
001C00
001C00
001C00
07FC00
07FC00
07FC00
000000
000000
000000
000000
000000
000000
ENDCHAR
STARTCHAR AccCircumAscii
ENCODING 94
SWIDTH 432 0
DWIDTH 18 0
BBX 18 40 0 -9
BITMAP
000000
000000
000000
000000
000000
000000
004000
00E000
01F000
03F800
07BC00
0F1E00
1E0F00
1C0700
180300
100100
000000
000000
000000
000000
000000
000000
000000
000000
000000
000000
000000
000000
000000
000000
000000
000000
000000
000000
000000
000000
000000
000000
000000
000000
ENDCHAR
STARTCHAR OLowline
ENCODING 95
SWIDTH 432 0
DWIDTH 18 0
BBX 18 40 0 -9
BITMAP
000000
000000
000000
000000
000000
000000
000000
000000
000000
000000
000000
000000
000000
000000
000000
000000
000000
000000
000000
000000
000000
000000
000000
000000
000000
000000
000000
000000
1FFF00
1FFF00
1FFF00
000000
000000
000000
000000
000000
000000
000000
000000
000000
ENDCHAR
STARTCHAR AccGraveAscii
ENCODING 96
SWIDTH 432 0
DWIDTH 18 0
BBX 18 40 0 -9
BITMAP
000000
000000
000000
000000
000000
000000
01C000
03E000
03E000
03E000
03C000
038000
01C000
01E000
00F000
007000
000000
000000
000000
000000
000000
000000
000000
000000
000000
000000
000000
000000
000000
000000
000000
000000
000000
000000
000000
000000
000000
000000
000000
000000
ENDCHAR
STARTCHAR LtSmlA
ENCODING 97
SWIDTH 432 0
DWIDTH 18 0
BBX 18 40 0 -9
BITMAP
000000
000000
000000
000000
000000
000000
000000
000000
000000
000000
000000
000000
000000
000000
07F800
0FFE00
0FFE00
0E0700
000700
000700
01FF00
07FF00
0FFF00
0E0700
1C0700
1C0700
1C0F00
1E1F00
0FFF00
0FF700
03E700
000000
000000
000000
000000
000000
000000
000000
000000
000000
ENDCHAR
STARTCHAR LtSmlB
ENCODING 98
SWIDTH 432 0
DWIDTH 18 0
BBX 18 40 0 -9
BITMAP
000000
000000
000000
000000
000000
000000
000000
1C0000
1C0000
1C0000
1C0000
1C0000
1C0000
1C0000
1CF800
1DFC00
1FFE00
1F0E00
1E0700
1C0700
1C0700
1C0700
1C0700
1C0700
1C0700
1C0700
1E0700
1F0E00
1FFE00
1DFC00
1CF800
000000
000000
000000
000000
000000
000000
000000
000000
000000
ENDCHAR
STARTCHAR LtSmlC
ENCODING 99
SWIDTH 432 0
DWIDTH 18 0
BBX 18 40 0 -9
BITMAP
000000
000000
000000
000000
000000
000000
000000
000000
000000
000000
000000
000000
000000
000000
00F800
03FE00
07FE00
0F0F00
0E0700
1C0000
1C0000
1C0000
1C0000
1C0000
1C0000
1C0000
0E0700
0F0F00
07FE00
03FE00
00F800
000000
000000
000000
000000
000000
000000
000000
000000
000000
ENDCHAR
STARTCHAR LtSmlD
ENCODING 100
SWIDTH 432 0
DWIDTH 18 0
BBX 18 40 0 -9
BITMAP
000000
000000
000000
000000
000000
000000
000000
000700
000700
000700
000700
000700
000700
000700
03E700
07F700
0FFF00
0E1F00
1C0F00
1C0700
1C0700
1C0700
1C0700
1C0700
1C0700
1C0700
1C0F00
0E1F00
0FFF00
07F700
03E700
000000
000000
000000
000000
000000
000000
000000
000000
000000
ENDCHAR
STARTCHAR LtSmlE
ENCODING 101
SWIDTH 432 0
DWIDTH 18 0
BBX 18 40 0 -9
BITMAP
000000
000000
000000
000000
000000
000000
000000
000000
000000
000000
000000
000000
000000
000000
00F000
03FC00
07FE00
0F0E00
0E0700
1C0700
1FFF00
1FFF00
1FFF00
1C0000
1C0000
1C0000
0E0000
0F0F00
07FF00
03FE00
00F800
000000
000000
000000
000000
000000
000000
000000
000000
000000
ENDCHAR
STARTCHAR LtSmlF
ENCODING 102
SWIDTH 432 0
DWIDTH 18 0
BBX 18 40 0 -9
BITMAP
000000
000000
000000
000000
000000
000000
000000
003E00
00FF00
00FF80
01E380
01C000
01C000
01C000
01C000
1FFE00
1FFE00
1FFE00
01C000
01C000
01C000
01C000
01C000
01C000
01C000
01C000
01C000
01C000
01C000
01C000
01C000
000000
000000
000000
000000
000000
000000
000000
000000
000000
ENDCHAR
STARTCHAR LtSmlG
ENCODING 103
SWIDTH 432 0
DWIDTH 18 0
BBX 18 40 0 -9
BITMAP
000000
000000
000000
000000
000000
000000
000000
000000
000000
000000
000000
000000
000000
000000
03E380
0FFB80
0FFF80
1E1F00
1C0E00
1C0E00
1C0E00
1C0E00
1E1E00
0FFC00
0FFC00
07F000
0E0000
0E0000
07FC00
07FF00
0FFF00
1C0780
1C0380
1C0380
1E0780
0FFF00
0FFF00
03FC00
000000
000000
ENDCHAR
STARTCHAR LtSmlH
ENCODING 104
SWIDTH 432 0
DWIDTH 18 0
BBX 18 40 0 -9
BITMAP
000000
000000
000000
000000
000000
000000
000000
1C0000
1C0000
1C0000
1C0000
1C0000
1C0000
1C0000
1CF800
1DFE00
1FFE00
1F0F00
1E0700
1C0700
1C0700
1C0700
1C0700
1C0700
1C0700
1C0700
1C0700
1C0700
1C0700
1C0700
1C0700
000000
000000
000000
000000
000000
000000
000000
000000
000000
ENDCHAR
STARTCHAR LtSmlI
ENCODING 105
SWIDTH 432 0
DWIDTH 18 0
BBX 18 40 0 -9
BITMAP
000000
000000
000000
000000
000000
000000
000000
00E000
01F000
01F000
00E000
000000
000000
000000
07E000
07E000
07E000
00E000
00E000
00E000
00E000
00E000
00E000
00E000
00E000
00E000
00E000
00E000
1FFF00
1FFF00
1FFF00
000000
000000
000000
000000
000000
000000
000000
000000
000000
ENDCHAR
STARTCHAR LtSmlJ
ENCODING 106
SWIDTH 432 0
DWIDTH 18 0
BBX 18 40 0 -9
BITMAP
000000
000000
000000
000000
000000
000000
000000
003800
007C00
007C00
003800
000000
000000
000000
03F800
03F800
03F800
003800
003800
003800
003800
003800
003800
003800
003800
003800
003800
003800
003800
003800
003800
003800
003800
383800
3C7800
3FF000
1FF000
0FC000
000000
000000
ENDCHAR
STARTCHAR LtSmlK
ENCODING 107
SWIDTH 432 0
DWIDTH 18 0
BBX 18 40 0 -9
BITMAP
000000
000000
000000
000000
000000
000000
000000
1C0000
1C0000
1C0000
1C0000
1C0000
1C0000
1C0000
1C0700
1C0F00
1C1E00
1C3C00
1C7800
1CF000
1DE000
1FE000
1FE000
1FF000
1C7800
1C3800
1C3C00
1C1E00
1C0E00
1C0F00
1C0700
000000
000000
000000
000000
000000
000000
000000
000000
000000
ENDCHAR
STARTCHAR LtSmlL
ENCODING 108
SWIDTH 432 0
DWIDTH 18 0
BBX 18 40 0 -9
BITMAP
000000
000000
000000
000000
000000
000000
000000
07E000
07E000
07E000
00E000
00E000
00E000
00E000
00E000
00E000
00E000
00E000
00E000
00E000
00E000
00E000
00E000
00E000
00E000
00E000
00E000
00E000
1FFF00
1FFF00
1FFF00
000000
000000
000000
000000
000000
000000
000000
000000
000000
ENDCHAR
STARTCHAR LtSmlM
ENCODING 109
SWIDTH 432 0
DWIDTH 18 0
BBX 18 40 0 -9
BITMAP
000000
000000
000000
000000
000000
000000
000000
000000
000000
000000
000000
000000
000000
000000
338E00
37DF00
3FFF80
3CF380
38E380
38E380
38E380
38E380
38E380
38E380
38E380
38E380
38E380
38E380
38E380
38E380
38E380
000000
000000
000000
000000
000000
000000
000000
000000
000000
ENDCHAR
STARTCHAR LtSmlN
ENCODING 110
SWIDTH 432 0
DWIDTH 18 0
BBX 18 40 0 -9
BITMAP
000000
000000
000000
000000
000000
000000
000000
000000
000000
000000
000000
000000
000000
000000
1CF800
1DFE00
1FFE00
1F0F00
1E0700
1C0700
1C0700
1C0700
1C0700
1C0700
1C0700
1C0700
1C0700
1C0700
1C0700
1C0700
1C0700
000000
000000
000000
000000
000000
000000
000000
000000
000000
ENDCHAR
STARTCHAR LtSmlO
ENCODING 111
SWIDTH 432 0
DWIDTH 18 0
BBX 18 40 0 -9
BITMAP
000000
000000
000000
000000
000000
000000
000000
000000
000000
000000
000000
000000
000000
000000
01F000
07FC00
0FFE00
0E0E00
1E0F00
1C0700
1C0700
1C0700
1C0700
1C0700
1C0700
1C0700
1E0F00
0E0E00
0FFE00
07FC00
01F000
000000
000000
000000
000000
000000
000000
000000
000000
000000
ENDCHAR
STARTCHAR LtSmlP
ENCODING 112
SWIDTH 432 0
DWIDTH 18 0
BBX 18 40 0 -9
BITMAP
000000
000000
000000
000000
000000
000000
000000
000000
000000
000000
000000
000000
000000
000000
1CF800
1DFC00
1FFE00
1F0E00
1E0700
1C0700
1C0700
1C0700
1C0700
1C0700
1C0700
1C0700
1E0700
1F0E00
1FFE00
1DFC00
1CF800
1C0000
1C0000
1C0000
1C0000
1C0000
1C0000
1C0000
000000
000000
ENDCHAR
STARTCHAR LtSmlQ
ENCODING 113
SWIDTH 432 0
DWIDTH 18 0
BBX 18 40 0 -9
BITMAP
000000
000000
000000
000000
000000
000000
000000
000000
000000
000000
000000
000000
000000
000000
03E700
07F700
0FFF00
0E1F00
1C0F00
1C0700
1C0700
1C0700
1C0700
1C0700
1C0700
1C0700
1C0F00
0E1F00
0FFF00
07F700
03E700
000700
000700
000700
000700
000700
000700
000700
000000
000000
ENDCHAR
STARTCHAR LtSmlR
ENCODING 114
SWIDTH 432 0
DWIDTH 18 0
BBX 18 40 0 -9
BITMAP
000000
000000
000000
000000
000000
000000
000000
000000
000000
000000
000000
000000
000000
000000
1E7C00
1EFE00
1FFF00
0F8F00
0F0700
0E0000
0E0000
0E0000
0E0000
0E0000
0E0000
0E0000
0E0000
0E0000
0E0000
0E0000
0E0000
000000
000000
000000
000000
000000
000000
000000
000000
000000
ENDCHAR
STARTCHAR LtSmlS
ENCODING 115
SWIDTH 432 0
DWIDTH 18 0
BBX 18 40 0 -9
BITMAP
000000
000000
000000
000000
000000
000000
000000
000000
000000
000000
000000
000000
000000
000000
03F800
0FFE00
0FFF00
1E0F00
1C0700
1C0000
0F0000
0FF000
07FC00
01FE00
001E00
000700
1C0700
1E0F00
1FFE00
0FFE00
03F800
000000
000000
000000
000000
000000
000000
000000
000000
000000
ENDCHAR
STARTCHAR LtSmlT
ENCODING 116
SWIDTH 432 0
DWIDTH 18 0
BBX 18 40 0 -9
BITMAP
000000
000000
000000
000000
000000
000000
000000
000000
004000
00C000
01C000
01C000
01C000
01C000
1FFE00
1FFE00
1FFE00
01C000
01C000
01C000
01C000
01C000
01C000
01C000
01C000
01C000
01C000
01C300
00FF00
00FF00
007E00
000000
000000
000000
000000
000000
000000
000000
000000
000000
ENDCHAR
STARTCHAR LtSmlU
ENCODING 117
SWIDTH 432 0
DWIDTH 18 0
BBX 18 40 0 -9
BITMAP
000000
000000
000000
000000
000000
000000
000000
000000
000000
000000
000000
000000
000000
000000
1C0700
1C0700
1C0700
1C0700
1C0700
1C0700
1C0700
1C0700
1C0700
1C0700
1C0700
1C0700
1C0F00
1E1F00
0FFF00
0FF700
07E700
000000
000000
000000
000000
000000
000000
000000
000000
000000
ENDCHAR
STARTCHAR LtSmlV
ENCODING 118
SWIDTH 432 0
DWIDTH 18 0
BBX 18 40 0 -9
BITMAP
000000
000000
000000
000000
000000
000000
000000
000000
000000
000000
000000
000000
000000
000000
380380
380380
3C0780
1C0700
1C0700
0E0E00
0E0E00
071C00
071C00
071C00
03B800
03B800
01F000
01F000
01F000
00E000
00E000
000000
000000
000000
000000
000000
000000
000000
000000
000000
ENDCHAR
STARTCHAR LtSmlW
ENCODING 119
SWIDTH 432 0
DWIDTH 18 0
BBX 18 40 0 -9
BITMAP
000000
000000
000000
000000
000000
000000
000000
000000
000000
000000
000000
000000
000000
000000
380380
380380
380380
380380
38E380
38E380
1CE700
1CE700
1DF700
1DF700
1DB700
1FBF00
0FBE00
0F1E00
0F1E00
0E0E00
0E0E00
000000
000000
000000
000000
000000
000000
000000
000000
000000
ENDCHAR
STARTCHAR LtSmlX
ENCODING 120
SWIDTH 432 0
DWIDTH 18 0
BBX 18 40 0 -9
BITMAP
000000
000000
000000
000000
000000
000000
000000
000000
000000
000000
000000
000000
000000
000000
1C0700
1C0700
0E0E00
0F1E00
071C00
03B800
03F800
01F000
00E000
01F000
03F800
03B800
071C00
0F1E00
0E0E00
1C0700
1C0700
000000
000000
000000
000000
000000
000000
000000
000000
000000
ENDCHAR
STARTCHAR LtSmlY
ENCODING 121
SWIDTH 432 0
DWIDTH 18 0
BBX 18 40 0 -9
BITMAP
000000
000000
000000
000000
000000
000000
000000
000000
000000
000000
000000
000000
000000
000000
1C0700
1C0700
1C0700
0E0700
0E0E00
070E00
070E00
070E00
039C00
039C00
01DC00
01DC00
01F800
00F800
00F800
007800
007000
007000
007000
00E000
1CE000
1FE000
1FC000
0F8000
000000
000000
ENDCHAR
STARTCHAR LtSmlZ
ENCODING 122
SWIDTH 432 0
DWIDTH 18 0
BBX 18 40 0 -9
BITMAP
000000
000000
000000
000000
000000
000000
000000
000000
000000
000000
000000
000000
000000
000000
1FFF00
1FFF00
1FFF00
000E00
001C00
003C00
007800
00F000
00E000
01E000
03C000
078000
070000
0E0000
1FFF00
1FFF00
1FFF00
000000
000000
000000
000000
000000
000000
000000
000000
000000
ENDCHAR
STARTCHAR PCurlyBrackL
ENCODING 123
SWIDTH 432 0
DWIDTH 18 0
BBX 18 40 0 -9
BITMAP
000000
000000
000000
000000
000000
000000
001E00
007E00
007E00
00F000
00E000
00E000
00E000
00E000
00E000
00E000
00E000
01E000
07C000
0F8000
0F8000
078000
01C000
00E000
00E000
00E000
00E000
00E000
00E000
00E000
00F000
007E00
007E00
001E00
000000
000000
000000
000000
000000
000000
ENDCHAR
STARTCHAR OVertBar
ENCODING 124
SWIDTH 432 0
DWIDTH 18 0
BBX 18 40 0 -9
BITMAP
000000
000000
000000
000000
000000
000000
00E000
00E000
00E000
00E000
00E000
00E000
00E000
00E000
00E000
00E000
00E000
00E000
00E000
00E000
00E000
00E000
00E000
00E000
00E000
00E000
00E000
00E000
00E000
00E000
00E000
00E000
00E000
00E000
000000
000000
000000
000000
000000
000000
ENDCHAR
STARTCHAR PCurlyBrackR
ENCODING 125
SWIDTH 432 0
DWIDTH 18 0
BBX 18 40 0 -9
BITMAP
000000
000000
000000
000000
000000
000000
0F0000
0FC000
0FC000
01E000
00E000
00E000
00E000
00E000
00E000
00E000
00E000
00F000
007C00
003E00
003E00
007C00
00F000
00E000
00E000
00E000
00E000
00E000
00E000
00E000
01E000
0FC000
0FC000
0F0000
000000
000000
000000
000000
000000
000000
ENDCHAR
STARTCHAR AccTildeAscii
ENCODING 126
SWIDTH 432 0
DWIDTH 18 0
BBX 18 40 0 -9
BITMAP
000000
000000
000000
000000
000000
000000
078700
0FC700
1FE700
1CFF00
1C7E00
1C3C00
000000
000000
000000
000000
000000
000000
000000
000000
000000
000000
000000
000000
000000
000000
000000
000000
000000
000000
000000
000000
000000
000000
000000
000000
000000
000000
000000
000000
ENDCHAR
STARTCHAR SpaceNoBreak
ENCODING 160
SWIDTH 432 0
DWIDTH 18 0
BBX 18 40 0 -9
BITMAP
000000
000000
000000
000000
000000
000000
000000
000000
000000
000000
000000
000000
000000
000000
000000
000000
000000
000000
000000
000000
000000
000000
000000
000000
1C0700
1C0700
1C0700
1C0700
1C0700
1FFF00
1FFF00
1FFF00
000000
000000
000000
000000
000000
000000
000000
000000
ENDCHAR
STARTCHAR PExclamInv
ENCODING 161
SWIDTH 432 0
DWIDTH 18 0
BBX 18 40 0 -9
BITMAP
000000
000000
000000
000000
000000
000000
000000
000000
000000
000000
000000
000000
000000
000000
00E000
01F000
01F000
01F000
00E000
000000
000000
000000
004000
004000
00E000
00E000
00E000
00E000
00E000
00E000
01F000
01F000
01F000
01F000
01F000
01F000
01F000
00E000
000000
000000
ENDCHAR
STARTCHAR CurrCent
ENCODING 162
SWIDTH 432 0
DWIDTH 18 0
BBX 18 40 0 -9
BITMAP
000000
000000
000000
000000
000000
000000
000000
000000
000000
000000
000000
000600
000E00
000C00
01FC00
07FE00
0FFE00
0E3700
1C3700
1C7000
1C6000
1C6000
1CE000
1CC000
1CC000
1DC000
1D8700
0D8F00
0FFE00
07FE00
07F800
060000
0E0000
0C0000
000000
000000
000000
000000
000000
000000
ENDCHAR
STARTCHAR CurrPound
ENCODING 163
SWIDTH 432 0
DWIDTH 18 0
BBX 18 40 0 -9
BITMAP
000000
000000
000000
000000
000000
000000
000000
000000
00F800
03FE00
07FE00
078F00
0F0700
0E0700
0E0000
0E0000
0E0000
0E0000
3FF000
3FF000
3FF000
0E0000
0E0000
0E0000
0E0000
0E0000
1C0380
3C0380
3FFF80
3FFF80
3FFF80
000000
000000
000000
000000
000000
000000
000000
000000
000000
ENDCHAR
STARTCHAR CurrGeneral
ENCODING 164
SWIDTH 432 0
DWIDTH 18 0
BBX 18 40 0 -9
BITMAP
000000
000000
000000
000000
000000
000000
000000
000000
000000
000000
000000
000000
000000
000000
000000
1C0700
1EEF00
1FFF00
0FFE00
071C00
0E0E00
0E0E00
0E0E00
071C00
0FFE00
1FFF00
1EEF00
1C0700
000000
000000
000000
000000
000000
000000
000000
000000
000000
000000
000000
000000
ENDCHAR
STARTCHAR CurrYen
ENCODING 165
SWIDTH 432 0
DWIDTH 18 0
BBX 18 40 0 -9
BITMAP
000000
000000
000000
000000
000000
000000
000000
000000
380380
380380
1C0700
1C0700
0E0E00
0E0E00
071C00
071C00
03B800
03B800
1FFF00
1FFF00
1FFF00
00E000
00E000
1FFF00
1FFF00
1FFF00
00E000
00E000
00E000
00E000
00E000
000000
000000
000000
000000
000000
000000
000000
000000
000000
ENDCHAR
STARTCHAR OVertBarBroken
ENCODING 166
SWIDTH 432 0
DWIDTH 18 0
BBX 18 40 0 -9
BITMAP
000000
000000
000000
000000
000000
000000
00E000
00E000
00E000
00E000
00E000
00E000
00E000
00E000
00E000
00E000
00E000
000000
000000
000000
000000
000000
000000
00E000
00E000
00E000
00E000
00E000
00E000
00E000
00E000
00E000
00E000
00E000
000000
000000
000000
000000
000000
000000
ENDCHAR
STARTCHAR SParagraph
ENCODING 167
SWIDTH 432 0
DWIDTH 18 0
BBX 18 40 0 -9
BITMAP
000000
000000
000000
000000
000000
000000
000000
01F800
07FC00
07FE00
0F0E00
0E0E00
0E0000
0F0000
078000
03C000
01E000
00F000
03F800
07FC00
0F1E00
0E0E00
0E0E00
0E0E00
0F1E00
07FC00
03F800
01E000
00F000
007800
003C00
001E00
000E00
0E0E00
0E1E00
0FFC00
07FC00
03F000
000000
000000
ENDCHAR
STARTCHAR AccDrss
ENCODING 168
SWIDTH 432 0
DWIDTH 18 0
BBX 18 40 0 -9
BITMAP
000000
000000
000000
000000
000000
000000
0E1C00
1F3E00
1F3E00
1F3E00
0E1C00
000000
000000
000000
000000
000000
000000
000000
000000
000000
000000
000000
000000
000000
000000
000000
000000
000000
000000
000000
000000
000000
000000
000000
000000
000000
000000
000000
000000
000000
ENDCHAR
STARTCHAR SCopyright
ENCODING 169
SWIDTH 432 0
DWIDTH 18 0
BBX 18 40 0 -9
BITMAP
000000
000000
000000
000000
000000
000000
000000
000000
000000
000000
000000
01F000
07FC00
0FFE00
1E0F00
1C0700
38E380
39F380
3BFB80
3B9B80
3B8380
3B8380
3B9B80
3BFB80
39F380
38E380
1C0700
1E0F00
0FFE00
07FC00
01F000
000000
000000
000000
000000
000000
000000
000000
000000
000000
ENDCHAR
STARTCHAR OrdFem
ENCODING 170
SWIDTH 432 0
DWIDTH 18 0
BBX 18 40 0 -9
BITMAP
000000
000000
000000
000000
000000
000000
03F800
07FC00
07FE00
000E00
03FE00
07FE00
0FFE00
0E0E00
0E0E00
0FFE00
0FFE00
07FE00
000000
0FFE00
0FFE00
0FFE00
000000
000000
000000
000000
000000
000000
000000
000000
000000
000000
000000
000000
000000
000000
000000
000000
000000
000000
ENDCHAR
STARTCHAR PQuoteAngle2L
ENCODING 171
SWIDTH 432 0
DWIDTH 18 0
BBX 18 40 0 -9
BITMAP
000000
000000
000000
000000
000000
000000
000000
000000
000000
000000
000000
000000
000000
000000
000000
000000
01C700
03CF00
079E00
0F3C00
1E7800
1E7800
1E7800
0F3C00
079E00
03CF00
01C700
000000
000000
000000
000000
000000
000000
000000
000000
000000
000000
000000
000000
000000
ENDCHAR
STARTCHAR MNot
ENCODING 172
SWIDTH 432 0
DWIDTH 18 0
BBX 18 40 0 -9
BITMAP
000000
000000
000000
000000
000000
000000
000000
000000
000000
000000
000000
000000
000000
000000
000000
000000
000000
000000
000000
000000
1FFF00
1FFF00
1FFF00
000700
000700
000700
000700
000700
000000
000000
000000
000000
000000
000000
000000
000000
000000
000000
000000
000000
ENDCHAR
STARTCHAR PHyphenSoft
ENCODING 173
SWIDTH 432 0
DWIDTH 18 0
BBX 18 40 0 -9
BITMAP
000000
000000
000000
000000
000000
000000
000000
000000
000000
000000
000000
000000
000000
000000
000000
000000
000000
000000
000000
000000
0FFE00
0FFE00
0FFE00
000000
000000
000000
000000
000000
000000
000000
000000
000000
000000
000000
000000
000000
000000
000000
000000
000000
ENDCHAR
STARTCHAR SRegistered
ENCODING 174
SWIDTH 432 0
DWIDTH 18 0
BBX 18 40 0 -9
BITMAP
000000
000000
000000
000000
000000
000000
000000
000000
000000
000000
000000
01F000
07FC00
0FFE00
1E0F00
1C0700
3BF380
3BFB80
3BFB80
3B9B80
3BFB80
3BF380
3BF380
3BBB80
3BBB80
3BBB80
1C0700
1E0F00
0FFE00
07FC00
01F000
000000
000000
000000
000000
000000
000000
000000
000000
000000
ENDCHAR
STARTCHAR AccMacronLong
ENCODING 175
SWIDTH 432 0
DWIDTH 18 0
BBX 18 40 0 -9
BITMAP
000000
000000
000000
000000
000000
000000
000000
1FFF00
1FFF00
1FFF00
000000
000000
000000
000000
000000
000000
000000
000000
000000
000000
000000
000000
000000
000000
000000
000000
000000
000000
000000
000000
000000
000000
000000
000000
000000
000000
000000
000000
000000
000000
ENDCHAR
STARTCHAR SDegree
ENCODING 176
SWIDTH 432 0
DWIDTH 18 0
BBX 18 40 0 -9
BITMAP
000000
000000
000000
000000
000000
000000
01F000
07FC00
07FC00
0F1E00
0E0E00
0E0E00
0E0E00
0F1E00
07FC00
07FC00
01F000
000000
000000
000000
000000
000000
000000
000000
000000
000000
000000
000000
000000
000000
000000
000000
000000
000000
000000
000000
000000
000000
000000
000000
ENDCHAR
STARTCHAR MPlusMinus
ENCODING 177
SWIDTH 432 0
DWIDTH 18 0
BBX 18 40 0 -9
BITMAP
000000
000000
000000
000000
000000
000000
000000
000000
000000
000000
000000
000000
00E000
00E000
00E000
00E000
00E000
1FFF00
1FFF00
1FFF00
00E000
00E000
00E000
00E000
00E000
000000
000000
000000
1FFF00
1FFF00
1FFF00
000000
000000
000000
000000
000000
000000
000000
000000
000000
ENDCHAR
STARTCHAR Sup2
ENCODING 178
SWIDTH 432 0
DWIDTH 18 0
BBX 18 40 0 -9
BITMAP
000000
000000
000000
000000
03F800
07FC00
0FFE00
0E0E00
0E0E00
0E1E00
003C00
007800
00F000
01E000
03C000
078000
0FFE00
0FFE00
0FFE00
000000
000000
000000
000000
000000
000000
000000
000000
000000
000000
000000
000000
000000
000000
000000
000000
000000
000000
000000
000000
000000
ENDCHAR
STARTCHAR Sup3
ENCODING 179
SWIDTH 432 0
DWIDTH 18 0
BBX 18 40 0 -9
BITMAP
000000
000000
000000
000000
07F800
0FFC00
0FFE00
0E0E00
000E00
001C00
00F800
00FC00
00FE00
001E00
000E00
0E0E00
0FFE00
0FFC00
07F800
000000
000000
000000
000000
000000
000000
000000
000000
000000
000000
000000
000000
000000
000000
000000
000000
000000
000000
000000
000000
000000
ENDCHAR
STARTCHAR AccAcute
ENCODING 180
SWIDTH 432 0
DWIDTH 18 0
BBX 18 40 0 -9
BITMAP
000000
000000
000000
000000
00F800
00F800
01F000
01E000
03C000
038000
070000
060000
000000
000000
000000
000000
000000
000000
000000
000000
000000
000000
000000
000000
000000
000000
000000
000000
000000
000000
000000
000000
000000
000000
000000
000000
000000
000000
000000
000000
ENDCHAR
STARTCHAR SMicro
ENCODING 181
SWIDTH 432 0
DWIDTH 18 0
BBX 18 40 0 -9
BITMAP
000000
000000
000000
000000
000000
000000
000000
000000
000000
000000
000000
000000
000000
000000
1C0700
1C0700
1C0700
1C0700
1C0700
1C0700
1C0700
1C0700
1C0700
1C0700
1C0700
1C0700
1C0F00
1E1F00
1FFF00
1FF700
1DE700
1C0000
1C0000
1C0000
1C0000
1C0000
1C0000
1C0000
000000
000000
ENDCHAR
STARTCHAR SPilcrow
ENCODING 182
SWIDTH 432 0
DWIDTH 18 0
BBX 18 40 0 -9
BITMAP
000000
000000
000000
000000
000000
000000
000000
000000
03FF00
0FFF00
0FFF00
1CE700
1CE700
1CE700
1CE700
1CE700
1CE700
1CE700
1CE700
0FE700
0FE700
03E700
00E700
00E700
00E700
00E700
00E700
00E700
00E700
00E700
00E700
000000
000000
000000
000000
000000
000000
000000
000000
000000
ENDCHAR
STARTCHAR PMiddleDot
ENCODING 183
SWIDTH 432 0
DWIDTH 18 0
BBX 18 40 0 -9
BITMAP
000000
000000
000000
000000
000000
000000
000000
000000
000000
000000
000000
000000
000000
000000
000000
000000
00E000
01F000
01F000
01F000
00E000
000000
000000
000000
000000
000000
000000
000000
000000
000000
000000
000000
000000
000000
000000
000000
000000
000000
000000
000000
ENDCHAR
STARTCHAR AccCedilla
ENCODING 184
SWIDTH 432 0
DWIDTH 18 0
BBX 18 40 0 -9
BITMAP
000000
000000
000000
000000
000000
000000
000000
000000
000000
000000
000000
000000
000000
000000
000000
000000
000000
000000
000000
000000
000000
000000
000000
000000
000000
000000
000000
000000
00E000
00E000
00E000
00F000
007800
003C00
001C00
07FC00
07F800
07F000
000000
000000
ENDCHAR
STARTCHAR Sup1
ENCODING 185
SWIDTH 432 0
DWIDTH 18 0
BBX 18 40 0 -9
BITMAP
000000
000000
000000
000000
007000
00F000
01F000
03F000
07F000
077000
067000
007000
007000
007000
007000
007000
007000
007000
007000
000000
000000
000000
000000
000000
000000
000000
000000
000000
000000
000000
000000
000000
000000
000000
000000
000000
000000
000000
000000
000000
ENDCHAR
STARTCHAR OrdMasc
ENCODING 186
SWIDTH 432 0
DWIDTH 18 0
BBX 18 40 0 -9
BITMAP
000000
000000
000000
000000
000000
000000
01F000
07FC00
07FC00
0F1E00
0E0E00
0E0E00
0E0E00
0E0E00
0F1E00
07FC00
07FC00
01F000
000000
0FFE00
0FFE00
0FFE00
000000
000000
000000
000000
000000
000000
000000
000000
000000
000000
000000
000000
000000
000000
000000
000000
000000
000000
ENDCHAR
STARTCHAR PQuoteAngle2R
ENCODING 187
SWIDTH 432 0
DWIDTH 18 0
BBX 18 40 0 -9
BITMAP
000000
000000
000000
000000
000000
000000
000000
000000
000000
000000
000000
000000
000000
000000
000000
000000
1C7000
1E7800
0F3C00
079E00
03CF00
03CF00
03CF00
079E00
0F3C00
1E7800
1C7000
000000
000000
000000
000000
000000
000000
000000
000000
000000
000000
000000
000000
000000
ENDCHAR
STARTCHAR Frac14
ENCODING 188
SWIDTH 432 0
DWIDTH 18 0
BBX 18 40 0 -9
BITMAP
000000
000000
000000
000000
070000
0F0000
1F0000
1F0000
070000
070000
070000
070000
070380
070780
070F00
071E00
003C00
007800
00F000
01E000
03C000
078000
0F0000
1E0F00
3C0F00
381F00
001F00
003700
003700
007F80
007F80
007F80
000700
000700
000700
000000
000000
000000
000000
000000
ENDCHAR
STARTCHAR Frac12
ENCODING 189
SWIDTH 432 0
DWIDTH 18 0
BBX 18 40 0 -9
BITMAP
000000
000000
000000
000000
070000
0F0000
1F0000
1F0000
070000
070000
070000
070000
070380
070780
070F00
071E00
003C00
007800
00F000
01E000
03C000
078000
0F0000
1E3F00
3C7F80
387F80
007380
000380
000700
000E00
001C00
003800
007F80
007F80
007F80
000000
000000
000000
000000
000000
ENDCHAR
STARTCHAR Frac34
ENCODING 190
SWIDTH 432 0
DWIDTH 18 0
BBX 18 40 0 -9
BITMAP
000000
000000
000000
000000
1F8000
3FC000
3FC000
31C000
038000
070000
078000
01C000
31C380
3FC780
3FCF00
1F9E00
003C00
007800
00F000
01E000
03C000
078000
0F0000
1E0F00
3C0F00
381F00
001F00
003700
003700
007F80
007F80
007F80
000700
000700
000700
000000
000000
000000
000000
000000
ENDCHAR
STARTCHAR PQuestionInv
ENCODING 191
SWIDTH 432 0
DWIDTH 18 0
BBX 18 40 0 -9
BITMAP
000000
000000
000000
000000
000000
000000
000000
000000
000000
000000
000000
000000
000000
000000
00E000
01F000
01F000
01F000
00E000
000000
000000
000000
00E000
00E000
00E000
01E000
03C000
078000
0F0000
0E0000
1E0000
1C0700
1C0700
1C0700
1E0F00
0FFE00
0FFE00
03F800
000000
000000
ENDCHAR
STARTCHAR LtCapAGrave
ENCODING 192
SWIDTH 432 0
DWIDTH 18 0
BBX 18 40 0 -9
BITMAP
000000
000000
0F8000
078000
03C000
01C000
00E000
000000
00E000
00E000
00E000
01F000
01F000
01F000
03B800
03B800
03B800
071C00
071C00
071C00
0E0E00
0FFE00
0FFE00
1FFF00
1C0700
1C0700
380380
380380
380380
7001C0
7001C0
000000
000000
000000
000000
000000
000000
000000
000000
000000
ENDCHAR
STARTCHAR LtCapAAcute
ENCODING 193
SWIDTH 432 0
DWIDTH 18 0
BBX 18 40 0 -9
BITMAP
000000
000000
003E00
003C00
007800
007000
00E000
000000
00E000
00E000
00E000
01F000
01F000
01F000
03B800
03B800
03B800
071C00
071C00
071C00
0E0E00
0FFE00
0FFE00
1FFF00
1C0700
1C0700
380380
380380
380380
7001C0
7001C0
000000
000000
000000
000000
000000
000000
000000
000000
000000
ENDCHAR
STARTCHAR LtCapACircum
ENCODING 194
SWIDTH 432 0
DWIDTH 18 0
BBX 18 40 0 -9
BITMAP
000000
000000
00F000
01F800
03FC00
079E00
000000
000000
00E000
00E000
00E000
01F000
01F000
01F000
03B800
03B800
03B800
071C00
071C00
071C00
0E0E00
0FFE00
0FFE00
1FFF00
1C0700
1C0700
380380
380380
380380
7001C0
7001C0
000000
000000
000000
000000
000000
000000
000000
000000
000000
ENDCHAR
STARTCHAR LtCapATilde
ENCODING 195
SWIDTH 432 0
DWIDTH 18 0
BBX 18 40 0 -9
BITMAP
000000
000000
01C600
03EE00
07FE00
077C00
063800
000000
00E000
00E000
00E000
01F000
01F000
01F000
03B800
03B800
03B800
071C00
071C00
071C00
0E0E00
0FFE00
0FFE00
1FFF00
1C0700
1C0700
380380
380380
380380
7001C0
7001C0
000000
000000
000000
000000
000000
000000
000000
000000
000000
ENDCHAR
STARTCHAR LtCapADrss
ENCODING 196
SWIDTH 432 0
DWIDTH 18 0
BBX 18 40 0 -9
BITMAP
000000
000000
039C00
039C00
039C00
039C00
000000
000000
00E000
00E000
00E000
01F000
01F000
01F000
03B800
03B800
03B800
071C00
071C00
071C00
0E0E00
0FFE00
0FFE00
1FFF00
1C0700
1C0700
380380
380380
380380
7001C0
7001C0
000000
000000
000000
000000
000000
000000
000000
000000
000000
ENDCHAR
STARTCHAR LtCapARing
ENCODING 197
SWIDTH 432 0
DWIDTH 18 0
BBX 18 40 0 -9
BITMAP
000000
01F000
03F800
071C00
071C00
071C00
03F800
01F000
000000
00E000
00E000
01F000
01F000
01F000
03B800
03B800
03B800
071C00
071C00
071C00
0E0E00
0FFE00
0FFE00
1FFF00
1C0700
1C0700
380380
380380
380380
7001C0
7001C0
000000
000000
000000
000000
000000
000000
000000
000000
000000
ENDCHAR
STARTCHAR LtCapAE
ENCODING 198
SWIDTH 432 0
DWIDTH 18 0
BBX 18 40 0 -9
BITMAP
000000
000000
000000
000000
000000
000000
000000
000000
00FF80
00FF80
01FF80
01F000
01F000
03F000
03F000
037000
077000
077F00
067F00
0E7F00
0E7000
0FF000
1FF000
1FF000
1C7000
387000
387000
387000
707F80
707F80
707F80
000000
000000
000000
000000
000000
000000
000000
000000
000000
ENDCHAR
STARTCHAR LtCapCCedilla
ENCODING 199
SWIDTH 432 0
DWIDTH 18 0
BBX 18 40 0 -9
BITMAP
000000
000000
000000
000000
000000
000000
000000
000000
00F800
03FE00
07FE00
0F0F00
0E0700
0E0000
1C0000
1C0000
1C0000
1C0000
1C0000
1C0000
1C0000
1C0000
1C0000
1C0000
1C0000
0E0000
0E0700
0F0F00
07FE00
03FE00
00F800
006000
00E000
007000
003800
03F800
03F800
03F000
000000
000000
ENDCHAR
STARTCHAR LtCapEGrave
ENCODING 200
SWIDTH 432 0
DWIDTH 18 0
BBX 18 40 0 -9
BITMAP
000000
000000
0F8000
078000
03C000
01C000
00E000
000000
1FFF00
1FFF00
1FFF00
1C0000
1C0000
1C0000
1C0000
1C0000
1C0000
1FFC00
1FFC00
1FFC00
1C0000
1C0000
1C0000
1C0000
1C0000
1C0000
1C0000
1C0000
1FFF00
1FFF00
1FFF00
000000
000000
000000
000000
000000
000000
000000
000000
000000
ENDCHAR
STARTCHAR LtCapEAcute
ENCODING 201
SWIDTH 432 0
DWIDTH 18 0
BBX 18 40 0 -9
BITMAP
000000
000000
00F800
00F000
01E000
01C000
038000
000000
1FFF00
1FFF00
1FFF00
1C0000
1C0000
1C0000
1C0000
1C0000
1C0000
1FFC00
1FFC00
1FFC00
1C0000
1C0000
1C0000
1C0000
1C0000
1C0000
1C0000
1C0000
1FFF00
1FFF00
1FFF00
000000
000000
000000
000000
000000
000000
000000
000000
000000
ENDCHAR
STARTCHAR LtCapECircum
ENCODING 202
SWIDTH 432 0
DWIDTH 18 0
BBX 18 40 0 -9
BITMAP
000000
000000
01E000
03F000
07F800
0F3C00
000000
000000
1FFF00
1FFF00
1FFF00
1C0000
1C0000
1C0000
1C0000
1C0000
1C0000
1FFC00
1FFC00
1FFC00
1C0000
1C0000
1C0000
1C0000
1C0000
1C0000
1C0000
1C0000
1FFF00
1FFF00
1FFF00
000000
000000
000000
000000
000000
000000
000000
000000
000000
ENDCHAR
STARTCHAR LtCapEDrss
ENCODING 203
SWIDTH 432 0
DWIDTH 18 0
BBX 18 40 0 -9
BITMAP
000000
000000
073800
073800
073800
073800
000000
000000
1FFF00
1FFF00
1FFF00
1C0000
1C0000
1C0000
1C0000
1C0000
1C0000
1FFC00
1FFC00
1FFC00
1C0000
1C0000
1C0000
1C0000
1C0000
1C0000
1C0000
1C0000
1FFF00
1FFF00
1FFF00
000000
000000
000000
000000
000000
000000
000000
000000
000000
ENDCHAR
STARTCHAR LtCapIGrave
ENCODING 204
SWIDTH 432 0
DWIDTH 18 0
BBX 18 40 0 -9
BITMAP
000000
000000
07C000
03C000
01E000
00E000
007000
000000
0FFE00
0FFE00
0FFE00
00E000
00E000
00E000
00E000
00E000
00E000
00E000
00E000
00E000
00E000
00E000
00E000
00E000
00E000
00E000
00E000
00E000
0FFE00
0FFE00
0FFE00
000000
000000
000000
000000
000000
000000
000000
000000
000000
ENDCHAR
STARTCHAR LtCapIAcute
ENCODING 205
SWIDTH 432 0
DWIDTH 18 0
BBX 18 40 0 -9
BITMAP
000000
000000
007C00
007800
00F000
00E000
01C000
000000
0FFE00
0FFE00
0FFE00
00E000
00E000
00E000
00E000
00E000
00E000
00E000
00E000
00E000
00E000
00E000
00E000
00E000
00E000
00E000
00E000
00E000
0FFE00
0FFE00
0FFE00
000000
000000
000000
000000
000000
000000
000000
000000
000000
ENDCHAR
STARTCHAR LtCapICircum
ENCODING 206
SWIDTH 432 0
DWIDTH 18 0
BBX 18 40 0 -9
BITMAP
000000
000000
00F000
01F800
03FC00
079E00
000000
000000
0FFE00
0FFE00
0FFE00
00E000
00E000
00E000
00E000
00E000
00E000
00E000
00E000
00E000
00E000
00E000
00E000
00E000
00E000
00E000
00E000
00E000
0FFE00
0FFE00
0FFE00
000000
000000
000000
000000
000000
000000
000000
000000
000000
ENDCHAR
STARTCHAR LtCapIDrss
ENCODING 207
SWIDTH 432 0
DWIDTH 18 0
BBX 18 40 0 -9
BITMAP
000000
000000
039C00
039C00
039C00
039C00
000000
000000
0FFE00
0FFE00
0FFE00
00E000
00E000
00E000
00E000
00E000
00E000
00E000
00E000
00E000
00E000
00E000
00E000
00E000
00E000
00E000
00E000
00E000
0FFE00
0FFE00
0FFE00
000000
000000
000000
000000
000000
000000
000000
000000
000000
ENDCHAR
STARTCHAR LtCapEth
ENCODING 208
SWIDTH 432 0
DWIDTH 18 0
BBX 18 40 0 -9
BITMAP
000000
000000
000000
000000
000000
000000
000000
000000
1FE000
1FF800
1FFC00
1C1C00
1C0E00
1C0E00
1C0700
1C0700
1C0700
3FC700
3FC700
3FC700
1C0700
1C0700
1C0700
1C0700
1C0700
1C0E00
1C0E00
1C1C00
1FFC00
1FF800
1FE000
000000
000000
000000
000000
000000
000000
000000
000000
000000
ENDCHAR
STARTCHAR LtCapNTilde
ENCODING 209
SWIDTH 432 0
DWIDTH 18 0
BBX 18 40 0 -9
BITMAP
000000
000000
038C00
07DC00
0FFC00
0EF800
0C7000
000000
1C0700
1C0700
1E0700
1E0700
1F0700
1F0700
1F8700
1F8700
1DC700
1DC700
1CC700
1CE700
1C6700
1C7700
1C7700
1C3F00
1C3F00
1C1F00
1C1F00
1C0F00
1C0F00
1C0700
1C0700
000000
000000
000000
000000
000000
000000
000000
000000
000000
ENDCHAR
STARTCHAR LtCapOGrave
ENCODING 210
SWIDTH 432 0
DWIDTH 18 0
BBX 18 40 0 -9
BITMAP
000000
000000
0F8000
078000
03C000
01C000
00E000
000000
01E000
07F800
0FFC00
1E1E00
1C0E00
380700
380700
380700
380700
380700
380700
380700
380700
380700
380700
380700
380700
380700
1C0E00
1E1E00
0FFC00
07F800
01E000
000000
000000
000000
000000
000000
000000
000000
000000
000000
ENDCHAR
STARTCHAR LtCapOAcute
ENCODING 211
SWIDTH 432 0
DWIDTH 18 0
BBX 18 40 0 -9
BITMAP
000000
000000
007C00
007800
00F000
00E000
01C000
000000
01E000
07F800
0FFC00
1E1E00
1C0E00
380700
380700
380700
380700
380700
380700
380700
380700
380700
380700
380700
380700
380700
1C0E00
1E1E00
0FFC00
07F800
01E000
000000
000000
000000
000000
000000
000000
000000
000000
000000
ENDCHAR
STARTCHAR LtCapOCircum
ENCODING 212
SWIDTH 432 0
DWIDTH 18 0
BBX 18 40 0 -9
BITMAP
000000
000000
01E000
03F000
07F800
0F3C00
000000
000000
01E000
07F800
0FFC00
1E1E00
1C0E00
380700
380700
380700
380700
380700
380700
380700
380700
380700
380700
380700
380700
380700
1C0E00
1E1E00
0FFC00
07F800
01E000
000000
000000
000000
000000
000000
000000
000000
000000
000000
ENDCHAR
STARTCHAR LtCapOTilde
ENCODING 213
SWIDTH 432 0
DWIDTH 18 0
BBX 18 40 0 -9
BITMAP
000000
000000
038C00
07DC00
0FFC00
0EF800
0C7000
000000
01E000
07F800
0FFC00
1E1E00
1C0E00
380700
380700
380700
380700
380700
380700
380700
380700
380700
380700
380700
380700
380700
1C0E00
1E1E00
0FFC00
07F800
01E000
000000
000000
000000
000000
000000
000000
000000
000000
000000
ENDCHAR
STARTCHAR LtCapODrss
ENCODING 214
SWIDTH 432 0
DWIDTH 18 0
BBX 18 40 0 -9
BITMAP
000000
000000
073800
073800
073800
073800
000000
000000
01E000
07F800
0FFC00
1E1E00
1C0E00
380700
380700
380700
380700
380700
380700
380700
380700
380700
380700
380700
380700
380700
1C0E00
1E1E00
0FFC00
07F800
01E000
000000
000000
000000
000000
000000
000000
000000
000000
000000
ENDCHAR
STARTCHAR MMultiply
ENCODING 215
SWIDTH 432 0
DWIDTH 18 0
BBX 18 40 0 -9
BITMAP
000000
000000
000000
000000
000000
000000
000000
000000
000000
000000
000000
000000
000000
000000
000000
1C0700
1E0F00
1F1F00
0FBE00
07FC00
03F800
01F000
03F800
07FC00
0FBE00
1F1F00
1E0F00
1C0700
000000
000000
000000
000000
000000
000000
000000
000000
000000
000000
000000
000000
ENDCHAR
STARTCHAR LtCapOStroke
ENCODING 216
SWIDTH 432 0
DWIDTH 18 0
BBX 18 40 0 -9
BITMAP
000000
000000
000000
000000
000000
000000
000E00
000E00
01EE00
07FC00
0FFC00
1E1E00
1C3E00
383700
383700
387700
386700
386700
38E700
38C700
39C700
398700
398700
3B8700
3B0700
3B0700
1F0E00
1E1E00
0FFC00
0FF800
1DE000
1C0000
1C0000
000000
000000
000000
000000
000000
000000
000000
ENDCHAR
STARTCHAR LtCapUGrave
ENCODING 217
SWIDTH 432 0
DWIDTH 18 0
BBX 18 40 0 -9
BITMAP
000000
000000
07C000
03C000
01E000
00E000
007000
000000
1C0700
1C0700
1C0700
1C0700
1C0700
1C0700
1C0700
1C0700
1C0700
1C0700
1C0700
1C0700
1C0700
1C0700
1C0700
1C0700
1C0700
1C0700
1C0700
0E0E00
0FFE00
07FC00
01F000
000000
000000
000000
000000
000000
000000
000000
000000
000000
ENDCHAR
STARTCHAR LtCapUAcute
ENCODING 218
SWIDTH 432 0
DWIDTH 18 0
BBX 18 40 0 -9
BITMAP
000000
000000
007C00
007800
00F000
00E000
01C000
000000
1C0700
1C0700
1C0700
1C0700
1C0700
1C0700
1C0700
1C0700
1C0700
1C0700
1C0700
1C0700
1C0700
1C0700
1C0700
1C0700
1C0700
1C0700
1C0700
0E0E00
0FFE00
07FC00
01F000
000000
000000
000000
000000
000000
000000
000000
000000
000000
ENDCHAR
STARTCHAR LtCapUCircum
ENCODING 219
SWIDTH 432 0
DWIDTH 18 0
BBX 18 40 0 -9
BITMAP
000000
000000
00F000
01F800
03FC00
079E00
000000
000000
1C0700
1C0700
1C0700
1C0700
1C0700
1C0700
1C0700
1C0700
1C0700
1C0700
1C0700
1C0700
1C0700
1C0700
1C0700
1C0700
1C0700
1C0700
1C0700
0E0E00
0FFE00
07FC00
01F000
000000
000000
000000
000000
000000
000000
000000
000000
000000
ENDCHAR
STARTCHAR LtCapUDrss
ENCODING 220
SWIDTH 432 0
DWIDTH 18 0
BBX 18 40 0 -9
BITMAP
000000
000000
039C00
039C00
039C00
039C00
000000
000000
1C0700
1C0700
1C0700
1C0700
1C0700
1C0700
1C0700
1C0700
1C0700
1C0700
1C0700
1C0700
1C0700
1C0700
1C0700
1C0700
1C0700
1C0700
1C0700
0E0E00
0FFE00
07FC00
01F000
000000
000000
000000
000000
000000
000000
000000
000000
000000
ENDCHAR
STARTCHAR LtCapYAcute
ENCODING 221
SWIDTH 432 0
DWIDTH 18 0
BBX 18 40 0 -9
BITMAP
000000
000000
007C00
007800
00F000
00E000
01C000
000000
380380
380380
1C0700
1C0700
0E0E00
0E0E00
071C00
071C00
03B800
03B800
01F000
01F000
00E000
00E000
00E000
00E000
00E000
00E000
00E000
00E000
00E000
00E000
00E000
000000
000000
000000
000000
000000
000000
000000
000000
000000
ENDCHAR
STARTCHAR LtCapThorn
ENCODING 222
SWIDTH 432 0
DWIDTH 18 0
BBX 18 40 0 -9
BITMAP
000000
000000
000000
000000
000000
000000
000000
000000
1C0000
1C0000
1C0000
1C0000
1C0000
1FF000
1FFC00
1FFE00
1C0E00
1C0700
1C0700
1C0700
1C0700
1C0700
1C0E00
1FFE00
1FFC00
1FF000
1C0000
1C0000
1C0000
1C0000
1C0000
000000
000000
000000
000000
000000
000000
000000
000000
000000
ENDCHAR
STARTCHAR LtSmlSz
ENCODING 223
SWIDTH 432 0
DWIDTH 18 0
BBX 18 40 0 -9
BITMAP
000000
000000
000000
000000
000000
000000
000000
07E000
0FF800
0FF800
1E3C00
1C1C00
1C1C00
1C1C00
1C3C00
1C3800
1C7000
1C7000
1C7000
1C7800
1C3C00
1C1E00
1C0F00
1C0700
1C0380
1C0380
1C0380
1CC780
1CFF00
1CFF00
1C7C00
000000
000000
000000
000000
000000
000000
000000
000000
000000
ENDCHAR
STARTCHAR LtSmlAGrave
ENCODING 224
SWIDTH 432 0
DWIDTH 18 0
BBX 18 40 0 -9
BITMAP
000000
000000
000000
000000
000000
000000
07C000
03C000
01E000
00E000
007000
003000
000000
000000
07F800
0FFE00
0FFE00
0E0700
000700
000700
01FF00
07FF00
0FFF00
0E0700
1C0700
1C0700
1C0F00
1E1F00
0FFF00
0FF700
03E700
000000
000000
000000
000000
000000
000000
000000
000000
000000
ENDCHAR
STARTCHAR LtSmlAAcute
ENCODING 225
SWIDTH 432 0
DWIDTH 18 0
BBX 18 40 0 -9
BITMAP
000000
000000
000000
000000
000000
000000
003E00
003C00
007800
007000
00E000
00C000
000000
000000
07F800
0FFE00
0FFE00
0E0700
000700
000700
01FF00
07FF00
0FFF00
0E0700
1C0700
1C0700
1C0F00
1E1F00
0FFF00
0FF700
03E700
000000
000000
000000
000000
000000
000000
000000
000000
000000
ENDCHAR
STARTCHAR LtSmlACircum
ENCODING 226
SWIDTH 432 0
DWIDTH 18 0
BBX 18 40 0 -9
BITMAP
000000
000000
000000
000000
000000
000000
00E000
01F000
03F800
07BC00
071C00
000000
000000
000000
07F800
0FFE00
0FFE00
0E0700
000700
000700
01FF00
07FF00
0FFF00
0E0700
1C0700
1C0700
1C0F00
1E1F00
0FFF00
0FF700
03E700
000000
000000
000000
000000
000000
000000
000000
000000
000000
ENDCHAR
STARTCHAR LtSmlATilde
ENCODING 227
SWIDTH 432 0
DWIDTH 18 0
BBX 18 40 0 -9
BITMAP
000000
000000
000000
000000
000000
000000
01C600
03EE00
07FE00
077C00
063800
000000
000000
000000
07F800
0FFE00
0FFE00
0E0700
000700
000700
01FF00
07FF00
0FFF00
0E0700
1C0700
1C0700
1C0F00
1E1F00
0FFF00
0FF700
03E700
000000
000000
000000
000000
000000
000000
000000
000000
000000
ENDCHAR
STARTCHAR LtSmlADrss
ENCODING 228
SWIDTH 432 0
DWIDTH 18 0
BBX 18 40 0 -9
BITMAP
000000
000000
000000
000000
000000
000000
000000
039C00
039C00
039C00
039C00
000000
000000
000000
07F800
0FFE00
0FFE00
0E0700
000700
000700
01FF00
07FF00
0FFF00
0E0700
1C0700
1C0700
1C0F00
1E1F00
0FFF00
0FF700
03E700
000000
000000
000000
000000
000000
000000
000000
000000
000000
ENDCHAR
STARTCHAR LtSmlARing
ENCODING 229
SWIDTH 432 0
DWIDTH 18 0
BBX 18 40 0 -9
BITMAP
000000
000000
000000
000000
01F000
03F800
071C00
071C00
071C00
03F800
01F000
000000
000000
000000
07F800
0FFE00
0FFE00
0E0700
000700
000700
01FF00
07FF00
0FFF00
0E0700
1C0700
1C0700
1C0F00
1E1F00
0FFF00
0FF700
03E700
000000
000000
000000
000000
000000
000000
000000
000000
000000
ENDCHAR
STARTCHAR LtSmlAE
ENCODING 230
SWIDTH 432 0
DWIDTH 18 0
BBX 18 40 0 -9
BITMAP
000000
000000
000000
000000
000000
000000
000000
000000
000000
000000
000000
000000
000000
000000
1F1E00
3FBF00
3FFF80
31F380
00E380
00E380
03FF80
0FFF80
1FFF80
3CE000
38E000
38E000
38E000
39F180
3FFF80
1F9F80
0F0F00
000000
000000
000000
000000
000000
000000
000000
000000
000000
ENDCHAR
STARTCHAR LtSmlCCedilla
ENCODING 231
SWIDTH 432 0
DWIDTH 18 0
BBX 18 40 0 -9
BITMAP
000000
000000
000000
000000
000000
000000
000000
000000
000000
000000
000000
000000
000000
000000
00F800
03FE00
07FE00
0F0F00
0E0700
1C0000
1C0000
1C0000
1C0000
1C0000
1C0000
1C0000
0E0700
0F0F00
07FE00
03FE00
00F800
006000
00E000
007000
003800
03F800
03F800
03F000
000000
000000
ENDCHAR
STARTCHAR LtSmlEGrave
ENCODING 232
SWIDTH 432 0
DWIDTH 18 0
BBX 18 40 0 -9
BITMAP
000000
000000
000000
000000
000000
000000
07C000
03C000
01E000
00E000
007000
003000
000000
000000
00F000
03FC00
07FE00
0F0E00
0E0700
1C0700
1FFF00
1FFF00
1FFF00
1C0000
1C0000
1C0000
0E0000
0F0F00
07FF00
03FE00
00F800
000000
000000
000000
000000
000000
000000
000000
000000
000000
ENDCHAR
STARTCHAR LtSmlEAcute
ENCODING 233
SWIDTH 432 0
DWIDTH 18 0
BBX 18 40 0 -9
BITMAP
000000
000000
000000
000000
000000
000000
003E00
003C00
007800
007000
00E000
00C000
000000
000000
00F000
03FC00
07FE00
0F0E00
0E0700
1C0700
1FFF00
1FFF00
1FFF00
1C0000
1C0000
1C0000
0E0000
0F0F00
07FF00
03FE00
00F800
000000
000000
000000
000000
000000
000000
000000
000000
000000
ENDCHAR
STARTCHAR LtSmlECircum
ENCODING 234
SWIDTH 432 0
DWIDTH 18 0
BBX 18 40 0 -9
BITMAP
000000
000000
000000
000000
000000
000000
007000
00F800
01FC00
03DE00
038E00
000000
000000
000000
00F000
03FC00
07FE00
0F0E00
0E0700
1C0700
1FFF00
1FFF00
1FFF00
1C0000
1C0000
1C0000
0E0000
0F0F00
07FF00
03FE00
00F800
000000
000000
000000
000000
000000
000000
000000
000000
000000
ENDCHAR
STARTCHAR LtSmlEDrss
ENCODING 235
SWIDTH 432 0
DWIDTH 18 0
BBX 18 40 0 -9
BITMAP
000000
000000
000000
000000
000000
000000
000000
039C00
039C00
039C00
039C00
000000
000000
000000
00F000
03FC00
07FE00
0F0E00
0E0700
1C0700
1FFF00
1FFF00
1FFF00
1C0000
1C0000
1C0000
0E0000
0F0F00
07FF00
03FE00
00F800
000000
000000
000000
000000
000000
000000
000000
000000
000000
ENDCHAR
STARTCHAR LtSmlIGrave
ENCODING 236
SWIDTH 432 0
DWIDTH 18 0
BBX 18 40 0 -9
BITMAP
000000
000000
000000
000000
000000
000000
0F8000
078000
03C000
01C000
00E000
006000
000000
000000
07E000
07E000
07E000
00E000
00E000
00E000
00E000
00E000
00E000
00E000
00E000
00E000
00E000
00E000
1FFF00
1FFF00
1FFF00
000000
000000
000000
000000
000000
000000
000000
000000
000000
ENDCHAR
STARTCHAR LtSmlIAcute
ENCODING 237
SWIDTH 432 0
DWIDTH 18 0
BBX 18 40 0 -9
BITMAP
000000
000000
000000
000000
000000
000000
003E00
003C00
007800
007000
00E000
00C000
000000
000000
07E000
07E000
07E000
00E000
00E000
00E000
00E000
00E000
00E000
00E000
00E000
00E000
00E000
00E000
1FFF00
1FFF00
1FFF00
000000
000000
000000
000000
000000
000000
000000
000000
000000
ENDCHAR
STARTCHAR LtSmlICircum
ENCODING 238
SWIDTH 432 0
DWIDTH 18 0
BBX 18 40 0 -9
BITMAP
000000
000000
000000
000000
000000
000000
01C000
03E000
07F000
0F7800
0E3800
000000
000000
000000
07E000
07E000
07E000
00E000
00E000
00E000
00E000
00E000
00E000
00E000
00E000
00E000
00E000
00E000
1FFF00
1FFF00
1FFF00
000000
000000
000000
000000
000000
000000
000000
000000
000000
ENDCHAR
STARTCHAR LtSmlIDrss
ENCODING 239
SWIDTH 432 0
DWIDTH 18 0
BBX 18 40 0 -9
BITMAP
000000
000000
000000
000000
000000
000000
000000
073800
073800
073800
073800
000000
000000
000000
07E000
07E000
07E000
00E000
00E000
00E000
00E000
00E000
00E000
00E000
00E000
00E000
00E000
00E000
1FFF00
1FFF00
1FFF00
000000
000000
000000
000000
000000
000000
000000
000000
000000
ENDCHAR
STARTCHAR LtSmlEth
ENCODING 240
SWIDTH 432 0
DWIDTH 18 0
BBX 18 40 0 -9
BITMAP
000000
000000
000000
000000
000000
000000
000000
0E7000
0EF000
07F000
1FC000
1EC000
1CE000
007000
01F800
03F800
07FC00
0F1E00
0E0E00
1C0700
1C0700
1C0700
1C0700
1C0700
1C0700
1C0700
1C0700
0E0E00
0FFE00
07FC00
03F800
000000
000000
000000
000000
000000
000000
000000
000000
000000
ENDCHAR
STARTCHAR LtSmlNTilde
ENCODING 241
SWIDTH 432 0
DWIDTH 18 0
BBX 18 40 0 -9
BITMAP
000000
000000
000000
000000
000000
000000
038C00
07DC00
0FFC00
0EF800
0C7000
000000
000000
000000
1CF800
1DFE00
1FFE00
1F0F00
1E0700
1C0700
1C0700
1C0700
1C0700
1C0700
1C0700
1C0700
1C0700
1C0700
1C0700
1C0700
1C0700
000000
000000
000000
000000
000000
000000
000000
000000
000000
ENDCHAR
STARTCHAR LtSmlOGrave
ENCODING 242
SWIDTH 432 0
DWIDTH 18 0
BBX 18 40 0 -9
BITMAP
000000
000000
000000
000000
000000
000000
0F8000
078000
03C000
01C000
00E000
006000
000000
000000
01F000
07FC00
0FFE00
0E0E00
1E0F00
1C0700
1C0700
1C0700
1C0700
1C0700
1C0700
1C0700
1E0F00
0E0E00
0FFE00
07FC00
01F000
000000
000000
000000
000000
000000
000000
000000
000000
000000
ENDCHAR
STARTCHAR LtSmlOAcute
ENCODING 243
SWIDTH 432 0
DWIDTH 18 0
BBX 18 40 0 -9
BITMAP
000000
000000
000000
000000
000000
000000
003E00
003C00
007800
007000
00E000
00C000
000000
000000
01F000
07FC00
0FFE00
0E0E00
1E0F00
1C0700
1C0700
1C0700
1C0700
1C0700
1C0700
1C0700
1E0F00
0E0E00
0FFE00
07FC00
01F000
000000
000000
000000
000000
000000
000000
000000
000000
000000
ENDCHAR
STARTCHAR LtSmlOCircum
ENCODING 244
SWIDTH 432 0
DWIDTH 18 0
BBX 18 40 0 -9
BITMAP
000000
000000
000000
000000
000000
000000
00E000
01F000
03F800
07BC00
071C00
000000
000000
000000
01F000
07FC00
0FFE00
0E0E00
1E0F00
1C0700
1C0700
1C0700
1C0700
1C0700
1C0700
1C0700
1E0F00
0E0E00
0FFE00
07FC00
01F000
000000
000000
000000
000000
000000
000000
000000
000000
000000
ENDCHAR
STARTCHAR LtSmlOTilde
ENCODING 245
SWIDTH 432 0
DWIDTH 18 0
BBX 18 40 0 -9
BITMAP
000000
000000
000000
000000
000000
000000
038C00
07DC00
0FFC00
0EF800
0C7000
000000
000000
000000
01F000
07FC00
0FFE00
0E0E00
1E0F00
1C0700
1C0700
1C0700
1C0700
1C0700
1C0700
1C0700
1E0F00
0E0E00
0FFE00
07FC00
01F000
000000
000000
000000
000000
000000
000000
000000
000000
000000
ENDCHAR
STARTCHAR LtSmlODrss
ENCODING 246
SWIDTH 432 0
DWIDTH 18 0
BBX 18 40 0 -9
BITMAP
000000
000000
000000
000000
000000
000000
000000
039C00
039C00
039C00
039C00
000000
000000
000000
01F000
07FC00
0FFE00
0E0E00
1E0F00
1C0700
1C0700
1C0700
1C0700
1C0700
1C0700
1C0700
1E0F00
0E0E00
0FFE00
07FC00
01F000
000000
000000
000000
000000
000000
000000
000000
000000
000000
ENDCHAR
STARTCHAR MDivision
ENCODING 247
SWIDTH 432 0
DWIDTH 18 0
BBX 18 40 0 -9
BITMAP
000000
000000
000000
000000
000000
000000
000000
000000
000000
000000
000000
000000
000000
00E000
01F000
01F000
01F000
00E000
000000
000000
1FFF00
1FFF00
1FFF00
000000
000000
00E000
01F000
01F000
01F000
00E000
000000
000000
000000
000000
000000
000000
000000
000000
000000
000000
ENDCHAR
STARTCHAR LtSmlOStroke
ENCODING 248
SWIDTH 432 0
DWIDTH 18 0
BBX 18 40 0 -9
BITMAP
000000
000000
000000
000000
000000
000000
000000
000000
000000
000000
000000
000000
000300
000300
01F700
07FE00
0FFE00
0E1E00
1E3F00
1C3700
1C7700
1C6700
1CE700
1CC700
1DC700
1D8700
1F8F00
0F0E00
0FFE00
0FFC00
1DF000
180000
180000
000000
000000
000000
000000
000000
000000
000000
ENDCHAR
STARTCHAR LtSmlUGrave
ENCODING 249
SWIDTH 432 0
DWIDTH 18 0
BBX 18 40 0 -9
BITMAP
000000
000000
000000
000000
000000
000000
0F8000
078000
03C000
01C000
00E000
006000
000000
000000
1C0700
1C0700
1C0700
1C0700
1C0700
1C0700
1C0700
1C0700
1C0700
1C0700
1C0700
1C0700
1C0F00
1E1F00
0FFF00
0FF700
07E700
000000
000000
000000
000000
000000
000000
000000
000000
000000
ENDCHAR
STARTCHAR LtSmlUAcute
ENCODING 250
SWIDTH 432 0
DWIDTH 18 0
BBX 18 40 0 -9
BITMAP
000000
000000
000000
000000
000000
000000
003E00
003C00
007800
007000
00E000
00C000
000000
000000
1C0700
1C0700
1C0700
1C0700
1C0700
1C0700
1C0700
1C0700
1C0700
1C0700
1C0700
1C0700
1C0F00
1E1F00
0FFF00
0FF700
07E700
000000
000000
000000
000000
000000
000000
000000
000000
000000
ENDCHAR
STARTCHAR LtSmlUCircum
ENCODING 251
SWIDTH 432 0
DWIDTH 18 0
BBX 18 40 0 -9
BITMAP
000000
000000
000000
000000
000000
000000
00E000
01F000
03F800
07BC00
071C00
000000
000000
000000
1C0700
1C0700
1C0700
1C0700
1C0700
1C0700
1C0700
1C0700
1C0700
1C0700
1C0700
1C0700
1C0F00
1E1F00
0FFF00
0FF700
07E700
000000
000000
000000
000000
000000
000000
000000
000000
000000
ENDCHAR
STARTCHAR LtSmlUDrss
ENCODING 252
SWIDTH 432 0
DWIDTH 18 0
BBX 18 40 0 -9
BITMAP
000000
000000
000000
000000
000000
000000
000000
039C00
039C00
039C00
039C00
000000
000000
000000
1C0700
1C0700
1C0700
1C0700
1C0700
1C0700
1C0700
1C0700
1C0700
1C0700
1C0700
1C0700
1C0F00
1E1F00
0FFF00
0FF700
07E700
000000
000000
000000
000000
000000
000000
000000
000000
000000
ENDCHAR
STARTCHAR LtSmlYAcute
ENCODING 253
SWIDTH 432 0
DWIDTH 18 0
BBX 18 40 0 -9
BITMAP
000000
000000
000000
000000
000000
000000
003E00
003C00
007800
007000
00E000
00C000
000000
000000
1C0700
1C0700
1C0700
0E0700
0E0E00
070E00
070E00
070E00
039C00
039C00
01DC00
01DC00
01F800
00F800
00F800
007800
007000
007000
007000
00E000
1CE000
1FE000
1FC000
0F8000
000000
000000
ENDCHAR
STARTCHAR LtSmlThorn
ENCODING 254
SWIDTH 432 0
DWIDTH 18 0
BBX 18 40 0 -9
BITMAP
000000
000000
000000
000000
000000
000000
000000
1C0000
1C0000
1C0000
1C0000
1C0000
1C0000
1C0000
1CF800
1DFC00
1FFE00
1F0E00
1E0700
1C0700
1C0700
1C0700
1C0700
1C0700
1C0700
1C0700
1E0700
1F0E00
1FFE00
1DFC00
1CF800
1C0000
1C0000
1C0000
1C0000
1C0000
1C0000
1C0000
000000
000000
ENDCHAR
STARTCHAR LtSmlYDrss
ENCODING 255
SWIDTH 432 0
DWIDTH 18 0
BBX 18 40 0 -9
BITMAP
000000
000000
000000
000000
000000
000000
000000
039C00
039C00
039C00
039C00
000000
000000
000000
1C0700
1C0700
1C0700
0E0700
0E0E00
070E00
070E00
070E00
039C00
039C00
01DC00
01DC00
01F800
00F800
00F800
007800
007000
007000
007000
00E000
1CE000
1FE000
1FC000
0F8000
000000
000000
ENDCHAR
STARTCHAR LtCapAMacron
ENCODING 256
SWIDTH 432 0
DWIDTH 18 0
BBX 18 40 0 -9
BITMAP
000000
000000
000000
07FC00
07FC00
07FC00
000000
000000
00E000
00E000
00E000
01F000
01F000
01F000
03B800
03B800
03B800
071C00
071C00
071C00
0E0E00
0FFE00
0FFE00
1FFF00
1C0700
1C0700
380380
380380
380380
7001C0
7001C0
000000
000000
000000
000000
000000
000000
000000
000000
000000
ENDCHAR
STARTCHAR LtSmlAMacron
ENCODING 257
SWIDTH 432 0
DWIDTH 18 0
BBX 18 40 0 -9
BITMAP
000000
000000
000000
000000
000000
000000
000000
000000
07FC00
07FC00
07FC00
000000
000000
000000
07F800
0FFE00
0FFE00
0E0700
000700
000700
01FF00
07FF00
0FFF00
0E0700
1C0700
1C0700
1C0F00
1E1F00
0FFF00
0FF700
03E700
000000
000000
000000
000000
000000
000000
000000
000000
000000
ENDCHAR
STARTCHAR LtCapABreve
ENCODING 258
SWIDTH 432 0
DWIDTH 18 0
BBX 18 40 0 -9
BITMAP
000000
000000
071C00
071C00
03F800
03F800
00E000
000000
00E000
00E000
00E000
01F000
01F000
01F000
03B800
03B800
03B800
071C00
071C00
071C00
0E0E00
0FFE00
0FFE00
1FFF00
1C0700
1C0700
380380
380380
380380
7001C0
7001C0
000000
000000
000000
000000
000000
000000
000000
000000
000000
ENDCHAR
STARTCHAR LtSmlABreve
ENCODING 259
SWIDTH 432 0
DWIDTH 18 0
BBX 18 40 0 -9
BITMAP
000000
000000
000000
000000
000000
000000
071C00
071C00
03F800
03F800
00E000
000000
000000
000000
07F800
0FFE00
0FFE00
0E0700
000700
000700
01FF00
07FF00
0FFF00
0E0700
1C0700
1C0700
1C0F00
1E1F00
0FFF00
0FF700
03E700
000000
000000
000000
000000
000000
000000
000000
000000
000000
ENDCHAR
STARTCHAR LtCapAOgonek
ENCODING 260
SWIDTH 432 0
DWIDTH 18 0
BBX 18 40 0 -9
BITMAP
000000
000000
000000
000000
000000
000000
000000
000000
00E000
00E000
00E000
01F000
01F000
01F000
03B800
03B800
03B800
071C00
071C00
071C00
0E0E00
0FFE00
0FFE00
1FFF00
1C0700
1C0700
380380
380380
380380
7001C0
7001C0
000380
000700
000E00
000E00
000FC0
000FC0
0007C0
000000
000000
ENDCHAR
STARTCHAR LtSmlAOgonek
ENCODING 261
SWIDTH 432 0
DWIDTH 18 0
BBX 18 40 0 -9
BITMAP
000000
000000
000000
000000
000000
000000
000000
000000
000000
000000
000000
000000
000000
000000
07F800
0FFE00
0FFE00
0E0700
000700
000700
01FF00
07FF00
0FFF00
0E0700
1C0700
1C0700
1C0F00
1E1F00
0FFF00
0FF700
03E700
000E00
001C00
003800
003800
003F00
003F00
001F00
000000
000000
ENDCHAR
STARTCHAR LtCapCAcute
ENCODING 262
SWIDTH 432 0
DWIDTH 18 0
BBX 18 40 0 -9
BITMAP
000000
000000
007C00
007800
00F000
00E000
01C000
000000
00F800
03FE00
07FE00
0F0F00
0E0700
0E0000
1C0000
1C0000
1C0000
1C0000
1C0000
1C0000
1C0000
1C0000
1C0000
1C0000
1C0000
0E0000
0E0700
0F0F00
07FE00
03FE00
00F800
000000
000000
000000
000000
000000
000000
000000
000000
000000
ENDCHAR
STARTCHAR LtSmlCAcute
ENCODING 263
SWIDTH 432 0
DWIDTH 18 0
BBX 18 40 0 -9
BITMAP
000000
000000
000000
000000
000000
000000
003E00
003C00
007800
007000
00E000
00C000
000000
000000
00F800
03FE00
07FE00
0F0F00
0E0700
1C0000
1C0000
1C0000
1C0000
1C0000
1C0000
1C0000
0E0700
0F0F00
07FE00
03FE00
00F800
000000
000000
000000
000000
000000
000000
000000
000000
000000
ENDCHAR
STARTCHAR LtCapCCircum
ENCODING 264
SWIDTH 432 0
DWIDTH 18 0
BBX 18 40 0 -9
BITMAP
000000
000000
00F000
01F800
03FC00
079E00
000000
000000
00F800
03FE00
07FE00
0F0F00
0E0700
0E0000
1C0000
1C0000
1C0000
1C0000
1C0000
1C0000
1C0000
1C0000
1C0000
1C0000
1C0000
0E0000
0E0700
0F0F00
07FE00
03FE00
00F800
000000
000000
000000
000000
000000
000000
000000
000000
000000
ENDCHAR
STARTCHAR LtSmlCCircum
ENCODING 265
SWIDTH 432 0
DWIDTH 18 0
BBX 18 40 0 -9
BITMAP
000000
000000
000000
000000
000000
000000
007000
00F800
01FC00
03DE00
038E00
000000
000000
000000
00F800
03FE00
07FE00
0F0F00
0E0700
1C0000
1C0000
1C0000
1C0000
1C0000
1C0000
1C0000
0E0700
0F0F00
07FE00
03FE00
00F800
000000
000000
000000
000000
000000
000000
000000
000000
000000
ENDCHAR
STARTCHAR LtCapCDot
ENCODING 266
SWIDTH 432 0
DWIDTH 18 0
BBX 18 40 0 -9
BITMAP
000000
000000
007000
00F800
00F800
007000
000000
000000
00F800
03FE00
07FE00
0F0F00
0E0700
0E0000
1C0000
1C0000
1C0000
1C0000
1C0000
1C0000
1C0000
1C0000
1C0000
1C0000
1C0000
0E0000
0E0700
0F0F00
07FE00
03FE00
00F800
000000
000000
000000
000000
000000
000000
000000
000000
000000
ENDCHAR
STARTCHAR LtSmlCDot
ENCODING 267
SWIDTH 432 0
DWIDTH 18 0
BBX 18 40 0 -9
BITMAP
000000
000000
000000
000000
000000
000000
000000
007000
00F800
00F800
007000
000000
000000
000000
00F800
03FE00
07FE00
0F0F00
0E0700
1C0000
1C0000
1C0000
1C0000
1C0000
1C0000
1C0000
0E0700
0F0F00
07FE00
03FE00
00F800
000000
000000
000000
000000
000000
000000
000000
000000
000000
ENDCHAR
STARTCHAR LtCapCCaron
ENCODING 268
SWIDTH 432 0
DWIDTH 18 0
BBX 18 40 0 -9
BITMAP
000000
000000
038E00
03DE00
01FC00
00F800
007000
000000
00F800
03FE00
07FE00
0F0F00
0E0700
0E0000
1C0000
1C0000
1C0000
1C0000
1C0000
1C0000
1C0000
1C0000
1C0000
1C0000
1C0000
0E0000
0E0700
0F0F00
07FE00
03FE00
00F800
000000
000000
000000
000000
000000
000000
000000
000000
000000
ENDCHAR
STARTCHAR LtSmlCCaron
ENCODING 269
SWIDTH 432 0
DWIDTH 18 0
BBX 18 40 0 -9
BITMAP
000000
000000
000000
000000
000000
000000
038E00
03DE00
01FC00
00F800
007000
000000
000000
000000
00F800
03FE00
07FE00
0F0F00
0E0700
1C0000
1C0000
1C0000
1C0000
1C0000
1C0000
1C0000
0E0700
0F0F00
07FE00
03FE00
00F800
000000
000000
000000
000000
000000
000000
000000
000000
000000
ENDCHAR
STARTCHAR LtCapDCaron
ENCODING 270
SWIDTH 432 0
DWIDTH 18 0
BBX 18 40 0 -9
BITMAP
000000
000000
0E3800
0F7800
07F000
03E000
01C000
000000
1FE000
1FF800
1FFC00
1C1C00
1C0E00
1C0E00
1C0700
1C0700
1C0700
1C0700
1C0700
1C0700
1C0700
1C0700
1C0700
1C0700
1C0700
1C0E00
1C0E00
1C1C00
1FFC00
1FF800
1FE000
000000
000000
000000
000000
000000
000000
000000
000000
000000
ENDCHAR
STARTCHAR LtSmlDCaron
ENCODING 271
SWIDTH 432 0
DWIDTH 18 0
BBX 18 40 0 -9
BITMAP
000000
000000
000000
000000
000380
0007C0
0007C0
003BC0
0039C0
0039C0
003B80
003F00
003800
003800
0F3800
1FB800
3FF800
38F800
707800
703800
703800
703800
703800
703800
703800
703800
707800
38F800
3FF800
1FB800
0F3800
000000
000000
000000
000000
000000
000000
000000
000000
000000
ENDCHAR
STARTCHAR LtCapDStroke
ENCODING 272
SWIDTH 432 0
DWIDTH 18 0
BBX 18 40 0 -9
BITMAP
000000
000000
000000
000000
000000
000000
000000
000000
1FE000
1FF800
1FFC00
1C1C00
1C0E00
1C0E00
1C0700
1C0700
1C0700
3FC700
3FC700
3FC700
1C0700
1C0700
1C0700
1C0700
1C0700
1C0E00
1C0E00
1C1C00
1FFC00
1FF800
1FE000
000000
000000
000000
000000
000000
000000
000000
000000
000000
ENDCHAR
STARTCHAR LtSmlDStroke
ENCODING 273
SWIDTH 432 0
DWIDTH 18 0
BBX 18 40 0 -9
BITMAP
000000
000000
000000
000000
000000
000000
000000
000700
000700
00FF80
00FF80
00FF80
000700
000700
03E700
07F700
0FFF00
0E1F00
1C0F00
1C0700
1C0700
1C0700
1C0700
1C0700
1C0700
1C0700
1C0F00
0E1F00
0FFF00
07F700
03E700
000000
000000
000000
000000
000000
000000
000000
000000
000000
ENDCHAR
STARTCHAR LtCapEMacron
ENCODING 274
SWIDTH 432 0
DWIDTH 18 0
BBX 18 40 0 -9
BITMAP
000000
000000
000000
07FC00
07FC00
07FC00
000000
000000
1FFF00
1FFF00
1FFF00
1C0000
1C0000
1C0000
1C0000
1C0000
1C0000
1FFC00
1FFC00
1FFC00
1C0000
1C0000
1C0000
1C0000
1C0000
1C0000
1C0000
1C0000
1FFF00
1FFF00
1FFF00
000000
000000
000000
000000
000000
000000
000000
000000
000000
ENDCHAR
STARTCHAR LtSmlEMacron
ENCODING 275
SWIDTH 432 0
DWIDTH 18 0
BBX 18 40 0 -9
BITMAP
000000
000000
000000
000000
000000
000000
000000
000000
07FC00
07FC00
07FC00
000000
000000
000000
00F000
03FC00
07FE00
0F0E00
0E0700
1C0700
1FFF00
1FFF00
1FFF00
1C0000
1C0000
1C0000
0E0000
0F0F00
07FF00
03FE00
00F800
000000
000000
000000
000000
000000
000000
000000
000000
000000
ENDCHAR
STARTCHAR LtCapEBreve
ENCODING 276
SWIDTH 432 0
DWIDTH 18 0
BBX 18 40 0 -9
BITMAP
000000
000000
071C00
071C00
03F800
03F800
00E000
000000
1FFF00
1FFF00
1FFF00
1C0000
1C0000
1C0000
1C0000
1C0000
1C0000
1FFC00
1FFC00
1FFC00
1C0000
1C0000
1C0000
1C0000
1C0000
1C0000
1C0000
1C0000
1FFF00
1FFF00
1FFF00
000000
000000
000000
000000
000000
000000
000000
000000
000000
ENDCHAR
STARTCHAR LtSmlEBreve
ENCODING 277
SWIDTH 432 0
DWIDTH 18 0
BBX 18 40 0 -9
BITMAP
000000
000000
000000
000000
000000
000000
038E00
038E00
01FC00
01FC00
007000
000000
000000
000000
00F000
03FC00
07FE00
0F0E00
0E0700
1C0700
1FFF00
1FFF00
1FFF00
1C0000
1C0000
1C0000
0E0000
0F0F00
07FF00
03FE00
00F800
000000
000000
000000
000000
000000
000000
000000
000000
000000
ENDCHAR
STARTCHAR LtCapEDot
ENCODING 278
SWIDTH 432 0
DWIDTH 18 0
BBX 18 40 0 -9
BITMAP
000000
000000
00E000
01F000
01F000
00E000
000000
000000
1FFF00
1FFF00
1FFF00
1C0000
1C0000
1C0000
1C0000
1C0000
1C0000
1FFC00
1FFC00
1FFC00
1C0000
1C0000
1C0000
1C0000
1C0000
1C0000
1C0000
1C0000
1FFF00
1FFF00
1FFF00
000000
000000
000000
000000
000000
000000
000000
000000
000000
ENDCHAR
STARTCHAR LtSmlEDot
ENCODING 279
SWIDTH 432 0
DWIDTH 18 0
BBX 18 40 0 -9
BITMAP
000000
000000
000000
000000
000000
000000
000000
00E000
01F000
01F000
00E000
000000
000000
000000
00F000
03FC00
07FE00
0F0E00
0E0700
1C0700
1FFF00
1FFF00
1FFF00
1C0000
1C0000
1C0000
0E0000
0F0F00
07FF00
03FE00
00F800
000000
000000
000000
000000
000000
000000
000000
000000
000000
ENDCHAR
STARTCHAR LtCapEOgonek
ENCODING 280
SWIDTH 432 0
DWIDTH 18 0
BBX 18 40 0 -9
BITMAP
000000
000000
000000
000000
000000
000000
000000
000000
1FFF00
1FFF00
1FFF00
1C0000
1C0000
1C0000
1C0000
1C0000
1C0000
1FFC00
1FFC00
1FFC00
1C0000
1C0000
1C0000
1C0000
1C0000
1C0000
1C0000
1C0000
1FFF00
1FFF00
1FFF00
000E00
001C00
003800
003800
003F00
003F00
001F00
000000
000000
ENDCHAR
STARTCHAR LtSmlEOgonek
ENCODING 281
SWIDTH 432 0
DWIDTH 18 0
BBX 18 40 0 -9
BITMAP
000000
000000
000000
000000
000000
000000
000000
000000
000000
000000
000000
000000
000000
000000
00F000
03FC00
07FE00
0F0E00
0E0700
1C0700
1FFF00
1FFF00
1FFF00
1C0000
1C0000
1C0000
0E0000
0F0F00
07FF00
03FF00
00FE00
000C00
001C00
003800
003800
003F00
003F00
001F00
000000
000000
ENDCHAR
STARTCHAR LtCapECaron
ENCODING 282
SWIDTH 432 0
DWIDTH 18 0
BBX 18 40 0 -9
BITMAP
000000
000000
071C00
07BC00
03F800
01F000
00E000
000000
1FFF00
1FFF00
1FFF00
1C0000
1C0000
1C0000
1C0000
1C0000
1C0000
1FFC00
1FFC00
1FFC00
1C0000
1C0000
1C0000
1C0000
1C0000
1C0000
1C0000
1C0000
1FFF00
1FFF00
1FFF00
000000
000000
000000
000000
000000
000000
000000
000000
000000
ENDCHAR
STARTCHAR LtSmlECaron
ENCODING 283
SWIDTH 432 0
DWIDTH 18 0
BBX 18 40 0 -9
BITMAP
000000
000000
000000
000000
000000
000000
038E00
03DE00
01FC00
00F800
007000
000000
000000
000000
00F000
03FC00
07FE00
0F0E00
0E0700
1C0700
1FFF00
1FFF00
1FFF00
1C0000
1C0000
1C0000
0E0000
0F0F00
07FF00
03FE00
00F800
000000
000000
000000
000000
000000
000000
000000
000000
000000
ENDCHAR
STARTCHAR LtCapGCircum
ENCODING 284
SWIDTH 432 0
DWIDTH 18 0
BBX 18 40 0 -9
BITMAP
000000
000000
00F000
01F800
03FC00
079E00
000000
000000
00F800
03FE00
07FE00
0F0F00
0E0700
0E0000
1C0000
1C0000
1C0000
1C0000
1C0000
1C3F00
1C3F00
1C3F00
1C0700
1C0700
1C0700
0E0700
0E0700
0F0F00
07FF00
03FF00
00F700
000000
000000
000000
000000
000000
000000
000000
000000
000000
ENDCHAR
STARTCHAR LtSmlGCircum
ENCODING 285
SWIDTH 432 0
DWIDTH 18 0
BBX 18 40 0 -9
BITMAP
000000
000000
000000
000000
000000
000000
00E000
01F000
03F800
07BC00
071C00
000000
000000
000000
03E380
0FFB80
0FFF80
1E1F00
1C0E00
1C0E00
1C0E00
1C0E00
1E1E00
0FFC00
0FFC00
07F000
0E0000
0E0000
07FC00
07FF00
0FFF00
1C0780
1C0380
1C0380
1E0780
0FFF00
0FFF00
03FC00
000000
000000
ENDCHAR
STARTCHAR LtCapGBreve
ENCODING 286
SWIDTH 432 0
DWIDTH 18 0
BBX 18 40 0 -9
BITMAP
000000
000000
038E00
038E00
01FC00
01FC00
007000
000000
00F800
03FE00
07FE00
0F0F00
0E0700
0E0000
1C0000
1C0000
1C0000
1C0000
1C0000
1C3F00
1C3F00
1C3F00
1C0700
1C0700
1C0700
0E0700
0E0700
0F0F00
07FF00
03FF00
00F700
000000
000000
000000
000000
000000
000000
000000
000000
000000
ENDCHAR
STARTCHAR LtSmlGBreve
ENCODING 287
SWIDTH 432 0
DWIDTH 18 0
BBX 18 40 0 -9
BITMAP
000000
000000
000000
000000
000000
000000
071C00
071C00
03F800
03F800
00E000
000000
000000
000000
03E380
0FFB80
0FFF80
1E1F00
1C0E00
1C0E00
1C0E00
1C0E00
1E1E00
0FFC00
0FFC00
07F000
0E0000
0E0000
07FC00
07FF00
0FFF00
1C0780
1C0380
1C0380
1E0780
0FFF00
0FFF00
03FC00
000000
000000
ENDCHAR
STARTCHAR LtCapGDot
ENCODING 288
SWIDTH 432 0
DWIDTH 18 0
BBX 18 40 0 -9
BITMAP
000000
000000
007000
00F800
00F800
007000
000000
000000
00F800
03FE00
07FE00
0F0F00
0E0700
0E0000
1C0000
1C0000
1C0000
1C0000
1C0000
1C3F00
1C3F00
1C3F00
1C0700
1C0700
1C0700
0E0700
0E0700
0F0F00
07FF00
03FF00
00F700
000000
000000
000000
000000
000000
000000
000000
000000
000000
ENDCHAR
STARTCHAR LtSmlGDot
ENCODING 289
SWIDTH 432 0
DWIDTH 18 0
BBX 18 40 0 -9
BITMAP
000000
000000
000000
000000
000000
000000
000000
00E000
01F000
01F000
00E000
000000
000000
000000
03E380
0FFB80
0FFF80
1E1F00
1C0E00
1C0E00
1C0E00
1C0E00
1E1E00
0FFC00
0FFC00
07F000
0E0000
0E0000
07FC00
07FF00
0FFF00
1C0780
1C0380
1C0380
1E0780
0FFF00
0FFF00
03FC00
000000
000000
ENDCHAR
STARTCHAR LtCapGComma
ENCODING 290
SWIDTH 432 0
DWIDTH 18 0
BBX 18 40 0 -9
BITMAP
000000
000000
000000
000000
000000
000000
000000
000000
00F800
03FE00
07FE00
0F0F00
0E0700
0E0000
1C0000
1C0000
1C0000
1C0000
1C0000
1C3F00
1C3F00
1C3F00
1C0700
1C0700
1C0700
0E0700
0E0700
0F0F00
07FF00
03FF00
00F700
000000
006000
00F000
00F000
007000
007000
01E000
01C000
000000
ENDCHAR
STARTCHAR LtSmlGComma
ENCODING 291
SWIDTH 432 0
DWIDTH 18 0
BBX 18 40 0 -9
BITMAP
000000
000000
000000
000000
000000
007000
00F000
01C000
01C000
01E000
01E000
00C000
000000
000000
03E380
0FFB80
0FFF80
1E1F00
1C0E00
1C0E00
1C0E00
1C0E00
1E1E00
0FFC00
0FFC00
07F000
0E0000
0E0000
07FC00
07FF00
0FFF00
1C0780
1C0380
1C0380
1E0780
0FFF00
0FFF00
03FC00
000000
000000
ENDCHAR
STARTCHAR LtCapHCircum
ENCODING 292
SWIDTH 432 0
DWIDTH 18 0
BBX 18 40 0 -9
BITMAP
000000
000000
00F000
01F800
03FC00
079E00
000000
000000
1C0700
1C0700
1C0700
1C0700
1C0700
1C0700
1C0700
1C0700
1C0700
1FFF00
1FFF00
1FFF00
1C0700
1C0700
1C0700
1C0700
1C0700
1C0700
1C0700
1C0700
1C0700
1C0700
1C0700
000000
000000
000000
000000
000000
000000
000000
000000
000000
ENDCHAR
STARTCHAR LtSmlHCircum
ENCODING 293
SWIDTH 432 0
DWIDTH 18 0
BBX 18 40 0 -9
BITMAP
000000
000000
00E000
01F000
03F800
07BC00
071C00
000000
1C0000
1C0000
1C0000
1C0000
1C0000
1C0000
1CF800
1DFE00
1FFE00
1F0F00
1E0700
1C0700
1C0700
1C0700
1C0700
1C0700
1C0700
1C0700
1C0700
1C0700
1C0700
1C0700
1C0700
000000
000000
000000
000000
000000
000000
000000
000000
000000
ENDCHAR
STARTCHAR LtCapHStroke
ENCODING 294
SWIDTH 432 0
DWIDTH 18 0
BBX 18 40 0 -9
BITMAP
000000
000000
000000
000000
000000
000000
000000
000000
1C0700
1C0700
1C0700
1C0700
3FFF80
3FFF80
3FFF80
1C0700
1C0700
1FFF00
1FFF00
1FFF00
1C0700
1C0700
1C0700
1C0700
1C0700
1C0700
1C0700
1C0700
1C0700
1C0700
1C0700
000000
000000
000000
000000
000000
000000
000000
000000
000000
ENDCHAR
STARTCHAR LtSmlHStroke
ENCODING 295
SWIDTH 432 0
DWIDTH 18 0
BBX 18 40 0 -9
BITMAP
000000
000000
000000
000000
000000
000000
000000
1C0000
1C0000
3FE000
3FE000
3FE000
1C0000
1C0000
1CF800
1DFE00
1FFE00
1F0F00
1E0700
1C0700
1C0700
1C0700
1C0700
1C0700
1C0700
1C0700
1C0700
1C0700
1C0700
1C0700
1C0700
000000
000000
000000
000000
000000
000000
000000
000000
000000
ENDCHAR
STARTCHAR LtCapITilde
ENCODING 296
SWIDTH 432 0
DWIDTH 18 0
BBX 18 40 0 -9
BITMAP
000000
000000
01C600
03EE00
07FE00
077C00
063800
000000
0FFE00
0FFE00
0FFE00
00E000
00E000
00E000
00E000
00E000
00E000
00E000
00E000
00E000
00E000
00E000
00E000
00E000
00E000
00E000
00E000
00E000
0FFE00
0FFE00
0FFE00
000000
000000
000000
000000
000000
000000
000000
000000
000000
ENDCHAR
STARTCHAR LtSmlITilde
ENCODING 297
SWIDTH 432 0
DWIDTH 18 0
BBX 18 40 0 -9
BITMAP
000000
000000
000000
000000
000000
000000
038C00
07DC00
0FFC00
0EF800
0C7000
000000
000000
000000
07E000
07E000
07E000
00E000
00E000
00E000
00E000
00E000
00E000
00E000
00E000
00E000
00E000
00E000
1FFF00
1FFF00
1FFF00
000000
000000
000000
000000
000000
000000
000000
000000
000000
ENDCHAR
STARTCHAR LtCapIMacron
ENCODING 298
SWIDTH 432 0
DWIDTH 18 0
BBX 18 40 0 -9
BITMAP
000000
000000
000000
07FC00
07FC00
07FC00
000000
000000
0FFE00
0FFE00
0FFE00
00E000
00E000
00E000
00E000
00E000
00E000
00E000
00E000
00E000
00E000
00E000
00E000
00E000
00E000
00E000
00E000
00E000
0FFE00
0FFE00
0FFE00
000000
000000
000000
000000
000000
000000
000000
000000
000000
ENDCHAR
STARTCHAR LtSmlIMacron
ENCODING 299
SWIDTH 432 0
DWIDTH 18 0
BBX 18 40 0 -9
BITMAP
000000
000000
000000
000000
000000
000000
000000
000000
0FF800
0FF800
0FF800
000000
000000
000000
07E000
07E000
07E000
00E000
00E000
00E000
00E000
00E000
00E000
00E000
00E000
00E000
00E000
00E000
1FFF00
1FFF00
1FFF00
000000
000000
000000
000000
000000
000000
000000
000000
000000
ENDCHAR
STARTCHAR LtCapIBreve
ENCODING 300
SWIDTH 432 0
DWIDTH 18 0
BBX 18 40 0 -9
BITMAP
000000
000000
071C00
071C00
03F800
03F800
00E000
000000
0FFE00
0FFE00
0FFE00
00E000
00E000
00E000
00E000
00E000
00E000
00E000
00E000
00E000
00E000
00E000
00E000
00E000
00E000
00E000
00E000
00E000
0FFE00
0FFE00
0FFE00
000000
000000
000000
000000
000000
000000
000000
000000
000000
ENDCHAR
STARTCHAR LtSmlIBreve
ENCODING 301
SWIDTH 432 0
DWIDTH 18 0
BBX 18 40 0 -9
BITMAP
000000
000000
000000
000000
000000
000000
0E3800
0E3800
07F000
07F000
01C000
000000
000000
000000
07E000
07E000
07E000
00E000
00E000
00E000
00E000
00E000
00E000
00E000
00E000
00E000
00E000
00E000
1FFF00
1FFF00
1FFF00
000000
000000
000000
000000
000000
000000
000000
000000
000000
ENDCHAR
STARTCHAR LtCapIOgonek
ENCODING 302
SWIDTH 432 0
DWIDTH 18 0
BBX 18 40 0 -9
BITMAP
000000
000000
000000
000000
000000
000000
000000
000000
0FFE00
0FFE00
0FFE00
00E000
00E000
00E000
00E000
00E000
00E000
00E000
00E000
00E000
00E000
00E000
00E000
00E000
00E000
00E000
00E000
00E000
0FFE00
0FFE00
0FFE00
001C00
003800
007000
007000
007E00
007E00
003E00
000000
000000
ENDCHAR
STARTCHAR LtSmlIOgonek
ENCODING 303
SWIDTH 432 0
DWIDTH 18 0
BBX 18 40 0 -9
BITMAP
000000
000000
000000
000000
000000
000000
000000
00E000
01F000
01F000
00E000
000000
000000
000000
07E000
07E000
07E000
00E000
00E000
00E000
00E000
00E000
00E000
00E000
00E000
00E000
00E000
00E000
1FFF00
1FFF00
1FFF00
000E00
001C00
003800
003800
003F00
003F00
001F00
000000
000000
ENDCHAR
STARTCHAR LtCapIDot
ENCODING 304
SWIDTH 432 0
DWIDTH 18 0
BBX 18 40 0 -9
BITMAP
000000
000000
00E000
01F000
01F000
00E000
000000
000000
0FFE00
0FFE00
0FFE00
00E000
00E000
00E000
00E000
00E000
00E000
00E000
00E000
00E000
00E000
00E000
00E000
00E000
00E000
00E000
00E000
00E000
0FFE00
0FFE00
0FFE00
000000
000000
000000
000000
000000
000000
000000
000000
000000
ENDCHAR
STARTCHAR LtSmlIDotless
ENCODING 305
SWIDTH 432 0
DWIDTH 18 0
BBX 18 40 0 -9
BITMAP
000000
000000
000000
000000
000000
000000
000000
000000
000000
000000
000000
000000
000000
000000
07E000
07E000
07E000
00E000
00E000
00E000
00E000
00E000
00E000
00E000
00E000
00E000
00E000
00E000
1FFF00
1FFF00
1FFF00
000000
000000
000000
000000
000000
000000
000000
000000
000000
ENDCHAR
STARTCHAR LtCapIJ
ENCODING 306
SWIDTH 432 0
DWIDTH 18 0
BBX 18 40 0 -9
BITMAP
000000
000000
000000
000000
000000
000000
000000
000000
0E0E00
0E0E00
0E0E00
0E0E00
0E0E00
0E0E00
0E0E00
0E0E00
0E0E00
0E0E00
0E0E00
0E0E00
0E0E00
0E0E00
0E0E00
0E0E00
0E0E00
0E0E00
000E00
000E00
000E00
000E00
0E0E00
0F1C00
07FC00
07F800
01F000
000000
000000
000000
000000
000000
ENDCHAR
STARTCHAR LtSmlIJ
ENCODING 307
SWIDTH 432 0
DWIDTH 18 0
BBX 18 40 0 -9
BITMAP
000000
000000
000000
000000
000000
000000
000000
0E0700
1F0F80
1F0F80
0E0700
000000
000000
000000
1E0F00
1E0F00
1E0F00
0E0700
0E0700
0E0700
0E0700
0E0700
0E0700
0E0700
0E0700
0E0700
0E0700
0E0700
1F0700
1F0700
1F0700
000700
000700
000700
01CF00
01FE00
01FE00
00FC00
000000
000000
ENDCHAR
STARTCHAR LtCapJCircum
ENCODING 308
SWIDTH 432 0
DWIDTH 18 0
BBX 18 40 0 -9
BITMAP
000000
000000
001E00
003F00
007F80
00F3C0
000000
000000
001F00
001F00
001F00
000E00
000E00
000E00
000E00
000E00
000E00
000E00
000E00
000E00
000E00
000E00
000E00
1C0E00
1C0E00
1C0E00
1C0E00
0E1C00
0FFC00
07F800
03F000
000000
000000
000000
000000
000000
000000
000000
000000
000000
ENDCHAR
STARTCHAR LtSmlJCircum
ENCODING 309
SWIDTH 432 0
DWIDTH 18 0
BBX 18 40 0 -9
BITMAP
000000
000000
000000
000000
000000
000000
007000
00F800
01FC00
03DE00
038E00
000000
000000
000000
03F800
03F800
03F800
003800
003800
003800
003800
003800
003800
003800
003800
003800
003800
003800
003800
003800
003800
003800
003800
383800
3C7800
3FF000
1FF000
0FC000
000000
000000
ENDCHAR
STARTCHAR LtCapKComma
ENCODING 310
SWIDTH 432 0
DWIDTH 18 0
BBX 18 40 0 -9
BITMAP
000000
000000
000000
000000
000000
000000
000000
000000
1C0700
1C0700
1C0F00
1C0E00
1C1C00
1C3C00
1C3800
1C7000
1CF000
1CE000
1DE000
1FF000
1FF000
1F3800
1E3800
1C1C00
1C1C00
1C1C00
1C0E00
1C0E00
1C0700
1C0700
1C0700
000000
006000
00F000
00F000
007000
007000
01E000
01C000
000000
ENDCHAR
STARTCHAR LtSmlKComma
ENCODING 311
SWIDTH 432 0
DWIDTH 18 0
BBX 18 40 0 -9
BITMAP
000000
000000
000000
000000
000000
000000
000000
1C0000
1C0000
1C0000
1C0000
1C0000
1C0000
1C0000
1C0700
1C0F00
1C1E00
1C3C00
1C7800
1CF000
1DE000
1FE000
1FE000
1FF000
1C7800
1C3800
1C3C00
1C1E00
1C0E00
1C0F00
1C0700
000000
006000
00F000
00F000
007000
007000
01E000
01C000
000000
ENDCHAR
STARTCHAR LtSmlKra
ENCODING 312
SWIDTH 432 0
DWIDTH 18 0
BBX 18 40 0 -9
BITMAP
000000
000000
000000
000000
000000
000000
000000
000000
000000
000000
000000
000000
000000
000000
1C0700
1C0F00
1C1E00
1C3C00
1C7800
1CF000
1DE000
1FE000
1FE000
1FF000
1C7800
1C3800
1C3C00
1C1E00
1C0E00
1C0F00
1C0700
000000
000000
000000
000000
000000
000000
000000
000000
000000
ENDCHAR
STARTCHAR LtCapLAcute
ENCODING 313
SWIDTH 432 0
DWIDTH 18 0
BBX 18 40 0 -9
BITMAP
000000
000000
007C00
007800
00F000
00E000
01C000
000000
1C0000
1C0000
1C0000
1C0000
1C0000
1C0000
1C0000
1C0000
1C0000
1C0000
1C0000
1C0000
1C0000
1C0000
1C0000
1C0000
1C0000
1C0000
1C0000
1C0000
1FFF00
1FFF00
1FFF00
000000
000000
000000
000000
000000
000000
000000
000000
000000
ENDCHAR
STARTCHAR LtSmlLAcute
ENCODING 314
SWIDTH 432 0
DWIDTH 18 0
BBX 18 40 0 -9
BITMAP
000000
000000
003F00
007C00
00F000
01C000
000000
07E000
07E000
07E000
00E000
00E000
00E000
00E000
00E000
00E000
00E000
00E000
00E000
00E000
00E000
00E000
00E000
00E000
00E000
00E000
00E000
00E000
1FFF00
1FFF00
1FFF00
000000
000000
000000
000000
000000
000000
000000
000000
000000
ENDCHAR
STARTCHAR LtCapLComma
ENCODING 315
SWIDTH 432 0
DWIDTH 18 0
BBX 18 40 0 -9
BITMAP
000000
000000
000000
000000
000000
000000
000000
000000
1C0000
1C0000
1C0000
1C0000
1C0000
1C0000
1C0000
1C0000
1C0000
1C0000
1C0000
1C0000
1C0000
1C0000
1C0000
1C0000
1C0000
1C0000
1C0000
1C0000
1FFF00
1FFF00
1FFF00
000000
006000
00F000
00F000
007000
007000
01E000
01C000
000000
ENDCHAR
STARTCHAR LtSmlLComma
ENCODING 316
SWIDTH 432 0
DWIDTH 18 0
BBX 18 40 0 -9
BITMAP
000000
000000
000000
000000
000000
000000
000000
07E000
07E000
07E000
00E000
00E000
00E000
00E000
00E000
00E000
00E000
00E000
00E000
00E000
00E000
00E000
00E000
00E000
00E000
00E000
00E000
00E000
1FFF00
1FFF00
1FFF00
000000
006000
00F000
00F000
007000
007000
01E000
01C000
000000
ENDCHAR
STARTCHAR LtCapLCaron
ENCODING 317
SWIDTH 432 0
DWIDTH 18 0
BBX 18 40 0 -9
BITMAP
000000
000000
000000
000000
000000
000E00
001F00
001F00
1C0F00
1C0700
1C0700
1C0E00
1C1C00
1C0000
1C0000
1C0000
1C0000
1C0000
1C0000
1C0000
1C0000
1C0000
1C0000
1C0000
1C0000
1C0000
1C0000
1C0000
1FFF00
1FFF00
1FFF00
000000
000000
000000
000000
000000
000000
000000
000000
000000
ENDCHAR
STARTCHAR LtSmlLCaron
ENCODING 318
SWIDTH 432 0
DWIDTH 18 0
BBX 18 40 0 -9
BITMAP
000000
000000
000000
000000
000700
000F80
000F80
07E780
07E380
07E380
00E700
00EE00
00E000
00E000
00E000
00E000
00E000
00E000
00E000
00E000
00E000
00E000
00E000
00E000
00E000
00E000
00E000
00E000
1FFF00
1FFF00
1FFF00
000000
000000
000000
000000
000000
000000
000000
000000
000000
ENDCHAR
STARTCHAR LtCapLMdot
ENCODING 319
SWIDTH 432 0
DWIDTH 18 0
BBX 18 40 0 -9
BITMAP
000000
000000
000000
000000
000000
000000
000000
000000
1C0000
1C0000
1C0000
1C0000
1C0000
1C0000
1C0000
1C0000
1C0000
1C0700
1C0F80
1C0F80
1C0700
1C0000
1C0000
1C0000
1C0000
1C0000
1C0000
1C0000
1FFF00
1FFF00
1FFF00
000000
000000
000000
000000
000000
000000
000000
000000
000000
ENDCHAR
STARTCHAR LtSmlLMdot
ENCODING 320
SWIDTH 432 0
DWIDTH 18 0
BBX 18 40 0 -9
BITMAP
000000
000000
000000
000000
000000
000000
000000
0FC000
0FC000
0FC000
01C000
01C000
01C000
01C000
01C000
01C000
01C380
01C7C0
01C7C0
01C380
01C000
01C000
01C000
01C000
01C000
01C000
01C000
01C000
3FFE00
3FFE00
3FFE00
000000
000000
000000
000000
000000
000000
000000
000000
000000
ENDCHAR
STARTCHAR LtCapLStroke
ENCODING 321
SWIDTH 432 0
DWIDTH 18 0
BBX 18 40 0 -9
BITMAP
000000
000000
000000
000000
000000
000000
000000
000000
0E0000
0E0000
0E0000
0E0000
0E0000
0E0000
0E0000
0E2000
0EE000
0FE000
0FE000
1F8000
3E0000
3E0000
3E0000
0E0000
0E0000
0E0000
0E0000
0E0000
0FFF80
0FFF80
0FFF80
000000
000000
000000
000000
000000
000000
000000
000000
000000
ENDCHAR
STARTCHAR LtSmlLStroke
ENCODING 322
SWIDTH 432 0
DWIDTH 18 0
BBX 18 40 0 -9
BITMAP
000000
000000
000000
000000
000000
000000
000000
07E000
07E000
07E000
00E000
00E000
00E000
00EC00
00FC00
00FC00
00F800
00F000
01E000
03E000
07E000
07E000
06E000
00E000
00E000
00E000
00E000
00E000
1FFF00
1FFF00
1FFF00
000000
000000
000000
000000
000000
000000
000000
000000
000000
ENDCHAR
STARTCHAR LtCapNAcute
ENCODING 323
SWIDTH 432 0
DWIDTH 18 0
BBX 18 40 0 -9
BITMAP
000000
000000
007C00
007800
00F000
00E000
01C000
000000
1C0700
1C0700
1E0700
1E0700
1F0700
1F0700
1F8700
1F8700
1DC700
1DC700
1CC700
1CE700
1C6700
1C7700
1C7700
1C3F00
1C3F00
1C1F00
1C1F00
1C0F00
1C0F00
1C0700
1C0700
000000
000000
000000
000000
000000
000000
000000
000000
000000
ENDCHAR
STARTCHAR LtSmlNAcute
ENCODING 324
SWIDTH 432 0
DWIDTH 18 0
BBX 18 40 0 -9
BITMAP
000000
000000
000000
000000
000000
000000
007C00
007800
00F000
00E000
01C000
018000
000000
000000
1CF800
1DFE00
1FFE00
1F0F00
1E0700
1C0700
1C0700
1C0700
1C0700
1C0700
1C0700
1C0700
1C0700
1C0700
1C0700
1C0700
1C0700
000000
000000
000000
000000
000000
000000
000000
000000
000000
ENDCHAR
STARTCHAR LtCapNComma
ENCODING 325
SWIDTH 432 0
DWIDTH 18 0
BBX 18 40 0 -9
BITMAP
000000
000000
000000
000000
000000
000000
000000
000000
1C0700
1C0700
1E0700
1E0700
1F0700
1F0700
1F8700
1F8700
1DC700
1DC700
1CC700
1CE700
1C6700
1C7700
1C7700
1C3F00
1C3F00
1C1F00
1C1F00
1C0F00
1C0F00
1C0700
1C0700
000000
006000
00F000
00F000
007000
007000
01E000
01C000
000000
ENDCHAR
STARTCHAR LtSmlNComma
ENCODING 326
SWIDTH 432 0
DWIDTH 18 0
BBX 18 40 0 -9
BITMAP
000000
000000
000000
000000
000000
000000
000000
000000
000000
000000
000000
000000
000000
000000
1CF800
1DFE00
1FFE00
1F0F00
1E0700
1C0700
1C0700
1C0700
1C0700
1C0700
1C0700
1C0700
1C0700
1C0700
1C0700
1C0700
1C0700
000000
006000
00F000
00F000
007000
007000
01E000
01C000
000000
ENDCHAR
STARTCHAR LtCapNCaron
ENCODING 327
SWIDTH 432 0
DWIDTH 18 0
BBX 18 40 0 -9
BITMAP
000000
000000
071C00
07BC00
03F800
01F000
00E000
000000
1C0700
1C0700
1E0700
1E0700
1F0700
1F0700
1F8700
1F8700
1DC700
1DC700
1CC700
1CE700
1C6700
1C7700
1C7700
1C3F00
1C3F00
1C1F00
1C1F00
1C0F00
1C0F00
1C0700
1C0700
000000
000000
000000
000000
000000
000000
000000
000000
000000
ENDCHAR
STARTCHAR LtSmlNCaron
ENCODING 328
SWIDTH 432 0
DWIDTH 18 0
BBX 18 40 0 -9
BITMAP
000000
000000
000000
000000
000000
000000
071C00
07BC00
03F800
01F000
00E000
000000
000000
000000
1CF800
1DFE00
1FFE00
1F0F00
1E0700
1C0700
1C0700
1C0700
1C0700
1C0700
1C0700
1C0700
1C0700
1C0700
1C0700
1C0700
1C0700
000000
000000
000000
000000
000000
000000
000000
000000
000000
ENDCHAR
STARTCHAR LtSmlNApostr
ENCODING 329
SWIDTH 432 0
DWIDTH 18 0
BBX 18 40 0 -9
BITMAP
000000
000000
000000
000000
1C0000
3E0000
3E0000
1E0000
0E0000
0E0000
1C0000
380000
000000
000000
0E7C00
0EFF00
0FFF00
0F8780
0F0380
0E0380
0E0380
0E0380
0E0380
0E0380
0E0380
0E0380
0E0380
0E0380
0E0380
0E0380
0E0380
000000
000000
000000
000000
000000
000000
000000
000000
000000
ENDCHAR
STARTCHAR LtCapEng
ENCODING 330
SWIDTH 432 0
DWIDTH 18 0
BBX 18 40 0 -9
BITMAP
000000
000000
000000
000000
000000
000000
000000
000000
1CF800
1DFC00
1FFE00
1F0E00
1E0700
1C0700
1C0700
1C0700
1C0700
1C0700
1C0700
1C0700
1C0700
1C0700
1C0700
1C0700
1C0700
1C0700
1C0700
1C0700
1C0700
1C0700
1C0700
000700
000700
01C700
01C700
01FE00
01FE00
00FC00
000000
000000
ENDCHAR
STARTCHAR LtSmlEng
ENCODING 331
SWIDTH 432 0
DWIDTH 18 0
BBX 18 40 0 -9
BITMAP
000000
000000
000000
000000
000000
000000
000000
000000
000000
000000
000000
000000
000000
000000
1CF800
1DFE00
1FFE00
1F0F00
1E0700
1C0700
1C0700
1C0700
1C0700
1C0700
1C0700
1C0700
1C0700
1C0700
1C0700
1C0700
1C0700
000700
000700
000700
01CE00
01FE00
00FC00
007800
000000
000000
ENDCHAR
STARTCHAR LtCapOMacron
ENCODING 332
SWIDTH 432 0
DWIDTH 18 0
BBX 18 40 0 -9
BITMAP
000000
000000
000000
0FFC00
0FFC00
0FFC00
000000
000000
01E000
07F800
0FFC00
1E1E00
1C0E00
380700
380700
380700
380700
380700
380700
380700
380700
380700
380700
380700
380700
380700
1C0E00
1E1E00
0FFC00
07F800
01E000
000000
000000
000000
000000
000000
000000
000000
000000
000000
ENDCHAR
STARTCHAR LtSmlOMacron
ENCODING 333
SWIDTH 432 0
DWIDTH 18 0
BBX 18 40 0 -9
BITMAP
000000
000000
000000
000000
000000
000000
000000
000000
07FC00
07FC00
07FC00
000000
000000
000000
01F000
07FC00
0FFE00
0E0E00
1E0F00
1C0700
1C0700
1C0700
1C0700
1C0700
1C0700
1C0700
1E0F00
0E0E00
0FFE00
07FC00
01F000
000000
000000
000000
000000
000000
000000
000000
000000
000000
ENDCHAR
STARTCHAR LtCapOBreve
ENCODING 334
SWIDTH 432 0
DWIDTH 18 0
BBX 18 40 0 -9
BITMAP
000000
000000
071C00
071C00
03F800
03F800
00E000
000000
01E000
07F800
0FFC00
1E1E00
1C0E00
380700
380700
380700
380700
380700
380700
380700
380700
380700
380700
380700
380700
380700
1C0E00
1E1E00
0FFC00
07F800
01E000
000000
000000
000000
000000
000000
000000
000000
000000
000000
ENDCHAR
STARTCHAR LtSmlOBreve
ENCODING 335
SWIDTH 432 0
DWIDTH 18 0
BBX 18 40 0 -9
BITMAP
000000
000000
000000
000000
000000
000000
071C00
071C00
03F800
03F800
00E000
000000
000000
000000
01F000
07FC00
0FFE00
0E0E00
1E0F00
1C0700
1C0700
1C0700
1C0700
1C0700
1C0700
1C0700
1E0F00
0E0E00
0FFE00
07FC00
01F000
000000
000000
000000
000000
000000
000000
000000
000000
000000
ENDCHAR
STARTCHAR LtCapOAcute2
ENCODING 336
SWIDTH 432 0
DWIDTH 18 0
BBX 18 40 0 -9
BITMAP
000000
000000
00F780
01EF00
01CE00
039C00
073800
000000
01E000
07F800
0FFC00
1E1E00
1C0E00
380700
380700
380700
380700
380700
380700
380700
380700
380700
380700
380700
380700
380700
1C0E00
1E1E00
0FFC00
07F800
01E000
000000
000000
000000
000000
000000
000000
000000
000000
000000
ENDCHAR
STARTCHAR LtSmlOAcute2
ENCODING 337
SWIDTH 432 0
DWIDTH 18 0
BBX 18 40 0 -9
BITMAP
000000
000000
000000
000000
000000
000000
00F780
00F780
01EF00
01CE00
039C00
031800
000000
000000
01F000
07FC00
0FFE00
0E0E00
1E0F00
1C0700
1C0700
1C0700
1C0700
1C0700
1C0700
1C0700
1E0F00
0E0E00
0FFE00
07FC00
01F000
000000
000000
000000
000000
000000
000000
000000
000000
000000
ENDCHAR
STARTCHAR LtCapOE
ENCODING 338
SWIDTH 432 0
DWIDTH 18 0
BBX 18 40 0 -9
BITMAP
000000
000000
000000
000000
000000
000000
000000
000000
03FF80
0FFF80
1FFF80
1CE000
38E000
38E000
38E000
38E000
38E000
38FF00
38FF00
38FF00
38E000
38E000
38E000
38E000
38E000
38E000
38E000
1CE000
1FFF80
0FFF80
03FF80
000000
000000
000000
000000
000000
000000
000000
000000
000000
ENDCHAR
STARTCHAR LtSmlOE
ENCODING 339
SWIDTH 432 0
DWIDTH 18 0
BBX 18 40 0 -9
BITMAP
000000
000000
000000
000000
000000
000000
000000
000000
000000
000000
000000
000000
000000
000000
071E00
1FBF00
1FFF80
38F380
38E380
38E380
38FF80
38FF80
38FF80
38E000
38E000
38E000
38E000
38F380
1FFF80
1FBF00
071E00
000000
000000
000000
000000
000000
000000
000000
000000
000000
ENDCHAR
STARTCHAR LtCapRAcute
ENCODING 340
SWIDTH 432 0
DWIDTH 18 0
BBX 18 40 0 -9
BITMAP
000000
000000
00F800
00F000
01E000
01C000
038000
000000
1FE000
1FF800
1FFC00
1C1C00
1C0E00
1C0E00
1C0E00
1C0E00
1C0E00
1C1C00
1FFC00
1FF800
1FF000
1C7000
1C7800
1C3800
1C3C00
1C1C00
1C1E00
1C0E00
1C0F00
1C0700
1C0780
000000
000000
000000
000000
000000
000000
000000
000000
000000
ENDCHAR
STARTCHAR LtSmlRAcute
ENCODING 341
SWIDTH 432 0
DWIDTH 18 0
BBX 18 40 0 -9
BITMAP
000000
000000
000000
000000
000000
000000
007C00
007800
00F000
00E000
01C000
018000
000000
000000
1E7C00
1EFE00
1FFF00
0F8F00
0F0700
0E0000
0E0000
0E0000
0E0000
0E0000
0E0000
0E0000
0E0000
0E0000
0E0000
0E0000
0E0000
000000
000000
000000
000000
000000
000000
000000
000000
000000
ENDCHAR
STARTCHAR LtCapRComma
ENCODING 342
SWIDTH 432 0
DWIDTH 18 0
BBX 18 40 0 -9
BITMAP
000000
000000
000000
000000
000000
000000
000000
000000
1FE000
1FF800
1FFC00
1C1C00
1C0E00
1C0E00
1C0E00
1C0E00
1C0E00
1C1C00
1FFC00
1FF800
1FF000
1C7000
1C7800
1C3800
1C3C00
1C1C00
1C1E00
1C0E00
1C0F00
1C0700
1C0780
000000
006000
00F000
00F000
007000
007000
01E000
01C000
000000
ENDCHAR
STARTCHAR LtSmlRComma
ENCODING 343
SWIDTH 432 0
DWIDTH 18 0
BBX 18 40 0 -9
BITMAP
000000
000000
000000
000000
000000
000000
000000
000000
000000
000000
000000
000000
000000
000000
1E7C00
1EFE00
1FFF00
0F8F00
0F0700
0E0000
0E0000
0E0000
0E0000
0E0000
0E0000
0E0000
0E0000
0E0000
0E0000
0E0000
0E0000
000000
060000
0F0000
0F0000
070000
070000
1E0000
1C0000
000000
ENDCHAR
STARTCHAR LtCapRCaron
ENCODING 344
SWIDTH 432 0
DWIDTH 18 0
BBX 18 40 0 -9
BITMAP
000000
000000
0E3800
0F7800
07F000
03E000
01C000
000000
1FE000
1FF800
1FFC00
1C1C00
1C0E00
1C0E00
1C0E00
1C0E00
1C0E00
1C1C00
1FFC00
1FF800
1FF000
1C7000
1C7800
1C3800
1C3C00
1C1C00
1C1E00
1C0E00
1C0F00
1C0700
1C0780
000000
000000
000000
000000
000000
000000
000000
000000
000000
ENDCHAR
STARTCHAR LtSmlRCaron
ENCODING 345
SWIDTH 432 0
DWIDTH 18 0
BBX 18 40 0 -9
BITMAP
000000
000000
000000
000000
000000
000000
071C00
07BC00
03F800
01F000
00E000
000000
000000
000000
1E7C00
1EFE00
1FFF00
0F8F00
0F0700
0E0000
0E0000
0E0000
0E0000
0E0000
0E0000
0E0000
0E0000
0E0000
0E0000
0E0000
0E0000
000000
000000
000000
000000
000000
000000
000000
000000
000000
ENDCHAR
STARTCHAR LtCapSAcute
ENCODING 346
SWIDTH 432 0
DWIDTH 18 0
BBX 18 40 0 -9
BITMAP
000000
000000
007C00
007800
00F000
00E000
01C000
000000
03F800
07FE00
0FFE00
0E0F00
1C0700
1C0000
1C0000
0E0000
0F0000
07C000
03F000
01F800
007C00
001E00
000E00
000700
000700
000700
1C0700
1E0E00
0FFE00
0FFC00
03F800
000000
000000
000000
000000
000000
000000
000000
000000
000000
ENDCHAR
STARTCHAR LtSmlSAcute
ENCODING 347
SWIDTH 432 0
DWIDTH 18 0
BBX 18 40 0 -9
BITMAP
000000
000000
000000
000000
000000
000000
003E00
003C00
007800
007000
00E000
00C000
000000
000000
03F800
0FFE00
0FFF00
1E0F00
1C0700
1C0000
0F0000
0FF000
07FC00
01FE00
001E00
000700
1C0700
1E0F00
1FFE00
0FFE00
03F800
000000
000000
000000
000000
000000
000000
000000
000000
000000
ENDCHAR
STARTCHAR LtCapSCircum
ENCODING 348
SWIDTH 432 0
DWIDTH 18 0
BBX 18 40 0 -9
BITMAP
000000
000000
00F000
01F800
03FC00
079E00
000000
000000
03F800
07FE00
0FFE00
0E0F00
1C0700
1C0000
1C0000
0E0000
0F0000
07C000
03F000
01F800
007C00
001E00
000E00
000700
000700
000700
1C0700
1E0E00
0FFE00
0FFC00
03F800
000000
000000
000000
000000
000000
000000
000000
000000
000000
ENDCHAR
STARTCHAR LtSmlSCircum
ENCODING 349
SWIDTH 432 0
DWIDTH 18 0
BBX 18 40 0 -9
BITMAP
000000
000000
000000
000000
000000
000000
00E000
01F000
03F800
07BC00
071C00
000000
000000
000000
03F800
0FFE00
0FFF00
1E0F00
1C0700
1C0000
0F0000
0FF000
07FC00
01FE00
001E00
000700
1C0700
1E0F00
1FFE00
0FFE00
03F800
000000
000000
000000
000000
000000
000000
000000
000000
000000
ENDCHAR
STARTCHAR LtCapSCedilla
ENCODING 350
SWIDTH 432 0
DWIDTH 18 0
BBX 18 40 0 -9
BITMAP
000000
000000
000000
000000
000000
000000
000000
000000
03F800
07FE00
0FFE00
0E0F00
1C0700
1C0000
1C0000
0E0000
0F0000
07C000
03F000
01F800
007C00
001E00
000E00
000700
000700
000700
1C0700
1E0E00
0FFE00
0FFC00
03F800
006000
00E000
007000
003800
03F800
03F800
03F000
000000
000000
ENDCHAR
STARTCHAR LtSmlSCedilla
ENCODING 351
SWIDTH 432 0
DWIDTH 18 0
BBX 18 40 0 -9
BITMAP
000000
000000
000000
000000
000000
000000
000000
000000
000000
000000
000000
000000
000000
000000
03F800
0FFE00
0FFF00
1E0F00
1C0700
1C0000
0F0000
0FF000
07FC00
01FE00
001E00
000700
1C0700
1E0F00
1FFE00
0FFE00
03F800
006000
00E000
007000
003800
03F800
03F800
03F000
000000
000000
ENDCHAR
STARTCHAR LtCapSCaron
ENCODING 352
SWIDTH 432 0
DWIDTH 18 0
BBX 18 40 0 -9
BITMAP
000000
000000
071C00
07BC00
03F800
01F000
00E000
000000
03F800
07FE00
0FFE00
0E0F00
1C0700
1C0000
1C0000
0E0000
0F0000
07C000
03F000
01F800
007C00
001E00
000E00
000700
000700
000700
1C0700
1E0E00
0FFE00
0FFC00
03F800
000000
000000
000000
000000
000000
000000
000000
000000
000000
ENDCHAR
STARTCHAR LtSmlSCaron
ENCODING 353
SWIDTH 432 0
DWIDTH 18 0
BBX 18 40 0 -9
BITMAP
000000
000000
000000
000000
000000
000000
071C00
07BC00
03F800
01F000
00E000
000000
000000
000000
03F800
0FFE00
0FFF00
1E0F00
1C0700
1C0000
0F0000
0FF000
07FC00
01FE00
001E00
000700
1C0700
1E0F00
1FFE00
0FFE00
03F800
000000
000000
000000
000000
000000
000000
000000
000000
000000
ENDCHAR
STARTCHAR LtCapTCedilla
ENCODING 354
SWIDTH 432 0
DWIDTH 18 0
BBX 18 40 0 -9
BITMAP
000000
000000
000000
000000
000000
000000
000000
000000
3FFF80
3FFF80
3FFF80
00E000
00E000
00E000
00E000
00E000
00E000
00E000
00E000
00E000
00E000
00E000
00E000
00E000
00E000
00E000
00E000
00E000
00E000
00E000
00E000
006000
00E000
007000
003800
03F800
03F800
03F000
000000
000000
ENDCHAR
STARTCHAR LtSmlTCedilla
ENCODING 355
SWIDTH 432 0
DWIDTH 18 0
BBX 18 40 0 -9
BITMAP
000000
000000
000000
000000
000000
000000
000000
000000
004000
00C000
01C000
01C000
01C000
01C000
1FFE00
1FFE00
1FFE00
01C000
01C000
01C000
01C000
01C000
01C000
01C000
01C000
01C000
01C000
01C300
00FF00
00FF00
007E00
001800
003800
001C00
000E00
00FE00
00FE00
00FC00
000000
000000
ENDCHAR
STARTCHAR LtCapTCaron
ENCODING 356
SWIDTH 432 0
DWIDTH 18 0
BBX 18 40 0 -9
BITMAP
000000
000000
071C00
07BC00
03F800
01F000
00E000
000000
3FFF80
3FFF80
3FFF80
00E000
00E000
00E000
00E000
00E000
00E000
00E000
00E000
00E000
00E000
00E000
00E000
00E000
00E000
00E000
00E000
00E000
00E000
00E000
00E000
000000
000000
000000
000000
000000
000000
000000
000000
000000
ENDCHAR
STARTCHAR LtSmlTCaron
ENCODING 357
SWIDTH 432 0
DWIDTH 18 0
BBX 18 40 0 -9
BITMAP
000000
000000
000000
000000
000700
000F80
000F80
000780
008380
018380
038700
038E00
038000
038000
3FF800
3FF800
3FF800
038000
038000
038000
038000
038000
038000
038000
038000
038000
038000
038600
01FE00
01FE00
00FC00
000000
000000
000000
000000
000000
000000
000000
000000
000000
ENDCHAR
STARTCHAR LtCapTStroke
ENCODING 358
SWIDTH 432 0
DWIDTH 18 0
BBX 18 40 0 -9
BITMAP
000000
000000
000000
000000
000000
000000
000000
000000
3FFF80
3FFF80
3FFF80
00E000
00E000
00E000
00E000
00E000
00E000
00E000
07FC00
07FC00
07FC00
00E000
00E000
00E000
00E000
00E000
00E000
00E000
00E000
00E000
00E000
000000
000000
000000
000000
000000
000000
000000
000000
000000
ENDCHAR
STARTCHAR LtSmlTStroke
ENCODING 359
SWIDTH 432 0
DWIDTH 18 0
BBX 18 40 0 -9
BITMAP
000000
000000
000000
000000
000000
000000
000000
000000
004000
00C000
01C000
01C000
01C000
01C000
1FFE00
1FFE00
1FFE00
01C000
01C000
1FFE00
1FFE00
1FFE00
01C000
01C000
01C000
01C000
01C000
01C300
00FF00
00FF00
007E00
000000
000000
000000
000000
000000
000000
000000
000000
000000
ENDCHAR
STARTCHAR LtCapUTilde
ENCODING 360
SWIDTH 432 0
DWIDTH 18 0
BBX 18 40 0 -9
BITMAP
000000
000000
01C600
03EE00
07FE00
077C00
063800
000000
1C0700
1C0700
1C0700
1C0700
1C0700
1C0700
1C0700
1C0700
1C0700
1C0700
1C0700
1C0700
1C0700
1C0700
1C0700
1C0700
1C0700
1C0700
1C0700
0E0E00
0FFE00
07FC00
01F000
000000
000000
000000
000000
000000
000000
000000
000000
000000
ENDCHAR
STARTCHAR LtSmlUTilde
ENCODING 361
SWIDTH 432 0
DWIDTH 18 0
BBX 18 40 0 -9
BITMAP
000000
000000
000000
000000
000000
000000
038C00
07DC00
0FFC00
0EF800
0C7000
000000
000000
000000
1C0700
1C0700
1C0700
1C0700
1C0700
1C0700
1C0700
1C0700
1C0700
1C0700
1C0700
1C0700
1C0F00
1E1F00
0FFF00
0FF700
07E700
000000
000000
000000
000000
000000
000000
000000
000000
000000
ENDCHAR
STARTCHAR LtCapUMacron
ENCODING 362
SWIDTH 432 0
DWIDTH 18 0
BBX 18 40 0 -9
BITMAP
000000
000000
000000
07FC00
07FC00
07FC00
000000
000000
1C0700
1C0700
1C0700
1C0700
1C0700
1C0700
1C0700
1C0700
1C0700
1C0700
1C0700
1C0700
1C0700
1C0700
1C0700
1C0700
1C0700
1C0700
1C0700
0E0E00
0FFE00
07FC00
01F000
000000
000000
000000
000000
000000
000000
000000
000000
000000
ENDCHAR
STARTCHAR LtSmlUMacron
ENCODING 363
SWIDTH 432 0
DWIDTH 18 0
BBX 18 40 0 -9
BITMAP
000000
000000
000000
000000
000000
000000
000000
000000
07FC00
07FC00
07FC00
000000
000000
000000
1C0700
1C0700
1C0700
1C0700
1C0700
1C0700
1C0700
1C0700
1C0700
1C0700
1C0700
1C0700
1C0F00
1E1F00
0FFF00
0FF700
07E700
000000
000000
000000
000000
000000
000000
000000
000000
000000
ENDCHAR
STARTCHAR LtCapUBreve
ENCODING 364
SWIDTH 432 0
DWIDTH 18 0
BBX 18 40 0 -9
BITMAP
000000
000000
071C00
071C00
03F800
03F800
00E000
000000
1C0700
1C0700
1C0700
1C0700
1C0700
1C0700
1C0700
1C0700
1C0700
1C0700
1C0700
1C0700
1C0700
1C0700
1C0700
1C0700
1C0700
1C0700
1C0700
0E0E00
0FFE00
07FC00
01F000
000000
000000
000000
000000
000000
000000
000000
000000
000000
ENDCHAR
STARTCHAR LtSmlUBreve
ENCODING 365
SWIDTH 432 0
DWIDTH 18 0
BBX 18 40 0 -9
BITMAP
000000
000000
000000
000000
000000
000000
071C00
071C00
03F800
03F800
00E000
000000
000000
000000
1C0700
1C0700
1C0700
1C0700
1C0700
1C0700
1C0700
1C0700
1C0700
1C0700
1C0700
1C0700
1C0F00
1E1F00
0FFF00
0FF700
07E700
000000
000000
000000
000000
000000
000000
000000
000000
000000
ENDCHAR
STARTCHAR LtCapURing
ENCODING 366
SWIDTH 432 0
DWIDTH 18 0
BBX 18 40 0 -9
BITMAP
000000
01F000
03F800
071C00
071C00
071C00
03F800
01F000
000000
1C0700
1C0700
1C0700
1C0700
1C0700
1C0700
1C0700
1C0700
1C0700
1C0700
1C0700
1C0700
1C0700
1C0700
1C0700
1C0700
1C0700
1C0700
0E0E00
0FFE00
07FC00
01F000
000000
000000
000000
000000
000000
000000
000000
000000
000000
ENDCHAR
STARTCHAR LtSmlURing
ENCODING 367
SWIDTH 432 0
DWIDTH 18 0
BBX 18 40 0 -9
BITMAP
000000
000000
000000
000000
01F000
03F800
071C00
071C00
071C00
03F800
01F000
000000
000000
000000
1C0700
1C0700
1C0700
1C0700
1C0700
1C0700
1C0700
1C0700
1C0700
1C0700
1C0700
1C0700
1C0F00
1E1F00
0FFF00
0FF700
07E700
000000
000000
000000
000000
000000
000000
000000
000000
000000
ENDCHAR
STARTCHAR LtCapUAcute2
ENCODING 368
SWIDTH 432 0
DWIDTH 18 0
BBX 18 40 0 -9
BITMAP
000000
000000
00F780
01EF00
01CE00
039C00
073800
000000
1C0700
1C0700
1C0700
1C0700
1C0700
1C0700
1C0700
1C0700
1C0700
1C0700
1C0700
1C0700
1C0700
1C0700
1C0700
1C0700
1C0700
1C0700
1C0700
0E0E00
0FFE00
07FC00
01F000
000000
000000
000000
000000
000000
000000
000000
000000
000000
ENDCHAR
STARTCHAR LtSmlUAcute2
ENCODING 369
SWIDTH 432 0
DWIDTH 18 0
BBX 18 40 0 -9
BITMAP
000000
000000
000000
000000
000000
000000
00F780
00F780
01EF00
01CE00
039C00
031800
000000
000000
1C0700
1C0700
1C0700
1C0700
1C0700
1C0700
1C0700
1C0700
1C0700
1C0700
1C0700
1C0700
1C0F00
1E1F00
0FFF00
0FF700
07E700
000000
000000
000000
000000
000000
000000
000000
000000
000000
ENDCHAR
STARTCHAR LtCapUOgonek
ENCODING 370
SWIDTH 432 0
DWIDTH 18 0
BBX 18 40 0 -9
BITMAP
000000
000000
000000
000000
000000
000000
000000
000000
1C0700
1C0700
1C0700
1C0700
1C0700
1C0700
1C0700
1C0700
1C0700
1C0700
1C0700
1C0700
1C0700
1C0700
1C0700
1C0700
1C0700
1C0700
1C0700
0E0E00
0FFE00
07FC00
01F800
007000
00E000
01C000
01C000
01F800
01F800
00F800
000000
000000
ENDCHAR
STARTCHAR LtSmlUOgonek
ENCODING 371
SWIDTH 432 0
DWIDTH 18 0
BBX 18 40 0 -9
BITMAP
000000
000000
000000
000000
000000
000000
000000
000000
000000
000000
000000
000000
000000
000000
1C0700
1C0700
1C0700
1C0700
1C0700
1C0700
1C0700
1C0700
1C0700
1C0700
1C0700
1C0700
1C0F00
1E1F00
0FFF00
0FF700
07E700
000E00
001C00
003800
003800
003F00
003F00
001F00
000000
000000
ENDCHAR
STARTCHAR LtCapWCircum
ENCODING 372
SWIDTH 432 0
DWIDTH 18 0
BBX 18 40 0 -9
BITMAP
000000
000000
00F000
01F800
03FC00
079E00
000000
000000
380380
380380
380380
380380
380380
380380
380380
384380
1CE700
1CE700
1CE700
1CE700
1DF700
1DF700
1DB700
1FBF00
0FBE00
0F1E00
0F1E00
0F1E00
0E0E00
0E0E00
0E0E00
000000
000000
000000
000000
000000
000000
000000
000000
000000
ENDCHAR
STARTCHAR LtSmlWCircum
ENCODING 373
SWIDTH 432 0
DWIDTH 18 0
BBX 18 40 0 -9
BITMAP
000000
000000
000000
000000
000000
000000
00E000
01F000
03F800
07BC00
071C00
000000
000000
000000
380380
380380
380380
380380
38E380
38E380
1CE700
1CE700
1DF700
1DF700
1DB700
1FBF00
0FBE00
0F1E00
0F1E00
0E0E00
0E0E00
000000
000000
000000
000000
000000
000000
000000
000000
000000
ENDCHAR
STARTCHAR LtCapYCircum
ENCODING 374
SWIDTH 432 0
DWIDTH 18 0
BBX 18 40 0 -9
BITMAP
000000
000000
00F000
01F800
03FC00
079E00
000000
000000
380380
380380
1C0700
1C0700
0E0E00
0E0E00
071C00
071C00
03B800
03B800
01F000
01F000
00E000
00E000
00E000
00E000
00E000
00E000
00E000
00E000
00E000
00E000
00E000
000000
000000
000000
000000
000000
000000
000000
000000
000000
ENDCHAR
STARTCHAR LtSmlYCircum
ENCODING 375
SWIDTH 432 0
DWIDTH 18 0
BBX 18 40 0 -9
BITMAP
000000
000000
000000
000000
000000
000000
00E000
01F000
03F800
07BC00
071C00
000000
000000
000000
1C0700
1C0700
1C0700
0E0700
0E0E00
070E00
070E00
070E00
039C00
039C00
01DC00
01DC00
01F800
00F800
00F800
007800
007000
007000
007000
00E000
1CE000
1FE000
1FC000
0F8000
000000
000000
ENDCHAR
STARTCHAR LtCapYDrss
ENCODING 376
SWIDTH 432 0
DWIDTH 18 0
BBX 18 40 0 -9
BITMAP
000000
000000
039C00
039C00
039C00
039C00
000000
000000
380380
380380
1C0700
1C0700
0E0E00
0E0E00
071C00
071C00
03B800
03B800
01F000
01F000
00E000
00E000
00E000
00E000
00E000
00E000
00E000
00E000
00E000
00E000
00E000
000000
000000
000000
000000
000000
000000
000000
000000
000000
ENDCHAR
STARTCHAR LtCapZAcute
ENCODING 377
SWIDTH 432 0
DWIDTH 18 0
BBX 18 40 0 -9
BITMAP
000000
000000
007C00
007800
00F000
00E000
01C000
000000
1FFF00
1FFF00
1FFF00
000E00
000E00
001C00
001C00
003800
003800
007000
00F000
00E000
01E000
01C000
038000
038000
070000
070000
0E0000
0E0000
1FFF00
1FFF00
1FFF00
000000
000000
000000
000000
000000
000000
000000
000000
000000
ENDCHAR
STARTCHAR LtSmlZAcute
ENCODING 378
SWIDTH 432 0
DWIDTH 18 0
BBX 18 40 0 -9
BITMAP
000000
000000
000000
000000
000000
000000
003E00
003C00
007800
007000
00E000
00C000
000000
000000
1FFF00
1FFF00
1FFF00
000E00
001C00
003C00
007800
00F000
00E000
01E000
03C000
078000
070000
0E0000
1FFF00
1FFF00
1FFF00
000000
000000
000000
000000
000000
000000
000000
000000
000000
ENDCHAR
STARTCHAR LtCapZDot
ENCODING 379
SWIDTH 432 0
DWIDTH 18 0
BBX 18 40 0 -9
BITMAP
000000
000000
00E000
01F000
01F000
00E000
000000
000000
1FFF00
1FFF00
1FFF00
000E00
000E00
001C00
001C00
003800
003800
007000
00F000
00E000
01E000
01C000
038000
038000
070000
070000
0E0000
0E0000
1FFF00
1FFF00
1FFF00
000000
000000
000000
000000
000000
000000
000000
000000
000000
ENDCHAR
STARTCHAR LtSmlZDot
ENCODING 380
SWIDTH 432 0
DWIDTH 18 0
BBX 18 40 0 -9
BITMAP
000000
000000
000000
000000
000000
000000
000000
00E000
01F000
01F000
00E000
000000
000000
000000
1FFF00
1FFF00
1FFF00
000E00
001C00
003C00
007800
00F000
00E000
01E000
03C000
078000
070000
0E0000
1FFF00
1FFF00
1FFF00
000000
000000
000000
000000
000000
000000
000000
000000
000000
ENDCHAR
STARTCHAR LtCapZCaron
ENCODING 381
SWIDTH 432 0
DWIDTH 18 0
BBX 18 40 0 -9
BITMAP
000000
000000
071C00
07BC00
03F800
01F000
00E000
000000
1FFF00
1FFF00
1FFF00
000E00
000E00
001C00
001C00
003800
003800
007000
00F000
00E000
01E000
01C000
038000
038000
070000
070000
0E0000
0E0000
1FFF00
1FFF00
1FFF00
000000
000000
000000
000000
000000
000000
000000
000000
000000
ENDCHAR
STARTCHAR LtSmlZCaron
ENCODING 382
SWIDTH 432 0
DWIDTH 18 0
BBX 18 40 0 -9
BITMAP
000000
000000
000000
000000
000000
000000
071C00
07BC00
03F800
01F000
00E000
000000
000000
000000
1FFF00
1FFF00
1FFF00
000E00
001C00
003C00
007800
00F000
00E000
01E000
03C000
078000
070000
0E0000
1FFF00
1FFF00
1FFF00
000000
000000
000000
000000
000000
000000
000000
000000
000000
ENDCHAR
STARTCHAR LtSmlSLong
ENCODING 383
SWIDTH 432 0
DWIDTH 18 0
BBX 18 40 0 -9
BITMAP
000000
000000
000000
000000
000000
000000
000000
003E00
00FF00
00FF80
01E380
01C000
01C000
01C000
01C000
0FC000
0FC000
0FC000
01C000
01C000
01C000
01C000
01C000
01C000
01C000
01C000
01C000
01C000
01C000
01C000
01C000
000000
000000
000000
000000
000000
000000
000000
000000
000000
ENDCHAR
STARTCHAR LtSmlBStroke
ENCODING 384
SWIDTH 432 0
DWIDTH 18 0
BBX 18 40 0 -9
BITMAP
000000
000000
000000
000000
000000
000000
000000
1C0000
1C0000
3FE000
3FE000
3FE000
1C0000
1C0000
1CF800
1DFC00
1FFE00
1F0E00
1E0700
1C0700
1C0700
1C0700
1C0700
1C0700
1C0700
1C0700
1E0700
1F0E00
1FFE00
1DFC00
1CF800
000000
000000
000000
000000
000000
000000
000000
000000
000000
ENDCHAR
STARTCHAR LtCapBHook
ENCODING 385
SWIDTH 432 0
DWIDTH 18 0
BBX 18 40 0 -9
BITMAP
000000
000000
000000
000000
000000
000000
000000
000000
1FF800
3FFE00
7FFE00
738F00
738700
7B8700
3B8700
1B8700
038E00
03FC00
03FC00
03FE00
038F00
038780
038380
038380
038380
038380
038380
038780
03FF00
03FF00
03FC00
000000
000000
000000
000000
000000
000000
000000
000000
000000
ENDCHAR
STARTCHAR LtCapBTopbar
ENCODING 386
SWIDTH 432 0
DWIDTH 18 0
BBX 18 40 0 -9
BITMAP
000000
000000
000000
000000
000000
000000
000000
000000
1FFE00
1FFE00
1FFE00
1C0000
1C0000
1C0000
1C0000
1C0000
1C0000
1FF000
1FFC00
1FFE00
1C0E00
1C0700
1C0700
1C0700
1C0700
1C0700
1C0700
1C0E00
1FFE00
1FFC00
1FF000
000000
000000
000000
000000
000000
000000
000000
000000
000000
ENDCHAR
STARTCHAR LtSmlBTopbar
ENCODING 387
SWIDTH 432 0
DWIDTH 18 0
BBX 18 40 0 -9
BITMAP
000000
000000
000000
000000
000000
000000
000000
1FFC00
1FFC00
1FFC00
1C0000
1C0000
1C0000
1C0000
1CF800
1DFC00
1FFE00
1F0E00
1E0700
1C0700
1C0700
1C0700
1C0700
1C0700
1C0700
1C0700
1E0700
1F0E00
1FFE00
1DFC00
1CF800
000000
000000
000000
000000
000000
000000
000000
000000
000000
ENDCHAR
STARTCHAR LtCapTone6
ENCODING 388
SWIDTH 432 0
DWIDTH 18 0
BBX 18 40 0 -9
BITMAP
000000
000000
000000
000000
000000
000000
000000
000000
070000
0F0000
1F0000
3F0000
3F0000
370000
270000
070000
070000
07F800
07FE00
07FF00
070700
070380
070380
070380
070380
070380
070380
070700
07FF00
07FE00
07F800
000000
000000
000000
000000
000000
000000
000000
000000
000000
ENDCHAR
STARTCHAR LtSmlTone6
ENCODING 389
SWIDTH 432 0
DWIDTH 18 0
BBX 18 40 0 -9
BITMAP
000000
000000
000000
000000
000000
000000
000000
000000
000000
000000
000000
000000
000000
000000
070000
0F0000
1F0000
3F0000
3F0000
370000
27FC00
07FF00
07FF00
070780
070380
070380
070380
070780
07FF00
07FF00
07FC00
000000
000000
000000
000000
000000
000000
000000
000000
000000
ENDCHAR
STARTCHAR LtCapCTrnd
ENCODING 390
SWIDTH 432 0
DWIDTH 18 0
BBX 18 40 0 -9
BITMAP
000000
000000
000000
000000
000000
000000
000000
000000
03E000
0FF800
0FFC00
1E1E00
1C0E00
000E00
000700
000700
000700
000700
000700
000700
000700
000700
000700
000700
000700
000E00
1C0E00
1E1E00
0FFC00
0FF800
03E000
000000
000000
000000
000000
000000
000000
000000
000000
000000
ENDCHAR
STARTCHAR LtCapCHook
ENCODING 391
SWIDTH 432 0
DWIDTH 18 0
BBX 18 40 0 -9
BITMAP
000000
000000
000000
000000
000F00
001F80
003FC0
0039C0
00F800
03FE00
07FE00
0F0F00
0E0700
0E0000
1C0000
1C0000
1C0000
1C0000
1C0000
1C0000
1C0000
1C0000
1C0000
1C0000
1C0000
0E0000
0E0700
0F0F00
07FE00
03FE00
00F800
000000
000000
000000
000000
000000
000000
000000
000000
000000
ENDCHAR
STARTCHAR LtSmlCHook
ENCODING 392
SWIDTH 432 0
DWIDTH 18 0
BBX 18 40 0 -9
BITMAP
000000
000000
000000
000000
000000
000000
000000
000000
001E00
003F00
007F80
007380
007000
003000
00F800
03FE00
07FE00
0F0F00
0E0700
1C0000
1C0000
1C0000
1C0000
1C0000
1C0000
1C0000
0E0700
0F0F00
07FE00
03FE00
00F800
000000
000000
000000
000000
000000
000000
000000
000000
000000
ENDCHAR
STARTCHAR LtCapDStrokeAfr
ENCODING 393
SWIDTH 432 0
DWIDTH 18 0
BBX 18 40 0 -9
BITMAP
000000
000000
000000
000000
000000
000000
000000
000000
1FE000
1FF800
1FFC00
1C1C00
1C0E00
1C0E00
1C0700
1C0700
1C0700
3FC700
3FC700
3FC700
1C0700
1C0700
1C0700
1C0700
1C0700
1C0E00
1C0E00
1C1C00
1FFC00
1FF800
1FE000
000000
000000
000000
000000
000000
000000
000000
000000
000000
ENDCHAR
STARTCHAR LtCapDHook
ENCODING 394
SWIDTH 432 0
DWIDTH 18 0
BBX 18 40 0 -9
BITMAP
000000
000000
000000
000000
000000
000000
000000
000000
1FF000
3FFC00
7FFE00
738E00
738700
7B8700
3B8380
1B8380
038380
038380
038380
038380
038380
038380
038380
038380
038380
038700
038700
038E00
03FE00
03FC00
03F000
000000
000000
000000
000000
000000
000000
000000
000000
000000
ENDCHAR
STARTCHAR LtCapDTopbar
ENCODING 395
SWIDTH 432 0
DWIDTH 18 0
BBX 18 40 0 -9
BITMAP
000000
000000
000000
000000
000000
000000
000000
000000
0FFF00
0FFF00
0FFF00
000700
000700
000700
000700
000700
000700
01FF00
07FF00
0FFF00
0E0700
1C0700
1C0700
1C0700
1C0700
1C0700
1C0700
0E0700
0FFF00
07FF00
01FF00
000000
000000
000000
000000
000000
000000
000000
000000
000000
ENDCHAR
STARTCHAR LtSmlDTopbar
ENCODING 396
SWIDTH 432 0
DWIDTH 18 0
BBX 18 40 0 -9
BITMAP
000000
000000
000000
000000
000000
000000
000000
07FF00
07FF00
07FF00
000700
000700
000700
000700
03E700
07F700
0FFF00
0E1F00
1C0F00
1C0700
1C0700
1C0700
1C0700
1C0700
1C0700
1C0700
1C0F00
0E1F00
0FFF00
07F700
03E700
000000
000000
000000
000000
000000
000000
000000
000000
000000
ENDCHAR
STARTCHAR LtSmlDelTrnd
ENCODING 397
SWIDTH 432 0
DWIDTH 18 0
BBX 18 40 0 -9
BITMAP
000000
000000
000000
000000
000000
000000
000000
000000
000000
000000
000000
000000
000000
000000
01F000
07FC00
0FFE00
0E0E00
1C0700
1C0700
1C0700
1C0700
1C0700
1C0700
1C0700
0E0E00
0F1E00
07FC00
03F000
01E000
00F000
007800
003C00
001E00
0E0E00
0FFE00
07FC00
03F800
000000
000000
ENDCHAR
STARTCHAR LtCapERev
ENCODING 398
SWIDTH 432 0
DWIDTH 18 0
BBX 18 40 0 -9
BITMAP
000000
000000
000000
000000
000000
000000
000000
000000
1FFF00
1FFF00
1FFF00
000700
000700
000700
000700
000700
000700
07FF00
07FF00
07FF00
000700
000700
000700
000700
000700
000700
000700
000700
1FFF00
1FFF00
1FFF00
000000
000000
000000
000000
000000
000000
000000
000000
000000
ENDCHAR
STARTCHAR LtCapSchwa
ENCODING 399
SWIDTH 432 0
DWIDTH 18 0
BBX 18 40 0 -9
BITMAP
000000
000000
000000
000000
000000
000000
000000
000000
01F000
07FC00
0FFC00
0F1E00
0E0E00
000700
000700
000700
000700
1FFF00
1FFF00
1FFF00
1C0700
1C0700
1C0700
1C0700
1C0700
1C0700
0E0E00
0F1E00
07FC00
07FC00
01F000
000000
000000
000000
000000
000000
000000
000000
000000
000000
ENDCHAR
STARTCHAR LtCapEps
ENCODING 400
SWIDTH 432 0
DWIDTH 18 0
BBX 18 40 0 -9
BITMAP
000000
000000
000000
000000
000000
000000
000000
000000
01F800
07FE00
0FFE00
0E0F00
1E0700
1C0000
1C0000
1E0000
0F0000
07E000
03E000
07E000
0F0000
0E0000
1C0000
1C0000
1C0000
1C0000
1E0700
0E0F00
0FFE00
07FE00
01F800
000000
000000
000000
000000
000000
000000
000000
000000
000000
ENDCHAR
STARTCHAR LtCapFLhook
ENCODING 401
SWIDTH 432 0
DWIDTH 18 0
BBX 18 40 0 -9
BITMAP
000000
000000
000000
000000
000000
000000
000000
000000
01FF80
01FF80
01FF80
01C000
01C000
01C000
01C000
01C000
01C000
01FE00
01FE00
01FE00
01C000
01C000
01C000
01C000
01C000
01C000
39C000
39C000
3FC000
1F8000
0F0000
000000
000000
000000
000000
000000
000000
000000
000000
000000
ENDCHAR
STARTCHAR LtSmlFLhook
ENCODING 402
SWIDTH 432 0
DWIDTH 18 0
BBX 18 40 0 -9
BITMAP
000000
000000
000000
000000
000000
000000
000000
001F00
007F80
007F80
00F380
00E000
00E000
00E000
00E000
1FFF00
1FFF00
1FFF00
00E000
00E000
00E000
00E000
00E000
00E000
00E000
00E000
00E000
00E000
00E000
00E000
00E000
00E000
00E000
00E000
39E000
3FC000
3FC000
1F0000
000000
000000
ENDCHAR
STARTCHAR LtCapGHook
ENCODING 403
SWIDTH 432 0
DWIDTH 18 0
BBX 18 40 0 -9
BITMAP
000000
000000
000000
000000
000F00
001F80
003FC0
0039C0
00F800
03FE00
07FE00
0F0F00
0E0700
0E0000
1C0000
1C0000
1C0000
1C0000
1C0000
1C3F00
1C3F00
1C3F00
1C0700
1C0700
1C0700
0E0700
0E0700
0F0F00
07FF00
03FF00
00F700
000000
000000
000000
000000
000000
000000
000000
000000
000000
ENDCHAR
STARTCHAR LtCapGam
ENCODING 404
SWIDTH 432 0
DWIDTH 18 0
BBX 18 40 0 -9
BITMAP
000000
000000
000000
000000
000000
000000
000000
380380
380380
380380
1C0700
1C0700
1C0700
0E0E00
0E0E00
0E0E00
071C00
071C00
071C00
03B800
03B800
01F000
01F000
01F000
00E000
00E000
01F000
01F000
03F800
03B800
03B800
071C00
071C00
071C00
071C00
07FC00
03F800
01F000
000000
000000
ENDCHAR
STARTCHAR LtSmlHwair
ENCODING 405
SWIDTH 432 0
DWIDTH 18 0
BBX 18 40 0 -9
BITMAP
000000
000000
000000
000000
000000
000000
000000
380000
380000
380000
380000
380000
380000
380000
3BC380
3FE380
3FE380
3CE380
38E380
38E380
38E380
38E380
38E380
38E380
38E380
38E380
38E380
38E380
387F00
387F00
383E00
000000
000000
000000
000000
000000
000000
000000
000000
000000
ENDCHAR
STARTCHAR LtCapIot
ENCODING 406
SWIDTH 432 0
DWIDTH 18 0
BBX 18 40 0 -9
BITMAP
000000
000000
000000
000000
000000
000000
000000
000000
1F0000
1F0000
1F0000
0E0000
0E0000
0E0000
0E0000
0E0000
0E0000
0E0000
0E0000
0E0000
0E0000
0E0000
0E0000
0E0700
0E0700
0E0700
0E0700
070E00
07FE00
03FC00
01F800
000000
000000
000000
000000
000000
000000
000000
000000
000000
ENDCHAR
STARTCHAR LtCapIStroke
ENCODING 407
SWIDTH 432 0
DWIDTH 18 0
BBX 18 40 0 -9
BITMAP
000000
000000
000000
000000
000000
000000
000000
000000
0FFE00
0FFE00
0FFE00
00E000
00E000
00E000
00E000
00E000
00E000
07FC00
07FC00
07FC00
00E000
00E000
00E000
00E000
00E000
00E000
00E000
00E000
0FFE00
0FFE00
0FFE00
000000
000000
000000
000000
000000
000000
000000
000000
000000
ENDCHAR
STARTCHAR LtCapKHook
ENCODING 408
SWIDTH 432 0
DWIDTH 18 0
BBX 18 40 0 -9
BITMAP
000000
000000
000000
000000
000000
000000
000000
000000
381E00
383F00
387F80
387380
38E380
38E380
39C000
39C000
3B8000
3B8000
3FC000
3FC000
3EE000
3EE000
3C7000
3C7000
383800
383800
381C00
381C00
380E00
380E00
380E00
000000
000000
000000
000000
000000
000000
000000
000000
000000
ENDCHAR
STARTCHAR LtSmlKHook
ENCODING 409
SWIDTH 432 0
DWIDTH 18 0
BBX 18 40 0 -9
BITMAP
000000
000000
000000
000000
000000
000000
000000
078000
0FC000
1FE000
1CE000
1C0000
1C0000
1C0000
1C0700
1C0F00
1C1E00
1C3C00
1C7800
1CF000
1DE000
1FE000
1FE000
1FF000
1C7800
1C3800
1C3C00
1C1E00
1C0E00
1C0F00
1C0700
000000
000000
000000
000000
000000
000000
000000
000000
000000
ENDCHAR
STARTCHAR LtSmlLStrokeH
ENCODING 410
SWIDTH 432 0
DWIDTH 18 0
BBX 18 40 0 -9
BITMAP
000000
000000
000000
000000
000000
000000
000000
07E000
07E000
07E000
00E000
00E000
00E000
00E000
00E000
00E000
00E000
0FFE00
0FFE00
0FFE00
00E000
00E000
00E000
00E000
00E000
00E000
00E000
00E000
1FFF00
1FFF00
1FFF00
000000
000000
000000
000000
000000
000000
000000
000000
000000
ENDCHAR
STARTCHAR LtSmlLamStroke
ENCODING 411
SWIDTH 432 0
DWIDTH 18 0
BBX 18 40 0 -9
BITMAP
000000
000000
000000
000000
000000
000000
000000
039800
03BC00
03F800
01F000
01E000
03C000
07E000
0FE000
0EE000
04F000
00F000
01F000
01F800
01F800
03B800
039C00
071C00
071C00
070E00
0E0E00
0E0E00
1C0700
1C0700
1C0700
000000
000000
000000
000000
000000
000000
000000
000000
000000
ENDCHAR
STARTCHAR LtCapMTrnd
ENCODING 412
SWIDTH 432 0
DWIDTH 18 0
BBX 18 40 0 -9
BITMAP
000000
000000
000000
000000
000000
000000
000000
000000
38E380
38E380
38E380
38E380
38E380
38E380
38E380
38E380
38E380
38E380
38E380
38E380
38E380
38E380
38E380
38E380
38E380
38E380
38E380
39E780
3FFF80
1F7F80
0E3B80
000000
000000
000000
000000
000000
000000
000000
000000
000000
ENDCHAR
STARTCHAR LtCapNLhookL
ENCODING 413
SWIDTH 432 0
DWIDTH 18 0
BBX 18 40 0 -9
BITMAP
000000
000000
000000
000000
000000
000000
000000
000000
070380
070380
078380
078380
07C380
07C380
07C380
07E380
076380
077380
077380
073380
073B80
071B80
071F80
071F80
070F80
070F80
770780
770780
7F0780
3E0380
1C0380
000000
000000
000000
000000
000000
000000
000000
000000
000000
ENDCHAR
STARTCHAR LtSmlNLongleg
ENCODING 414
SWIDTH 432 0
DWIDTH 18 0
BBX 18 40 0 -9
BITMAP
000000
000000
000000
000000
000000
000000
000000
000000
000000
000000
000000
000000
000000
000000
1CF800
1DFE00
1FFE00
1F0F00
1E0700
1C0700
1C0700
1C0700
1C0700
1C0700
1C0700
1C0700
1C0700
1C0700
1C0700
1C0700
1C0700
000700
000700
000700
000700
000700
000700
000700
000000
000000
ENDCHAR
STARTCHAR LtCapOStrokeH
ENCODING 415
SWIDTH 432 0
DWIDTH 18 0
BBX 18 40 0 -9
BITMAP
000000
000000
000000
000000
000000
000000
000000
000000
01E000
07F800
0FFC00
1E1E00
1C0E00
380700
380700
380700
380700
380700
3FFF00
3FFF00
3FFF00
380700
380700
380700
380700
380700
1C0E00
1E1E00
0FFC00
07F800
01E000
000000
000000
000000
000000
000000
000000
000000
000000
000000
ENDCHAR
STARTCHAR LtCapOHorn
ENCODING 416
SWIDTH 432 0
DWIDTH 18 0
BBX 18 40 0 -9
BITMAP
000000
000000
000000
000000
000000
000000
000000
0001C0
03C1C0
0FF1C0
1FF9C0
3C3FC0
381F80
700F00
700E00
700E00
700E00
700E00
700E00
700E00
700E00
700E00
700E00
700E00
700E00
700E00
381C00
3C3C00
1FF800
0FF000
03C000
000000
000000
000000
000000
000000
000000
000000
000000
000000
ENDCHAR
STARTCHAR LtSmlOHorn
ENCODING 417
SWIDTH 432 0
DWIDTH 18 0
BBX 18 40 0 -9
BITMAP
000000
000000
000000
000000
000000
000000
000000
000000
000000
000000
000000
000000
000000
0001C0
07C1C0
1FF1C0
3FF9C0
383FC0
783F80
701F00
701C00
701C00
701C00
701C00
701C00
701C00
783C00
383800
3FF800
1FF000
07C000
000000
000000
000000
000000
000000
000000
000000
000000
000000
ENDCHAR
STARTCHAR LtCapOi
ENCODING 418
SWIDTH 432 0
DWIDTH 18 0
BBX 18 40 0 -9
BITMAP
000000
000000
000000
000000
000000
000000
000000
000000
0F8700
1FC700
1FC700
18FF00
38FF00
38E700
38E700
38E700
38E700
38E700
38E700
38E700
38E700
38E700
38E700
38E700
38E700
38E700
38E700
18C700
1FC700
1FC700
0F8700
000700
000700
000700
000700
000700
000700
000700
000000
000000
ENDCHAR
STARTCHAR LtSmlOi
ENCODING 419
SWIDTH 432 0
DWIDTH 18 0
BBX 18 40 0 -9
BITMAP
000000
000000
000000
000000
000000
000000
000000
000000
000000
000000
000000
000000
000000
000000
0F8700
1FCF00
1FFF00
38FF00
38F700
38E700
38E700
38E700
38E700
38E700
38E700
38E700
38E700
38E700
1FC700
1FC700
0F8700
000700
000700
000700
000700
000700
000700
000700
000000
000000
ENDCHAR
STARTCHAR LtCapPHook
ENCODING 420
SWIDTH 432 0
DWIDTH 18 0
BBX 18 40 0 -9
BITMAP
000000
000000
000000
000000
000000
000000
000000
000000
0FF800
1FFE00
3FFF00
39C700
39C380
3DC380
1DC380
0DC380
01C380
01C380
01C700
01FF00
01FE00
01F800
01C000
01C000
01C000
01C000
01C000
01C000
01C000
01C000
01C000
000000
000000
000000
000000
000000
000000
000000
000000
000000
ENDCHAR
STARTCHAR LtSmlPHook
ENCODING 421
SWIDTH 432 0
DWIDTH 18 0
BBX 18 40 0 -9
BITMAP
000000
000000
000000
000000
000000
000000
000000
078000
0FC000
1FE000
1CE000
1C0000
1C0000
1C0000
1CF800
1DFC00
1FFE00
1F0E00
1E0700
1C0700
1C0700
1C0700
1C0700
1C0700
1C0700
1C0700
1E0700
1F0E00
1FFE00
1DFC00
1CF800
1C0000
1C0000
1C0000
1C0000
1C0000
1C0000
1C0000
000000
000000
ENDCHAR
STARTCHAR LtCapYr
ENCODING 422
SWIDTH 432 0
DWIDTH 18 0
BBX 18 40 0 -9
BITMAP
000000
000000
000000
000000
000000
000000
000000
000000
1C0000
1C0000
1C0000
1C0000
1C0000
1FF800
1FFE00
1FFE00
1C0F00
1C0700
1C0700
1C0700
1C0700
1C0700
1C0F00
1FFE00
1FFE00
1FF800
1CE000
1CE000
1C7000
1C3800
1C3800
001C00
001E00
000E00
000700
000780
000380
000000
000000
000000
ENDCHAR
STARTCHAR LtCapTone2
ENCODING 423
SWIDTH 432 0
DWIDTH 18 0
BBX 18 40 0 -9
BITMAP
000000
000000
000000
000000
000000
000000
000000
000000
03F800
0FFC00
0FFE00
1E0E00
1C0700
000700
000700
000E00
001E00
007C00
01F800
03F000
07C000
0F0000
0E0000
1C0000
1C0000
1C0000
1C0700
0E0F00
0FFE00
07FE00
03F800
000000
000000
000000
000000
000000
000000
000000
000000
000000
ENDCHAR
STARTCHAR LtSmlTone2
ENCODING 424
SWIDTH 432 0
DWIDTH 18 0
BBX 18 40 0 -9
BITMAP
000000
000000
000000
000000
000000
000000
000000
000000
000000
000000
000000
000000
000000
000000
03F800
0FFE00
1FFE00
1E0F00
1C0700
000700
001F00
00FE00
07FC00
0FE000
1F0000
1C0000
1C0700
1E0F00
0FFF00
0FFE00
03F800
000000
000000
000000
000000
000000
000000
000000
000000
000000
ENDCHAR
STARTCHAR LtCapEsh
ENCODING 425
SWIDTH 432 0
DWIDTH 18 0
BBX 18 40 0 -9
BITMAP
000000
000000
000000
000000
000000
000000
000000
000000
1FFF00
1FFF00
1FFF00
1E0000
0F0000
078000
038000
01C000
01E000
00F000
007800
003800
007800
00F000
01E000
01C000
038000
078000
0F0000
1E0000
1FFF00
1FFF00
1FFF00
000000
000000
000000
000000
000000
000000
000000
000000
000000
ENDCHAR
STARTCHAR LtSmlEshRevLoop
ENCODING 426
SWIDTH 432 0
DWIDTH 18 0
BBX 18 40 0 -9
BITMAP
000000
000000
000000
000000
000000
000000
000000
070000
0FC000
1FC000
1CE000
1CE000
1FE000
0FE000
07E000
00E000
00E000
00E000
00E000
00E000
00E000
00E000
00E000
00E000
00E000
00E000
00E000
00E000
00E000
00E000
00E000
00E000
00E000
00E000
00F380
007F80
007F80
001F00
000000
000000
ENDCHAR
STARTCHAR LtSmlTLhookL
ENCODING 427
SWIDTH 432 0
DWIDTH 18 0
BBX 18 40 0 -9
BITMAP
000000
000000
000000
000000
000000
000000
000000
000000
004000
00C000
01C000
01C000
01C000
01C000
1FFE00
1FFE00
1FFE00
01C000
01C000
01C000
01C000
01C000
01C000
01C000
01C000
01C000
01C000
01C700
00FF00
00FF00
007F00
000700
000700
000700
00E700
00FE00
00FE00
007C00
000000
000000
ENDCHAR
STARTCHAR LtCapTHook
ENCODING 428
SWIDTH 432 0
DWIDTH 18 0
BBX 18 40 0 -9
BITMAP
000000
000000
000000
000000
000000
000000
000000
000000
0FFF80
1FFF80
3FFF80
387000
387000
3C7000
1C7000
0C7000
007000
007000
007000
007000
007000
007000
007000
007000
007000
007000
007000
007000
007000
007000
007000
000000
000000
000000
000000
000000
000000
000000
000000
000000
ENDCHAR
STARTCHAR LtSmlTHook
ENCODING 429
SWIDTH 432 0
DWIDTH 18 0
BBX 18 40 0 -9
BITMAP
000000
000000
000000
000000
000000
000000
000000
007800
00FC00
01FE00
01CE00
01C000
01C000
01C000
1FFE00
1FFE00
1FFE00
01C000
01C000
01C000
01C000
01C000
01C000
01C000
01C000
01C000
01C000
01C300
00FF00
00FF00
007E00
000000
000000
000000
000000
000000
000000
000000
000000
000000
ENDCHAR
STARTCHAR LtCapTLhook
ENCODING 430
SWIDTH 432 0
DWIDTH 18 0
BBX 18 40 0 -9
BITMAP
000000
000000
000000
000000
000000
000000
000000
000000
3FFF80
3FFF80
3FFF80
00E000
00E000
00E000
00E000
00E000
00E000
00E000
00E000
00E000
00E000
00E000
00E000
00E000
00E000
00E000
00E380
00E380
007F80
007F80
003F00
000000
000000
000000
000000
000000
000000
000000
000000
000000
ENDCHAR
STARTCHAR LtCapUHorn
ENCODING 431
SWIDTH 432 0
DWIDTH 18 0
BBX 18 40 0 -9
BITMAP
000000
000000
000000
000000
000000
000000
000000
0001C0
7039C0
7039C0
7039C0
703FC0
703F80
703F00
703800
703800
703800
703800
703800
703800
703800
703800
703800
703800
703800
703800
703800
387000
3FF000
1FE000
078000
000000
000000
000000
000000
000000
000000
000000
000000
000000
ENDCHAR
STARTCHAR LtSmlUHorn
ENCODING 432
SWIDTH 432 0
DWIDTH 18 0
BBX 18 40 0 -9
BITMAP
000000
000000
000000
000000
000000
000000
000000
000000
000000
000000
000000
000000
000000
0001C0
7039C0
7039C0
7039C0
703FC0
703F80
703F00
703800
703800
703800
703800
703800
703800
707800
78F800
3FF800
3FB800
1F3800
000000
000000
000000
000000
000000
000000
000000
000000
000000
ENDCHAR
STARTCHAR LtCapUps
ENCODING 433
SWIDTH 432 0
DWIDTH 18 0
BBX 18 40 0 -9
BITMAP
000000
000000
000000
000000
000000
000000
000000
000000
3F1F80
3F1F80
3F1F80
071C00
0F1E00
1E0F00
1C0700
1C0700
380380
380380
380380
380380
380380
380380
380380
380380
380380
380380
1C0700
1E0F00
0FFE00
07FC00
01F000
000000
000000
000000
000000
000000
000000
000000
000000
000000
ENDCHAR
STARTCHAR LtCapVHook
ENCODING 434
SWIDTH 432 0
DWIDTH 18 0
BBX 18 40 0 -9
BITMAP
000000
000000
000000
000000
000000
000000
000000
000000
1C7000
1C7800
1C7C00
1C1E00
1C0E00
1C0700
1C0700
1C0700
1C0700
1C0700
1C0700
1C0700
1C0700
1C0700
1C0700
1C0700
1C0E00
1C0E00
1C0E00
0E1C00
0FFC00
07F800
03E000
000000
000000
000000
000000
000000
000000
000000
000000
000000
ENDCHAR
STARTCHAR LtCapYHook
ENCODING 435
SWIDTH 432 0
DWIDTH 18 0
BBX 18 40 0 -9
BITMAP
000000
000000
000000
000000
000000
000000
000000
000000
700F00
701F80
701FC0
3839C0
3839C0
1C71C0
1C7000
1C7000
0EE000
0EE000
07C000
07C000
038000
038000
038000
038000
038000
038000
038000
038000
038000
038000
038000
000000
000000
000000
000000
000000
000000
000000
000000
000000
ENDCHAR
STARTCHAR LtSmlYHook
ENCODING 436
SWIDTH 432 0
DWIDTH 18 0
BBX 18 40 0 -9
BITMAP
000000
000000
000000
000000
000000
000000
000000
000380
0007C0
0007C0
000740
000E00
000E00
000E00
380E00
380E00
1C1C00
1C1C00
1C1C00
0E1C00
0E3800
073800
073800
073800
03B800
03F000
01F000
01F000
01F000
00E000
00E000
00E000
00E000
01C000
39C000
3FC000
3F8000
1F0000
000000
000000
ENDCHAR
STARTCHAR LtCapZStroke
ENCODING 437
SWIDTH 432 0
DWIDTH 18 0
BBX 18 40 0 -9
BITMAP
000000
000000
000000
000000
000000
000000
000000
000000
1FFF00
1FFF00
1FFF00
000E00
000E00
001C00
001C00
003800
003800
007000
0FFE00
0FFE00
0FFE00
01C000
038000
038000
070000
070000
0E0000
0E0000
1FFF00
1FFF00
1FFF00
000000
000000
000000
000000
000000
000000
000000
000000
000000
ENDCHAR
STARTCHAR LtSmlZStroke
ENCODING 438
SWIDTH 432 0
DWIDTH 18 0
BBX 18 40 0 -9
BITMAP
000000
000000
000000
000000
000000
000000
000000
000000
000000
000000
000000
000000
000000
000000
1FFF00
1FFF00
1FFF00
000E00
001C00
003C00
007800
0FFE00
0FFE00
0FFE00
03C000
078000
070000
0E0000
1FFF00
1FFF00
1FFF00
000000
000000
000000
000000
000000
000000
000000
000000
000000
ENDCHAR
STARTCHAR LtCapEzh
ENCODING 439
SWIDTH 432 0
DWIDTH 18 0
BBX 18 40 0 -9
BITMAP
000000
000000
000000
000000
000000
000000
000000
000000
1FFF00
1FFF00
1FFF00
000F00
001E00
003C00
003800
007000
00E000
01F000
01FC00
01FE00
001E00
000F00
000700
000700
000700
000700
1C0F00
1E1E00
0FFE00
0FFC00
03F000
000000
000000
000000
000000
000000
000000
000000
000000
000000
ENDCHAR
STARTCHAR LtCapEzhRev
ENCODING 440
SWIDTH 432 0
DWIDTH 18 0
BBX 18 40 0 -9
BITMAP
000000
000000
000000
000000
000000
000000
000000
000000
1FFF00
1FFF00
1FFF00
1E0000
0F0000
078000
038000
01C000
00E000
01F000
07F000
0FF000
0F0000
1E0000
1C0000
1C0000
1C0000
1C0000
1E0700
0F0F00
0FFE00
07FE00
01F800
000000
000000
000000
000000
000000
000000
000000
000000
000000
ENDCHAR
STARTCHAR LtSmlEzhRev
ENCODING 441
SWIDTH 432 0
DWIDTH 18 0
BBX 18 40 0 -9
BITMAP
000000
000000
000000
000000
000000
000000
000000
000000
000000
000000
000000
000000
000000
000000
1FFF00
1FFF00
1FFF00
1E0000
0F0000
078000
038000
01C000
00E000
01F000
07F000
0FF000
0F0000
1E0000
1C0000
1C0000
1C0000
1C0000
1C0000
1C0700
0E0F00
0FFE00
07FE00
01F800
000000
000000
ENDCHAR
STARTCHAR LtSmlEzhTail
ENCODING 442
SWIDTH 432 0
DWIDTH 18 0
BBX 18 40 0 -9
BITMAP
000000
000000
000000
000000
000000
000000
000000
000000
000000
000000
000000
000000
000000
000000
1FFF00
1FFF00
1FFF00
001E00
003C00
007800
00F000
01FC00
01FE00
000F00
000700
000700
000700
000F00
03FE00
0FFE00
0FF800
1E0000
1C0000
1C0000
1E0700
0FFF00
0FFE00
03FC00
000000
000000
ENDCHAR
STARTCHAR LtSmlTwoStroke
ENCODING 443
SWIDTH 432 0
DWIDTH 18 0
BBX 18 40 0 -9
BITMAP
000000
000000
000000
000000
000000
000000
000000
03F800
0FFE00
0FFE00
1E0F00
1C0700
1C0700
000F00
000F00
001E00
001E00
003C00
07FF00
07FF00
07FF00
01E000
03C000
03C000
078000
0F0000
0F0000
1E0000
1FFF00
1FFF00
1FFF00
000000
000000
000000
000000
000000
000000
000000
000000
000000
ENDCHAR
STARTCHAR LtCapTone5
ENCODING 444
SWIDTH 432 0
DWIDTH 18 0
BBX 18 40 0 -9
BITMAP
000000
000000
000000
000000
000000
000000
000000
000000
1FFE00
1FFE00
1FFE00
070000
070000
070000
070000
07F000
07FC00
07FE00
001E00
000F00
000700
000700
000700
000700
000700
000700
1C0F00
1E1E00
1FFE00
0FFC00
03F000
000000
000000
000000
000000
000000
000000
000000
000000
000000
ENDCHAR
STARTCHAR LtSmlTone5
ENCODING 445
SWIDTH 432 0
DWIDTH 18 0
BBX 18 40 0 -9
BITMAP
000000
000000
000000
000000
000000
000000
000000
000000
000000
000000
000000
000000
000000
000000
1FFE00
1FFE00
1FFE00
070000
070000
07E000
07F800
07FC00
001E00
000E00
000700
000700
1C0700
1E0F00
1FFE00
0FFE00
03F800
000000
000000
000000
000000
000000
000000
000000
000000
000000
ENDCHAR
STARTCHAR LtSmlGlotInvStroke
ENCODING 446
SWIDTH 432 0
DWIDTH 18 0
BBX 18 40 0 -9
BITMAP
000000
000000
000000
000000
000000
000000
000000
00E000
00E000
00E000
00E000
00E000
00E000
07FC00
07FC00
07FC00
00E000
00E000
00F000
007800
003C00
001E00
000E00
000700
1C0700
1C0700
1C0700
1E0F00
0FFE00
0FFE00
03F800
000000
000000
000000
000000
000000
000000
000000
000000
000000
ENDCHAR
STARTCHAR LtSmlWynn
ENCODING 447
SWIDTH 432 0
DWIDTH 18 0
BBX 18 40 0 -9
BITMAP
000000
000000
000000
000000
000000
000000
000000
000000
000000
000000
000000
000000
000000
000000
1CF800
1DFE00
1FFE00
1F0F00
1E0700
1C0700
1C0700
1C0F00
1C0E00
1C1E00
1C3C00
1C7800
1CF000
1CE000
1DC000
1F8000
1F8000
1F0000
1E0000
1E0000
1C0000
1C0000
1C0000
1C0000
000000
000000
ENDCHAR
STARTCHAR LtSmlPipe
ENCODING 448
SWIDTH 432 0
DWIDTH 18 0
BBX 18 40 0 -9
BITMAP
000000
000000
000000
000000
000000
000000
000000
00E000
00E000
00E000
00E000
00E000
00E000
00E000
00E000
00E000
00E000
00E000
00E000
00E000
00E000
00E000
00E000
00E000
00E000
00E000
00E000
00E000
00E000
00E000
00E000
00E000
00E000
00E000
00E000
00E000
00E000
00E000
000000
000000
ENDCHAR
STARTCHAR LtSmlPipe2
ENCODING 449
SWIDTH 432 0
DWIDTH 18 0
BBX 18 40 0 -9
BITMAP
000000
000000
000000
000000
000000
000000
000000
071C00
071C00
071C00
071C00
071C00
071C00
071C00
071C00
071C00
071C00
071C00
071C00
071C00
071C00
071C00
071C00
071C00
071C00
071C00
071C00
071C00
071C00
071C00
071C00
071C00
071C00
071C00
071C00
071C00
071C00
071C00
000000
000000
ENDCHAR
STARTCHAR LtSmlPipeStroke2
ENCODING 450
SWIDTH 432 0
DWIDTH 18 0
BBX 18 40 0 -9
BITMAP
000000
000000
000000
000000
000000
000000
000000
00E000
00E000
00E000
00E000
00E000
00E000
00E000
00E000
00E000
00E000
00E000
0FFE00
0FFE00
0FFE00
00E000
00E000
0FFE00
0FFE00
0FFE00
00E000
00E000
00E000
00E000
00E000
00E000
00E000
00E000
00E000
00E000
00E000
00E000
000000
000000
ENDCHAR
STARTCHAR LtSmlExcl
ENCODING 451
SWIDTH 432 0
DWIDTH 18 0
BBX 18 40 0 -9
BITMAP
000000
000000
000000
000000
000000
000000
000000
00E000
01F000
01F000
01F000
01F000
01F000
01F000
01F000
00E000
00E000
00E000
00E000
00E000
00E000
004000
004000
000000
000000
000000
00E000
01F000
01F000
01F000
00E000
000000
000000
000000
000000
000000
000000
000000
000000
000000
ENDCHAR
STARTCHAR LtCapDZCaron
ENCODING 452
SWIDTH 432 0
DWIDTH 18 0
BBX 18 40 0 -9
BITMAP
000000
000000
007380
007F80
003F00
001E00
000C00
000000
3C3F80
3F3F80
3FBF80
3B8380
39C700
39C700
39C700
39C700
39C700
39CE00
39CE00
39CE00
39CE00
39CE00
39DC00
39DC00
39DC00
39DC00
39DC00
3BB800
3FBF80
3F3F80
3C3F80
000000
000000
000000
000000
000000
000000
000000
000000
000000
ENDCHAR
STARTCHAR LtMixDZCaron
ENCODING 453
SWIDTH 432 0
DWIDTH 18 0
BBX 18 40 0 -9
BITMAP
000000
000000
000000
000000
000000
000000
000000
007380
3C7F80
3F3F00
3F9E00
3B8C00
39C000
39C000
39DF80
39DF80
39DF80
39C380
39C380
39C700
39C700
39C700
39C600
39CE00
39CE00
39CE00
39DC00
3B9C00
3F9F80
3F1F80
3C1F80
000000
000000
000000
000000
000000
000000
000000
000000
000000
ENDCHAR
STARTCHAR LtSmlDZCaron
ENCODING 454
SWIDTH 432 0
DWIDTH 18 0
BBX 18 40 0 -9
BITMAP
000000
000000
000000
000000
000000
000000
003B80
01FF80
01DF00
01CE00
01C400
01C000
01C000
01C000
0DDF80
1FDF80
1FDF80
39C380
39C380
39C700
39C700
39C700
39C600
39CE00
39CE00
39CE00
39DC00
39DC00
1FDF80
1FDF80
0DDF80
000000
000000
000000
000000
000000
000000
000000
000000
000000
ENDCHAR
STARTCHAR LtCapLJ
ENCODING 455
SWIDTH 432 0
DWIDTH 18 0
BBX 18 40 0 -9
BITMAP
000000
000000
000000
000000
000000
000000
000000
000000
3807C0
3807C0
3807C0
380380
380380
380380
380380
380380
380380
380380
380380
380380
380380
380380
380380
387380
387380
387380
387380
387380
3FBF00
3FBF00
3F9E00
000000
000000
000000
000000
000000
000000
000000
000000
000000
ENDCHAR
STARTCHAR LtMixLJ
ENCODING 456
SWIDTH 432 0
DWIDTH 18 0
BBX 18 40 0 -9
BITMAP
000000
000000
000000
000000
000000
000000
000000
000380
3807C0
3807C0
380380
380000
380000
380000
380780
380780
380780
380380
380380
380380
380380
380380
380380
380380
380380
380380
380380
380380
3FE380
3FE380
3FE380
000380
000380
000380
00E780
00FF00
00FF00
007E00
000000
000000
ENDCHAR
STARTCHAR LtSmlLJ
ENCODING 457
SWIDTH 432 0
DWIDTH 18 0
BBX 18 40 0 -9
BITMAP
000000
000000
000000
000000
000000
000000
000000
1E0700
1E0F80
1E0F80
0E0700
0E0000
0E0000
0E0000
0E0F00
0E0F00
0E0F00
0E0700
0E0700
0E0700
0E0700
0E0700
0E0700
0E0700
0E0700
0E0700
0E0700
0E0700
1F0700
1F0700
1F0700
000700
000700
000700
01CF00
01FE00
01FE00
00FC00
000000
000000
ENDCHAR
STARTCHAR LtCapNJ
ENCODING 458
SWIDTH 432 0
DWIDTH 18 0
BBX 18 40 0 -9
BITMAP
000000
000000
000000
000000
000000
000000
000000
000000
39C7C0
39C7C0
39C7C0
39C380
39C380
3DC380
3DC380
3DC380
3DC380
3DC380
3FC380
3FC380
3FC380
3BC380
3BC380
3BDB80
3BDB80
3BDB80
39DB80
39DB80
39DF80
39DF80
39CF00
000000
000000
000000
000000
000000
000000
000000
000000
000000
ENDCHAR
STARTCHAR LtMixNJ
ENCODING 459
SWIDTH 432 0
DWIDTH 18 0
BBX 18 40 0 -9
BITMAP
000000
000000
000000
000000
000000
000000
000000
000380
38E7C0
38E7C0
38E380
38E000
3CE000
3CE000
3CE780
3CE780
3EE780
3EE380
3EE380
3AE380
3BE380
3BE380
3BE380
39E380
39E380
39E380
39E380
38E380
38E380
38E380
38E380
000380
000380
000380
00E780
00FF00
00FF00
007E00
000000
000000
ENDCHAR
STARTCHAR LtSmlNJ
ENCODING 460
SWIDTH 432 0
DWIDTH 18 0
BBX 18 40 0 -9
BITMAP
000000
000000
000000
000000
000000
000000
000000
000380
0007C0
0007C0
000380
000000
000000
000000
3BC780
3FE780
3FE780
3CE380
38E380
38E380
38E380
38E380
38E380
38E380
38E380
38E380
38E380
38E380
38E380
38E380
38E380
000380
000380
000380
00E780
00FF00
00FF00
007E00
000000
000000
ENDCHAR
STARTCHAR LtCapACaron
ENCODING 461
SWIDTH 432 0
DWIDTH 18 0
BBX 18 40 0 -9
BITMAP
000000
000000
071C00
07BC00
03F800
01F000
00E000
000000
00E000
00E000
00E000
01F000
01F000
01F000
03B800
03B800
03B800
071C00
071C00
071C00
0E0E00
0FFE00
0FFE00
1FFF00
1C0700
1C0700
380380
380380
380380
7001C0
7001C0
000000
000000
000000
000000
000000
000000
000000
000000
000000
ENDCHAR
STARTCHAR LtSmlACaron
ENCODING 462
SWIDTH 432 0
DWIDTH 18 0
BBX 18 40 0 -9
BITMAP
000000
000000
000000
000000
000000
000000
071C00
07BC00
03F800
01F000
00E000
000000
000000
000000
07F800
0FFE00
0FFE00
0E0700
000700
000700
01FF00
07FF00
0FFF00
0E0700
1C0700
1C0700
1C0F00
1E1F00
0FFF00
0FF700
03E700
000000
000000
000000
000000
000000
000000
000000
000000
000000
ENDCHAR
STARTCHAR LtCapICaron
ENCODING 463
SWIDTH 432 0
DWIDTH 18 0
BBX 18 40 0 -9
BITMAP
000000
000000
071C00
07BC00
03F800
01F000
00E000
000000
0FFE00
0FFE00
0FFE00
00E000
00E000
00E000
00E000
00E000
00E000
00E000
00E000
00E000
00E000
00E000
00E000
00E000
00E000
00E000
00E000
00E000
0FFE00
0FFE00
0FFE00
000000
000000
000000
000000
000000
000000
000000
000000
000000
ENDCHAR
STARTCHAR LtSmlICaron
ENCODING 464
SWIDTH 432 0
DWIDTH 18 0
BBX 18 40 0 -9
BITMAP
000000
000000
000000
000000
000000
000000
0E3800
0F7800
07F000
03E000
01C000
000000
000000
000000
07E000
07E000
07E000
00E000
00E000
00E000
00E000
00E000
00E000
00E000
00E000
00E000
00E000
00E000
1FFF00
1FFF00
1FFF00
000000
000000
000000
000000
000000
000000
000000
000000
000000
ENDCHAR
STARTCHAR LtCapOCaron
ENCODING 465
SWIDTH 432 0
DWIDTH 18 0
BBX 18 40 0 -9
BITMAP
000000
000000
071C00
07BC00
03F800
01F000
00E000
000000
01E000
07F800
0FFC00
1E1E00
1C0E00
380700
380700
380700
380700
380700
380700
380700
380700
380700
380700
380700
380700
380700
1C0E00
1E1E00
0FFC00
07F800
01E000
000000
000000
000000
000000
000000
000000
000000
000000
000000
ENDCHAR
STARTCHAR LtSmlOCaron
ENCODING 466
SWIDTH 432 0
DWIDTH 18 0
BBX 18 40 0 -9
BITMAP
000000
000000
000000
000000
000000
000000
071C00
07BC00
03F800
01F000
00E000
000000
000000
000000
01F000
07FC00
0FFE00
0E0E00
1E0F00
1C0700
1C0700
1C0700
1C0700
1C0700
1C0700
1C0700
1E0F00
0E0E00
0FFE00
07FC00
01F000
000000
000000
000000
000000
000000
000000
000000
000000
000000
ENDCHAR
STARTCHAR LtCapUCaron
ENCODING 467
SWIDTH 432 0
DWIDTH 18 0
BBX 18 40 0 -9
BITMAP
000000
000000
071C00
07BC00
03F800
01F000
00E000
000000
1C0700
1C0700
1C0700
1C0700
1C0700
1C0700
1C0700
1C0700
1C0700
1C0700
1C0700
1C0700
1C0700
1C0700
1C0700
1C0700
1C0700
1C0700
1C0700
0E0E00
0FFE00
07FC00
01F000
000000
000000
000000
000000
000000
000000
000000
000000
000000
ENDCHAR
STARTCHAR LtSmlUCaron
ENCODING 468
SWIDTH 432 0
DWIDTH 18 0
BBX 18 40 0 -9
BITMAP
000000
000000
000000
000000
000000
000000
071C00
07BC00
03F800
01F000
00E000
000000
000000
000000
1C0700
1C0700
1C0700
1C0700
1C0700
1C0700
1C0700
1C0700
1C0700
1C0700
1C0700
1C0700
1C0F00
1E1F00
0FFF00
0FF700
07E700
000000
000000
000000
000000
000000
000000
000000
000000
000000
ENDCHAR
STARTCHAR LtCapUDrssMacron
ENCODING 469
SWIDTH 432 0
DWIDTH 18 0
BBX 18 40 0 -9
BITMAP
000000
07FE00
07FE00
07FE00
000000
039C00
039C00
039C00
039C00
000000
1C0700
1C0700
1C0700
1C0700
1C0700
1C0700
1C0700
1C0700
1C0700
1C0700
1C0700
1C0700
1C0700
1C0700
1C0700
1C0700
1C0700
0E0E00
0FFE00
07FC00
01F000
000000
000000
000000
000000
000000
000000
000000
000000
000000
ENDCHAR
STARTCHAR LtSmlUDrssMacron
ENCODING 470
SWIDTH 432 0
DWIDTH 18 0
BBX 18 40 0 -9
BITMAP
000000
000000
000000
07FE00
07FE00
07FE00
000000
000000
039C00
039C00
039C00
039C00
000000
000000
1C0700
1C0700
1C0700
1C0700
1C0700
1C0700
1C0700
1C0700
1C0700
1C0700
1C0700
1C0700
1C0F00
1E1F00
0FFF00
0FF700
07E700
000000
000000
000000
000000
000000
000000
000000
000000
000000
ENDCHAR
STARTCHAR LtCapUDrssAcute
ENCODING 471
SWIDTH 432 0
DWIDTH 18 0
BBX 18 40 0 -9
BITMAP
000000
007C00
007800
00F000
0EEE00
0ECE00
0E0E00
0E0E00
000000
000000
1C0700
1C0700
1C0700
1C0700
1C0700
1C0700
1C0700
1C0700
1C0700
1C0700
1C0700
1C0700
1C0700
1C0700
1C0700
1C0700
1C0700
0E0E00
0FFE00
07FC00
01F000
000000
000000
000000
000000
000000
000000
000000
000000
000000
ENDCHAR
STARTCHAR LtSmlUDrssAcute
ENCODING 472
SWIDTH 432 0
DWIDTH 18 0
BBX 18 40 0 -9
BITMAP
000000
000000
007C00
007800
00F000
00E000
01C000
000000
039C00
039C00
039C00
039C00
000000
000000
1C0700
1C0700
1C0700
1C0700
1C0700
1C0700
1C0700
1C0700
1C0700
1C0700
1C0700
1C0700
1C0F00
1E1F00
0FFF00
0FF700
07E700
000000
000000
000000
000000
000000
000000
000000
000000
000000
ENDCHAR
STARTCHAR LtCapUDrssCaron
ENCODING 473
SWIDTH 432 0
DWIDTH 18 0
BBX 18 40 0 -9
BITMAP
000000
03B800
03F800
01F000
0EEE00
0E4E00
0E0E00
0E0E00
000000
000000
1C0700
1C0700
1C0700
1C0700
1C0700
1C0700
1C0700
1C0700
1C0700
1C0700
1C0700
1C0700
1C0700
1C0700
1C0700
1C0700
1C0700
0E0E00
0FFE00
07FC00
01F000
000000
000000
000000
000000
000000
000000
000000
000000
000000
ENDCHAR
STARTCHAR LtSmlUDrssCaron
ENCODING 474
SWIDTH 432 0
DWIDTH 18 0
BBX 18 40 0 -9
BITMAP
000000
000000
071C00
07BC00
03F800
01F000
00E000
000000
039C00
039C00
039C00
039C00
000000
000000
1C0700
1C0700
1C0700
1C0700
1C0700
1C0700
1C0700
1C0700
1C0700
1C0700
1C0700
1C0700
1C0F00
1E1F00
0FFF00
0FF700
07E700
000000
000000
000000
000000
000000
000000
000000
000000
000000
ENDCHAR
STARTCHAR LtCapUDrssGrave
ENCODING 475
SWIDTH 432 0
DWIDTH 18 0
BBX 18 40 0 -9
BITMAP
000000
07C000
03C000
01E000
0EEE00
0E6E00
0E0E00
0E0E00
000000
000000
1C0700
1C0700
1C0700
1C0700
1C0700
1C0700
1C0700
1C0700
1C0700
1C0700
1C0700
1C0700
1C0700
1C0700
1C0700
1C0700
1C0700
0E0E00
0FFE00
07FC00
01F000
000000
000000
000000
000000
000000
000000
000000
000000
000000
ENDCHAR
STARTCHAR LtSmlUDrssGrave
ENCODING 476
SWIDTH 432 0
DWIDTH 18 0
BBX 18 40 0 -9
BITMAP
000000
000000
07C000
03C000
01E000
00E000
007000
000000
039C00
039C00
039C00
039C00
000000
000000
1C0700
1C0700
1C0700
1C0700
1C0700
1C0700
1C0700
1C0700
1C0700
1C0700
1C0700
1C0700
1C0F00
1E1F00
0FFF00
0FF700
07E700
000000
000000
000000
000000
000000
000000
000000
000000
000000
ENDCHAR
STARTCHAR LtSmlSchwaNig
ENCODING 477
SWIDTH 432 0
DWIDTH 18 0
BBX 18 40 0 -9
BITMAP
000000
000000
000000
000000
000000
000000
000000
000000
000000
000000
000000
000000
000000
000000
03E000
0FF800
1FFC00
1E1E00
000E00
000700
000700
000700
1FFF00
1FFF00
1FFF00
1C0700
1C0E00
0E1E00
0FFC00
07F800
01E000
000000
000000
000000
000000
000000
000000
000000
000000
000000
ENDCHAR
STARTCHAR LtCapADrssMacron
ENCODING 478
SWIDTH 432 0
DWIDTH 18 0
BBX 18 40 0 -9
BITMAP
000000
07FE00
07FE00
07FE00
000000
039C00
039C00
039C00
039C00
000000
00E000
00E000
01F000
01F000
03B800
03B800
03B800
071C00
071C00
071C00
0E0E00
0E0E00
0FFE00
1FFF00
1FFF00
1C0700
380380
380380
380380
7001C0
7001C0
000000
000000
000000
000000
000000
000000
000000
000000
000000
ENDCHAR
STARTCHAR LtSmlADrssMacron
ENCODING 479
SWIDTH 432 0
DWIDTH 18 0
BBX 18 40 0 -9
BITMAP
000000
000000
000000
07FE00
07FE00
07FE00
000000
000000
039C00
039C00
039C00
039C00
000000
000000
07F800
0FFE00
0FFE00
0E0700
000700
000700
01FF00
07FF00
0FFF00
0E0700
1C0700
1C0700
1C0F00
1E1F00
0FFF00
0FF700
03E700
000000
000000
000000
000000
000000
000000
000000
000000
000000
ENDCHAR
STARTCHAR LtCapADotMacron
ENCODING 480
SWIDTH 432 0
DWIDTH 18 0
BBX 18 40 0 -9
BITMAP
000000
07FC00
07FC00
07FC00
000000
00E000
01F000
01F000
00E000
000000
00E000
00E000
01F000
01F000
03B800
03B800
03B800
071C00
071C00
071C00
0E0E00
0E0E00
0FFE00
1FFF00
1FFF00
1C0700
380380
380380
380380
7001C0
7001C0
000000
000000
000000
000000
000000
000000
000000
000000
000000
ENDCHAR
STARTCHAR LtSmlADotMacron
ENCODING 481
SWIDTH 432 0
DWIDTH 18 0
BBX 18 40 0 -9
BITMAP
000000
000000
000000
07FC00
07FC00
07FC00
000000
000000
00E000
01F000
01F000
00E000
000000
000000
07F800
0FFE00
0FFE00
0E0700
000700
000700
01FF00
07FF00
0FFF00
0E0700
1C0700
1C0700
1C0F00
1E1F00
0FFF00
0FF700
03E700
000000
000000
000000
000000
000000
000000
000000
000000
000000
ENDCHAR
STARTCHAR LtCapAEMacron
ENCODING 482
SWIDTH 432 0
DWIDTH 18 0
BBX 18 40 0 -9
BITMAP
000000
000000
000000
03FE00
03FE00
03FE00
000000
000000
00FF80
00FF80
01FF80
01F000
01F000
03F000
03F000
037000
077000
077F00
067F00
0E7F00
0E7000
0FF000
1FF000
1FF000
1C7000
387000
387000
387000
707F80
707F80
707F80
000000
000000
000000
000000
000000
000000
000000
000000
000000
ENDCHAR
STARTCHAR LtSmlAEMacron
ENCODING 483
SWIDTH 432 0
DWIDTH 18 0
BBX 18 40 0 -9
BITMAP
000000
000000
000000
000000
000000
000000
000000
000000
07FC00
07FC00
07FC00
000000
000000
000000
1F1E00
3FBF00
3FFF80
31F380
00E380
00E380
03FF80
0FFF80
1FFF80
3CE000
38E000
38E000
38E000
39F180
3FFF80
1F9F80
0F0F00
000000
000000
000000
000000
000000
000000
000000
000000
000000
ENDCHAR
STARTCHAR LtCapGStroke
ENCODING 484
SWIDTH 432 0
DWIDTH 18 0
BBX 18 40 0 -9
BITMAP
000000
000000
000000
000000
000000
000000
000000
000000
00F800
03FE00
07FE00
0F0F00
0E0700
0E0000
1C0000
1C0000
1C0000
1C0000
1C0000
1C3F00
1C3F00
1C3F00
1C0700
1C7F80
1C7F80
0E7F80
0E0700
0F0F00
07FF00
03FF00
00F700
000000
000000
000000
000000
000000
000000
000000
000000
000000
ENDCHAR
STARTCHAR LtSmlGStroke
ENCODING 485
SWIDTH 432 0
DWIDTH 18 0
BBX 18 40 0 -9
BITMAP
000000
000000
000000
000000
000000
000000
000000
000000
000000
000000
000000
000000
000000
000000
03E380
0FFB80
0FFF80
1E1F00
1C0E00
1C0E00
1C0E00
1E1E00
0FFC00
0FFC00
07F000
0E0000
0E0000
0FF800
07FE00
0FFE00
1C0F00
1C7F80
1C7F80
1C7F80
1E0F00
0FFE00
0FFE00
03F800
000000
000000
ENDCHAR
STARTCHAR LtCapGCaron
ENCODING 486
SWIDTH 432 0
DWIDTH 18 0
BBX 18 40 0 -9
BITMAP
000000
000000
038E00
03DE00
01FC00
00F800
007000
000000
00F800
03FE00
07FE00
0F0F00
0E0700
0E0000
1C0000
1C0000
1C0000
1C0000
1C0000
1C3F00
1C3F00
1C3F00
1C0700
1C0700
1C0700
0E0700
0E0700
0F0F00
07FF00
03FF00
00F700
000000
000000
000000
000000
000000
000000
000000
000000
000000
ENDCHAR
STARTCHAR LtSmlGCaron
ENCODING 487
SWIDTH 432 0
DWIDTH 18 0
BBX 18 40 0 -9
BITMAP
000000
000000
000000
000000
000000
000000
071C00
07BC00
03F800
01F000
00E000
000000
000000
000000
03E380
0FFB80
0FFF80
1E1F00
1C0E00
1C0E00
1C0E00
1C0E00
1E1E00
0FFC00
0FFC00
07F000
0E0000
0E0000
07FC00
07FF00
0FFF00
1C0780
1C0380
1C0380
1E0780
0FFF00
0FFF00
03FC00
000000
000000
ENDCHAR
STARTCHAR LtCapKCaron
ENCODING 488
SWIDTH 432 0
DWIDTH 18 0
BBX 18 40 0 -9
BITMAP
000000
000000
071C00
07BC00
03F800
01F000
00E000
000000
1C0700
1C0700
1C0F00
1C0E00
1C1C00
1C3C00
1C3800
1C7000
1CF000
1CE000
1DE000
1FF000
1FF000
1F3800
1E3800
1C1C00
1C1C00
1C1C00
1C0E00
1C0E00
1C0700
1C0700
1C0700
000000
000000
000000
000000
000000
000000
000000
000000
000000
ENDCHAR
STARTCHAR LtSmlKCaron
ENCODING 489
SWIDTH 432 0
DWIDTH 18 0
BBX 18 40 0 -9
BITMAP
000000
000000
038E00
03DE00
01FC00
00F800
007000
1C0000
1C0000
1C0000
1C0000
1C0000
1C0000
1C0000
1C0700
1C0F00
1C1E00
1C3C00
1C7800
1CF000
1DE000
1FE000
1FE000
1FF000
1C7800
1C3800
1C3C00
1C1E00
1C0E00
1C0F00
1C0700
000000
000000
000000
000000
000000
000000
000000
000000
000000
ENDCHAR
STARTCHAR LtCapOOgonek
ENCODING 490
SWIDTH 432 0
DWIDTH 18 0
BBX 18 40 0 -9
BITMAP
000000
000000
000000
000000
000000
000000
000000
000000
01E000
07F800
0FFC00
1E1E00
1C0E00
380700
380700
380700
380700
380700
380700
380700
380700
380700
380700
380700
380700
380700
1C0E00
1E1E00
0FFC00
07F800
01F000
00E000
01C000
038000
038000
03F000
03F000
01F000
000000
000000
ENDCHAR
STARTCHAR LtSmlOOgonek
ENCODING 491
SWIDTH 432 0
DWIDTH 18 0
BBX 18 40 0 -9
BITMAP
000000
000000
000000
000000
000000
000000
000000
000000
000000
000000
000000
000000
000000
000000
01F000
07FC00
0FFE00
0E0E00
1E0F00
1C0700
1C0700
1C0700
1C0700
1C0700
1C0700
1C0700
1E0F00
0E0E00
0FFE00
07FC00
01F800
007000
00E000
01C000
01C000
01F800
01F800
00F800
000000
000000
ENDCHAR
STARTCHAR LtCapOMacronOgonek
ENCODING 492
SWIDTH 432 0
DWIDTH 18 0
BBX 18 40 0 -9
BITMAP
000000
000000
000000
0FFC00
0FFC00
0FFC00
000000
000000
01E000
07F800
0FFC00
1E1E00
1C0E00
380700
380700
380700
380700
380700
380700
380700
380700
380700
380700
380700
380700
380700
1C0E00
1E1E00
0FFC00
07F800
01F000
00E000
01C000
038000
038000
03F000
03F000
01F000
000000
000000
ENDCHAR
STARTCHAR LtSmlOMacronOgonek
ENCODING 493
SWIDTH 432 0
DWIDTH 18 0
BBX 18 40 0 -9
BITMAP
000000
000000
000000
000000
000000
000000
000000
000000
07FC00
07FC00
07FC00
000000
000000
000000
01F000
07FC00
0FFE00
0E0E00
1E0F00
1C0700
1C0700
1C0700
1C0700
1C0700
1C0700
1C0700
1E0F00
0E0E00
0FFE00
07FC00
01F800
007000
00E000
01C000
01C000
01F800
01F800
00F800
000000
000000
ENDCHAR
STARTCHAR LtCapEzhCaron
ENCODING 494
SWIDTH 432 0
DWIDTH 18 0
BBX 18 40 0 -9
BITMAP
000000
000000
071C00
07BC00
03F800
01F000
00E000
000000
1FFF00
1FFF00
1FFF00
000F00
001E00
003C00
003800
007000
00E000
01F000
01FC00
01FE00
001E00
000F00
000700
000700
000700
000700
1C0F00
1E1E00
0FFE00
0FFC00
03F000
000000
000000
000000
000000
000000
000000
000000
000000
000000
ENDCHAR
STARTCHAR LtSmlEzhCaron
ENCODING 495
SWIDTH 432 0
DWIDTH 18 0
BBX 18 40 0 -9
BITMAP
000000
000000
000000
000000
000000
000000
071C00
07BC00
03F800
01F000
00E000
000000
000000
000000
1FFF00
1FFF00
1FFF00
000F00
001E00
003C00
003800
007000
00E000
01F000
01FC00
01FE00
001E00
000F00
000700
000700
000700
000700
000700
1C0700
1E0E00
0FFE00
0FFC00
03F000
000000
000000
ENDCHAR
STARTCHAR LtSmlJCaron
ENCODING 496
SWIDTH 432 0
DWIDTH 18 0
BBX 18 40 0 -9
BITMAP
000000
000000
000000
000000
000000
000000
071C00
07BC00
03F800
01F000
00E000
000000
000000
000000
03F800
03F800
03F800
003800
003800
003800
003800
003800
003800
003800
003800
003800
003800
003800
003800
003800
003800
003800
003800
383800
3C7800
3FF000
1FF000
0FC000
000000
000000
ENDCHAR
STARTCHAR LtCapDZ
ENCODING 497
SWIDTH 432 0
DWIDTH 18 0
BBX 18 40 0 -9
BITMAP
000000
000000
000000
000000
000000
000000
000000
000000
3C3F80
3F3F80
3FBF80
3B8380
39C700
39C700
39C700
39C700
39C700
39CE00
39CE00
39CE00
39CE00
39CE00
39DC00
39DC00
39DC00
39DC00
39DC00
3BB800
3FBF80
3F3F80
3C3F80
000000
000000
000000
000000
000000
000000
000000
000000
000000
ENDCHAR
STARTCHAR LtMixDZ
ENCODING 498
SWIDTH 432 0
DWIDTH 18 0
BBX 18 40 0 -9
BITMAP
000000
000000
000000
000000
000000
000000
000000
000000
3C0000
3F0000
3F8000
3B8000
39C000
39C000
39DF80
39DF80
39DF80
39C380
39C380
39C700
39C700
39C700
39C600
39CE00
39CE00
39CE00
39DC00
3B9C00
3F9F80
3F1F80
3C1F80
000000
000000
000000
000000
000000
000000
000000
000000
000000
ENDCHAR
STARTCHAR LtSmlDZ
ENCODING 499
SWIDTH 432 0
DWIDTH 18 0
BBX 18 40 0 -9
BITMAP
000000
000000
000000
000000
000000
000000
000000
01C000
01C000
01C000
01C000
01C000
01C000
01C000
0DDF80
1FDF80
1FDF80
39C380
39C380
39C700
39C700
39C700
39C600
39CE00
39CE00
39CE00
39DC00
39DC00
1FDF80
1FDF80
0DDF80
000000
000000
000000
000000
000000
000000
000000
000000
000000
ENDCHAR
STARTCHAR LtCapGAcute
ENCODING 500
SWIDTH 432 0
DWIDTH 18 0
BBX 18 40 0 -9
BITMAP
000000
000000
007C00
007800
00F000
00E000
01C000
000000
00F800
03FE00
07FE00
0F0F00
0E0700
0E0000
1C0000
1C0000
1C0000
1C0000
1C0000
1C3F00
1C3F00
1C3F00
1C0700
1C0700
1C0700
0E0700
0E0700
0F0F00
07FF00
03FF00
00F700
000000
000000
000000
000000
000000
000000
000000
000000
000000
ENDCHAR
STARTCHAR LtSmlGAcute
ENCODING 501
SWIDTH 432 0
DWIDTH 18 0
BBX 18 40 0 -9
BITMAP
000000
000000
000000
000000
000000
000000
003E00
003C00
007800
007000
00E000
00C000
000000
000000
03E380
0FFB80
0FFF80
1E1F00
1C0E00
1C0E00
1C0E00
1C0E00
1E1E00
0FFC00
0FFC00
07F000
0E0000
0E0000
07FC00
07FF00
0FFF00
1C0780
1C0380
1C0380
1E0780
0FFF00
0FFF00
03FC00
000000
000000
ENDCHAR
STARTCHAR LtCapHwair
ENCODING 502
SWIDTH 432 0
DWIDTH 18 0
BBX 18 40 0 -9
BITMAP
000000
000000
000000
000000
000000
000000
000000
000000
39C000
39C000
39C000
39C000
39C000
39C000
39C000
39C380
39C380
3FC380
3FC380
3FC380
39C380
39C380
39C380
39C380
39C380
39C380
39C380
39E780
38FF00
38FF00
387E00
000000
000000
000000
000000
000000
000000
000000
000000
000000
ENDCHAR
STARTCHAR LtCapWynn
ENCODING 503
SWIDTH 432 0
DWIDTH 18 0
BBX 18 40 0 -9
BITMAP
000000
000000
000000
000000
000000
000000
000000
000000
1CF800
1DFE00
1FFE00
1F8F00
1F0700
1E0700
1C0700
1C0700
1C0E00
1C1E00
1C3C00
1C7800
1CF000
1DE000
1FC000
1F8000
1F0000
1E0000
1E0000
1C0000
1C0000
1C0000
1C0000
000000
000000
000000
000000
000000
000000
000000
000000
000000
ENDCHAR
STARTCHAR LtCapNGrave
ENCODING 504
SWIDTH 432 0
DWIDTH 18 0
BBX 18 40 0 -9
BITMAP
000000
000000
07C000
03C000
01E000
00E000
007000
000000
1C0700
1C0700
1E0700
1E0700
1F0700
1F0700
1F8700
1F8700
1DC700
1DC700
1CC700
1CE700
1C6700
1C7700
1C7700
1C3F00
1C3F00
1C1F00
1C1F00
1C0F00
1C0F00
1C0700
1C0700
000000
000000
000000
000000
000000
000000
000000
000000
000000
ENDCHAR
STARTCHAR LtSmlNGrave
ENCODING 505
SWIDTH 432 0
DWIDTH 18 0
BBX 18 40 0 -9
BITMAP
000000
000000
000000
000000
000000
000000
0F8000
078000
03C000
01C000
00E000
006000
000000
000000
1CF800
1DFE00
1FFE00
1F0F00
1E0700
1C0700
1C0700
1C0700
1C0700
1C0700
1C0700
1C0700
1C0700
1C0700
1C0700
1C0700
1C0700
000000
000000
000000
000000
000000
000000
000000
000000
000000
ENDCHAR
STARTCHAR LtCapARingAcute
ENCODING 506
SWIDTH 432 0
DWIDTH 18 0
BBX 18 40 0 -9
BITMAP
000000
001F00
007C00
01F000
000000
01F000
03F800
071C00
071C00
03F800
01F000
00E000
00E000
00E000
01F000
01F000
03B800
03B800
03B800
071C00
071C00
0E0E00
0FFE00
0FFE00
1FFF00
1C0700
380380
380380
380380
7001C0
7001C0
000000
000000
000000
000000
000000
000000
000000
000000
000000
ENDCHAR
STARTCHAR LtSmlARingAcute
ENCODING 507
SWIDTH 432 0
DWIDTH 18 0
BBX 18 40 0 -9
BITMAP
000000
003F00
007C00
00F000
01C000
000000
01F000
03F800
071C00
071C00
03F800
01F000
000000
000000
07F800
0FFE00
0FFE00
0E0700
000700
000700
01FF00
07FF00
0FFF00
0E0700
1C0700
1C0700
1C0F00
1E1F00
0FFF00
0FF700
03E700
000000
000000
000000
000000
000000
000000
000000
000000
000000
ENDCHAR
STARTCHAR LtCapAEAcute
ENCODING 508
SWIDTH 432 0
DWIDTH 18 0
BBX 18 40 0 -9
BITMAP
000000
000000
001F00
001E00
003C00
003800
007000
000000
00FF80
00FF80
01FF80
01F000
01F000
03F000
03F000
037000
077000
077F00
067F00
0E7F00
0E7000
0FF000
1FF000
1FF000
1C7000
387000
387000
387000
707F80
707F80
707F80
000000
000000
000000
000000
000000
000000
000000
000000
000000
ENDCHAR
STARTCHAR LtSmlAEAcute
ENCODING 509
SWIDTH 432 0
DWIDTH 18 0
BBX 18 40 0 -9
BITMAP
000000
000000
000000
000000
000000
000000
003E00
003C00
007800
007000
00E000
00C000
000000
000000
1F1E00
3FBF00
3FFF80
31F380
00E380
00E380
03FF80
0FFF80
1FFF80
3CE000
38E000
38E000
38E000
39F180
3FFF80
1F9F80
0F0F00
000000
000000
000000
000000
000000
000000
000000
000000
000000
ENDCHAR
STARTCHAR LtCapOStrokeAcute
ENCODING 510
SWIDTH 432 0
DWIDTH 18 0
BBX 18 40 0 -9
BITMAP
000000
000000
007C00
007800
00F000
00E000
01CE00
000E00
01EE00
07FC00
0FFC00
1E1E00
1C3E00
383700
383700
387700
386700
386700
38E700
38C700
39C700
398700
398700
3B8700
3B0700
3B0700
1F0E00
1E1E00
0FFC00
0FF800
1DE000
1C0000
1C0000
000000
000000
000000
000000
000000
000000
000000
ENDCHAR
STARTCHAR LtSmlOStrokeAcute
ENCODING 511
SWIDTH 432 0
DWIDTH 18 0
BBX 18 40 0 -9
BITMAP
000000
000000
000000
000000
000000
000000
003E00
003C00
007800
007000
00E000
00C000
000300
000300
01F700
07FE00
0FFE00
0E1E00
1E3F00
1C3700
1C7700
1C6700
1CE700
1CC700
1DC700
1D8700
1F8F00
0F0E00
0FFE00
0FFC00
1DF000
180000
180000
000000
000000
000000
000000
000000
000000
000000
ENDCHAR
STARTCHAR LtCapAGrave2
ENCODING 512
SWIDTH 432 0
DWIDTH 18 0
BBX 18 40 0 -9
BITMAP
000000
000000
1EF000
0F7800
073800
039C00
01CE00
000000
00E000
00E000
00E000
01F000
01F000
01F000
03B800
03B800
03B800
071C00
071C00
071C00
0E0E00
0FFE00
0FFE00
1FFF00
1C0700
1C0700
380380
380380
380380
7001C0
7001C0
000000
000000
000000
000000
000000
000000
000000
000000
000000
ENDCHAR
STARTCHAR LtSmlAGrave2
ENCODING 513
SWIDTH 432 0
DWIDTH 18 0
BBX 18 40 0 -9
BITMAP
000000
000000
000000
000000
000000
000000
1EF000
1EF000
0F7800
073800
039C00
018C00
000000
000000
07F800
0FFE00
0FFE00
0E0700
000700
000700
01FF00
07FF00
0FFF00
0E0700
1C0700
1C0700
1C0F00
1E1F00
0FFF00
0FF700
03E700
000000
000000
000000
000000
000000
000000
000000
000000
000000
ENDCHAR
STARTCHAR LtCapAInvbreve
ENCODING 514
SWIDTH 432 0
DWIDTH 18 0
BBX 18 40 0 -9
BITMAP
000000
000000
00E000
03F800
03F800
071C00
071C00
000000
00E000
00E000
00E000
01F000
01F000
01F000
03B800
03B800
03B800
071C00
071C00
071C00
0E0E00
0FFE00
0FFE00
1FFF00
1C0700
1C0700
380380
380380
380380
7001C0
7001C0
000000
000000
000000
000000
000000
000000
000000
000000
000000
ENDCHAR
STARTCHAR LtSmlAInvbreve
ENCODING 515
SWIDTH 432 0
DWIDTH 18 0
BBX 18 40 0 -9
BITMAP
000000
000000
000000
000000
000000
000000
01F000
03F800
07FC00
071C00
071C00
000000
000000
000000
07F800
0FFE00
0FFE00
0E0700
000700
000700
01FF00
07FF00
0FFF00
0E0700
1C0700
1C0700
1C0F00
1E1F00
0FFF00
0FF700
03E700
000000
000000
000000
000000
000000
000000
000000
000000
000000
ENDCHAR
STARTCHAR LtCapEGrave2
ENCODING 516
SWIDTH 432 0
DWIDTH 18 0
BBX 18 40 0 -9
BITMAP
000000
000000
3DE000
1EF000
0E7000
073800
039C00
000000
1FFF00
1FFF00
1FFF00
1C0000
1C0000
1C0000
1C0000
1C0000
1C0000
1FFC00
1FFC00
1FFC00
1C0000
1C0000
1C0000
1C0000
1C0000
1C0000
1C0000
1C0000
1FFF00
1FFF00
1FFF00
000000
000000
000000
000000
000000
000000
000000
000000
000000
ENDCHAR
STARTCHAR LtSmlEGrave2
ENCODING 517
SWIDTH 432 0
DWIDTH 18 0
BBX 18 40 0 -9
BITMAP
000000
000000
000000
000000
000000
000000
1EF000
1EF000
0F7800
073800
039C00
018C00
000000
000000
00F000
03FC00
07FE00
0F0E00
0E0700
1C0700
1FFF00
1FFF00
1FFF00
1C0000
1C0000
1C0000
0E0000
0F0F00
07FF00
03FE00
00F800
000000
000000
000000
000000
000000
000000
000000
000000
000000
ENDCHAR
STARTCHAR LtCapEInvbreve
ENCODING 518
SWIDTH 432 0
DWIDTH 18 0
BBX 18 40 0 -9
BITMAP
000000
000000
00E000
03F800
03F800
071C00
071C00
000000
1FFF00
1FFF00
1FFF00
1C0000
1C0000
1C0000
1C0000
1C0000
1C0000
1FFC00
1FFC00
1FFC00
1C0000
1C0000
1C0000
1C0000
1C0000
1C0000
1C0000
1C0000
1FFF00
1FFF00
1FFF00
000000
000000
000000
000000
000000
000000
000000
000000
000000
ENDCHAR
STARTCHAR LtSmlEInvbreve
ENCODING 519
SWIDTH 432 0
DWIDTH 18 0
BBX 18 40 0 -9
BITMAP
000000
000000
000000
000000
000000
000000
00F800
01FC00
03FE00
038E00
038E00
000000
000000
000000
00F000
03FC00
07FE00
0F0E00
0E0700
1C0700
1FFF00
1FFF00
1FFF00
1C0000
1C0000
1C0000
0E0000
0F0F00
07FF00
03FE00
00F800
000000
000000
000000
000000
000000
000000
000000
000000
000000
ENDCHAR
STARTCHAR LtCapIGrave2
ENCODING 520
SWIDTH 432 0
DWIDTH 18 0
BBX 18 40 0 -9
BITMAP
000000
000000
3DE000
1EF000
0E7000
073800
039C00
000000
0FFE00
0FFE00
0FFE00
00E000
00E000
00E000
00E000
00E000
00E000
00E000
00E000
00E000
00E000
00E000
00E000
00E000
00E000
00E000
00E000
00E000
0FFE00
0FFE00
0FFE00
000000
000000
000000
000000
000000
000000
000000
000000
000000
ENDCHAR
STARTCHAR LtSmlIGrave2
ENCODING 521
SWIDTH 432 0
DWIDTH 18 0
BBX 18 40 0 -9
BITMAP
000000
000000
000000
000000
000000
000000
3DE000
3DE000
1EF000
0E7000
073800
031800
000000
000000
07E000
07E000
07E000
00E000
00E000
00E000
00E000
00E000
00E000
00E000
00E000
00E000
00E000
00E000
1FFF00
1FFF00
1FFF00
000000
000000
000000
000000
000000
000000
000000
000000
000000
ENDCHAR
STARTCHAR LtCapIInvbreve
ENCODING 522
SWIDTH 432 0
DWIDTH 18 0
BBX 18 40 0 -9
BITMAP
000000
000000
00E000
03F800
03F800
071C00
071C00
000000
0FFE00
0FFE00
0FFE00
00E000
00E000
00E000
00E000
00E000
00E000
00E000
00E000
00E000
00E000
00E000
00E000
00E000
00E000
00E000
00E000
00E000
0FFE00
0FFE00
0FFE00
000000
000000
000000
000000
000000
000000
000000
000000
000000
ENDCHAR
STARTCHAR LtSmlIInvbreve
ENCODING 523
SWIDTH 432 0
DWIDTH 18 0
BBX 18 40 0 -9
BITMAP
000000
000000
000000
000000
000000
000000
03E000
07F000
0FF800
0E3800
0E3800
000000
000000
000000
07E000
07E000
07E000
00E000
00E000
00E000
00E000
00E000
00E000
00E000
00E000
00E000
00E000
00E000
1FFF00
1FFF00
1FFF00
000000
000000
000000
000000
000000
000000
000000
000000
000000
ENDCHAR
STARTCHAR LtCapOGrave2
ENCODING 524
SWIDTH 432 0
DWIDTH 18 0
BBX 18 40 0 -9
BITMAP
000000
000000
7BC000
3DE000
1CE000
0E7000
073800
000000
01E000
07F800
0FFC00
1E1E00
1C0E00
380700
380700
380700
380700
380700
380700
380700
380700
380700
380700
380700
380700
380700
1C0E00
1E1E00
0FFC00
07F800
01E000
000000
000000
000000
000000
000000
000000
000000
000000
000000
ENDCHAR
STARTCHAR LtSmlOGrave2
ENCODING 525
SWIDTH 432 0
DWIDTH 18 0
BBX 18 40 0 -9
BITMAP
000000
000000
000000
000000
000000
000000
3DE000
3DE000
1EF000
0E7000
073800
031800
000000
000000
01F000
07FC00
0FFE00
0E0E00
1E0F00
1C0700
1C0700
1C0700
1C0700
1C0700
1C0700
1C0700
1E0F00
0E0E00
0FFE00
07FC00
01F000
000000
000000
000000
000000
000000
000000
000000
000000
000000
ENDCHAR
STARTCHAR LtCapOInvbreve
ENCODING 526
SWIDTH 432 0
DWIDTH 18 0
BBX 18 40 0 -9
BITMAP
000000
000000
00E000
03F800
03F800
071C00
071C00
000000
01E000
07F800
0FFC00
1E1E00
1C0E00
380700
380700
380700
380700
380700
380700
380700
380700
380700
380700
380700
380700
380700
1C0E00
1E1E00
0FFC00
07F800
01E000
000000
000000
000000
000000
000000
000000
000000
000000
000000
ENDCHAR
STARTCHAR LtSmlOInvbreve
ENCODING 527
SWIDTH 432 0
DWIDTH 18 0
BBX 18 40 0 -9
BITMAP
000000
000000
000000
000000
000000
000000
01F000
03F800
07FC00
071C00
071C00
000000
000000
000000
01F000
07FC00
0FFE00
0E0E00
1E0F00
1C0700
1C0700
1C0700
1C0700
1C0700
1C0700
1C0700
1E0F00
0E0E00
0FFE00
07FC00
01F000
000000
000000
000000
000000
000000
000000
000000
000000
000000
ENDCHAR
STARTCHAR LtCapRGrave2
ENCODING 528
SWIDTH 432 0
DWIDTH 18 0
BBX 18 40 0 -9
BITMAP
000000
000000
3DE000
1EF000
0E7000
073800
039C00
000000
1FE000
1FF800
1FFC00
1C1C00
1C0E00
1C0E00
1C0E00
1C0E00
1C0E00
1C1C00
1FFC00
1FF800
1FF000
1C7000
1C7800
1C3800
1C3C00
1C1C00
1C1E00
1C0E00
1C0F00
1C0700
1C0780
000000
000000
000000
000000
000000
000000
000000
000000
000000
ENDCHAR
STARTCHAR LtSmlRGrave2
ENCODING 529
SWIDTH 432 0
DWIDTH 18 0
BBX 18 40 0 -9
BITMAP
000000
000000
000000
000000
000000
000000
1EF000
1EF000
0F7800
073800
039C00
018C00
000000
000000
1E7C00
1EFE00
1FFF00
0F8F00
0F0700
0E0000
0E0000
0E0000
0E0000
0E0000
0E0000
0E0000
0E0000
0E0000
0E0000
0E0000
0E0000
000000
000000
000000
000000
000000
000000
000000
000000
000000
ENDCHAR
STARTCHAR LtCapRInvbreve
ENCODING 530
SWIDTH 432 0
DWIDTH 18 0
BBX 18 40 0 -9
BITMAP
000000
000000
01C000
07F000
07F000
0E3800
0E3800
000000
1FE000
1FF800
1FFC00
1C1C00
1C0E00
1C0E00
1C0E00
1C0E00
1C0E00
1C1C00
1FFC00
1FF800
1FF000
1C7000
1C7800
1C3800
1C3C00
1C1C00
1C1E00
1C0E00
1C0F00
1C0700
1C0780
000000
000000
000000
000000
000000
000000
000000
000000
000000
ENDCHAR
STARTCHAR LtSmlRInvbreve
ENCODING 531
SWIDTH 432 0
DWIDTH 18 0
BBX 18 40 0 -9
BITMAP
000000
000000
000000
000000
000000
000000
01F000
03F800
07FC00
071C00
071C00
000000
000000
000000
1E7C00
1EFE00
1FFF00
0F8F00
0F0700
0E0000
0E0000
0E0000
0E0000
0E0000
0E0000
0E0000
0E0000
0E0000
0E0000
0E0000
0E0000
000000
000000
000000
000000
000000
000000
000000
000000
000000
ENDCHAR
STARTCHAR LtCapUGrave2
ENCODING 532
SWIDTH 432 0
DWIDTH 18 0
BBX 18 40 0 -9
BITMAP
000000
000000
3DE000
1EF000
0E7000
073800
039C00
000000
1C0700
1C0700
1C0700
1C0700
1C0700
1C0700
1C0700
1C0700
1C0700
1C0700
1C0700
1C0700
1C0700
1C0700
1C0700
1C0700
1C0700
1C0700
1C0700
0E0E00
0FFE00
07FC00
01F000
000000
000000
000000
000000
000000
000000
000000
000000
000000
ENDCHAR
STARTCHAR LtSmlUGrave2
ENCODING 533
SWIDTH 432 0
DWIDTH 18 0
BBX 18 40 0 -9
BITMAP
000000
000000
000000
000000
000000
000000
3DE000
3DE000
1EF000
0E7000
073800
031800
000000
000000
1C0700
1C0700
1C0700
1C0700
1C0700
1C0700
1C0700
1C0700
1C0700
1C0700
1C0700
1C0700
1C0F00
1E1F00
0FFF00
0FF700
07E700
000000
000000
000000
000000
000000
000000
000000
000000
000000
ENDCHAR
STARTCHAR LtCapUInvbreve
ENCODING 534
SWIDTH 432 0
DWIDTH 18 0
BBX 18 40 0 -9
BITMAP
000000
000000
00E000
03F800
03F800
071C00
071C00
000000
1C0700
1C0700
1C0700
1C0700
1C0700
1C0700
1C0700
1C0700
1C0700
1C0700
1C0700
1C0700
1C0700
1C0700
1C0700
1C0700
1C0700
1C0700
1C0700
0E0E00
0FFE00
07FC00
01F000
000000
000000
000000
000000
000000
000000
000000
000000
000000
ENDCHAR
STARTCHAR LtSmlUInvbreve
ENCODING 535
SWIDTH 432 0
DWIDTH 18 0
BBX 18 40 0 -9
BITMAP
000000
000000
000000
000000
000000
000000
01F000
03F800
07FC00
071C00
071C00
000000
000000
000000
1C0700
1C0700
1C0700
1C0700
1C0700
1C0700
1C0700
1C0700
1C0700
1C0700
1C0700
1C0700
1C0F00
1E1F00
0FFF00
0FF700
07E700
000000
000000
000000
000000
000000
000000
000000
000000
000000
ENDCHAR
STARTCHAR LtCapSComma
ENCODING 536
SWIDTH 432 0
DWIDTH 18 0
BBX 18 40 0 -9
BITMAP
000000
000000
000000
000000
000000
000000
000000
000000
03F800
07FE00
0FFE00
0E0F00
1C0700
1C0000
1C0000
0E0000
0F0000
07C000
03F000
01F800
007C00
001E00
000E00
000700
000700
000700
1C0700
1E0E00
0FFE00
0FFC00
03F800
000000
006000
00F000
00F000
007000
007000
01E000
01C000
000000
ENDCHAR
STARTCHAR LtSmlSComma
ENCODING 537
SWIDTH 432 0
DWIDTH 18 0
BBX 18 40 0 -9
BITMAP
000000
000000
000000
000000
000000
000000
000000
000000
000000
000000
000000
000000
000000
000000
03F800
0FFE00
0FFF00
1E0F00
1C0700
1C0000
0F0000
0FF000
07FC00
01FE00
001E00
000700
1C0700
1E0F00
1FFE00
0FFE00
03F800
000000
006000
00F000
00F000
007000
007000
01E000
01C000
000000
ENDCHAR
STARTCHAR LtCapTComma
ENCODING 538
SWIDTH 432 0
DWIDTH 18 0
BBX 18 40 0 -9
BITMAP
000000
000000
000000
000000
000000
000000
000000
000000
3FFF80
3FFF80
3FFF80
00E000
00E000
00E000
00E000
00E000
00E000
00E000
00E000
00E000
00E000
00E000
00E000
00E000
00E000
00E000
00E000
00E000
00E000
00E000
00E000
000000
006000
00F000
00F000
007000
007000
01E000
01C000
000000
ENDCHAR
STARTCHAR LtSmlTComma
ENCODING 539
SWIDTH 432 0
DWIDTH 18 0
BBX 18 40 0 -9
BITMAP
000000
000000
000000
000000
000000
000000
000000
000000
004000
00C000
01C000
01C000
01C000
01C000
1FFE00
1FFE00
1FFE00
01C000
01C000
01C000
01C000
01C000
01C000
01C000
01C000
01C000
01C000
01C300
00FF00
00FF00
007E00
000000
001800
003C00
003C00
001C00
001C00
007800
007000
000000
ENDCHAR
STARTCHAR LtCapYogh
ENCODING 540
SWIDTH 432 0
DWIDTH 18 0
BBX 18 40 0 -9
BITMAP
000000
000000
000000
000000
000000
000000
000000
000000
03F800
0FFE00
0FFE00
1E0700
1C0700
000F00
001E00
003C00
00F800
03FC00
07FE00
078E00
060700
000700
000700
000F00
003E00
007C00
01F800
07F000
1FC000
1F0000
1C0000
000000
000000
000000
000000
000000
000000
000000
000000
000000
ENDCHAR
STARTCHAR LtSmlYogh
ENCODING 541
SWIDTH 432 0
DWIDTH 18 0
BBX 18 40 0 -9
BITMAP
000000
000000
000000
000000
000000
000000
000000
000000
000000
000000
000000
000000
000000
000000
03F800
0FFE00
0FFE00
1E0700
1C0700
000F00
000F00
003E00
00FC00
03FE00
07EF00
078700
060700
000700
000700
000E00
001E00
007C00
01F800
03F000
07C000
0F0000
1E0000
1C0000
000000
000000
ENDCHAR
STARTCHAR LtCapHCaron
ENCODING 542
SWIDTH 432 0
DWIDTH 18 0
BBX 18 40 0 -9
BITMAP
000000
000000
071C00
07BC00
03F800
01F000
00E000
000000
1C0700
1C0700
1C0700
1C0700
1C0700
1C0700
1C0700
1C0700
1C0700
1FFF00
1FFF00
1FFF00
1C0700
1C0700
1C0700
1C0700
1C0700
1C0700
1C0700
1C0700
1C0700
1C0700
1C0700
000000
000000
000000
000000
000000
000000
000000
000000
000000
ENDCHAR
STARTCHAR LtSmlHCaron
ENCODING 543
SWIDTH 432 0
DWIDTH 18 0
BBX 18 40 0 -9
BITMAP
000000
000000
038E00
03DE00
01FC00
00F800
007000
1C0000
1C0000
1C0000
1C0000
1C0000
1C0000
1C0000
1CF800
1DFE00
1FFE00
1F0F00
1E0700
1C0700
1C0700
1C0700
1C0700
1C0700
1C0700
1C0700
1C0700
1C0700
1C0700
1C0700
1C0700
000000
000000
000000
000000
000000
000000
000000
000000
000000
ENDCHAR
STARTCHAR LtCapNLongleg
ENCODING 544
SWIDTH 432 0
DWIDTH 18 0
BBX 18 40 0 -9
BITMAP
000000
000000
000000
000000
000000
000000
000000
000000
1CF800
1DFC00
1FFE00
1F0E00
1E0700
1C0700
1C0700
1C0700
1C0700
1C0700
1C0700
1C0700
1C0700
1C0700
1C0700
1C0700
1C0700
1C0700
1C0700
1C0700
1C0700
1C0700
1C0700
000700
000700
000700
000700
000700
000700
000700
000000
000000
ENDCHAR
STARTCHAR LtSmlDCurl
ENCODING 545
SWIDTH 432 0
DWIDTH 18 0
BBX 18 40 0 -9
BITMAP
000000
000000
000000
000000
000000
000000
000000
007000
007000
007000
007000
007000
007000
007000
0E7000
1F7000
3FF000
39F000
70F000
707000
707000
707000
707000
707000
707380
7077C0
70F6C0
39F6C0
3FFFC0
1FBF80
0F1F00
001800
001800
000000
000000
000000
000000
000000
000000
000000
ENDCHAR
STARTCHAR LtCapOu
ENCODING 546
SWIDTH 432 0
DWIDTH 18 0
BBX 18 40 0 -9
BITMAP
000000
000000
000000
000000
000000
000000
000000
000000
0E0E00
1E0F00
1C0700
1C0700
1C0700
0E0E00
0E0E00
071C00
03B800
01F000
01F000
03F800
07BC00
0F1E00
0E0E00
1C0700
1C0700
1C0700
1C0700
1E0F00
0FFE00
0FFE00
03F800
000000
000000
000000
000000
000000
000000
000000
000000
000000
ENDCHAR
STARTCHAR LtSmlOu
ENCODING 547
SWIDTH 432 0
DWIDTH 18 0
BBX 18 40 0 -9
BITMAP
000000
000000
000000
000000
000000
000000
000000
0E0E00
1E0F00
1C0700
1C0700
1C0700
0E0E00
0E0E00
071C00
03B800
03F800
01F000
01F000
03F800
07BC00
071C00
0E0E00
0E0E00
1C0700
1C0700
1C0700
0E0E00
0FFE00
07FC00
03F800
000000
000000
000000
000000
000000
000000
000000
000000
000000
ENDCHAR
STARTCHAR LtCapZLhookL
ENCODING 548
SWIDTH 432 0
DWIDTH 18 0
BBX 18 40 0 -9
BITMAP
000000
000000
000000
000000
000000
000000
000000
000000
1FFF00
1FFF00
1FFF00
000E00
000E00
001C00
001C00
003800
003800
007000
00F000
00E000
01E000
01C000
038000
038000
070000
070000
0E0000
0E0000
1FFE00
1FFF00
1FFF80
000380
000380
000F80
000F00
000E00
000000
000000
000000
000000
ENDCHAR
STARTCHAR LtSmlZLhookL
ENCODING 549
SWIDTH 432 0
DWIDTH 18 0
BBX 18 40 0 -9
BITMAP
000000
000000
000000
000000
000000
000000
000000
000000
000000
000000
000000
000000
000000
000000
1FFF00
1FFF00
1FFF00
000E00
001C00
003C00
007800
00F000
00E000
01E000
03C000
078000
070000
0E0000
1FFC00
1FFF00
1FFF80
000380
000380
000F80
000F80
000F00
000000
000000
000000
000000
ENDCHAR
STARTCHAR LtCapADot
ENCODING 550
SWIDTH 432 0
DWIDTH 18 0
BBX 18 40 0 -9
BITMAP
000000
000000
00E000
01F000
01F000
00E000
000000
000000
00E000
00E000
00E000
01F000
01F000
01F000
03B800
03B800
03B800
071C00
071C00
071C00
0E0E00
0FFE00
0FFE00
1FFF00
1C0700
1C0700
380380
380380
380380
7001C0
7001C0
000000
000000
000000
000000
000000
000000
000000
000000
000000
ENDCHAR
STARTCHAR LtSmlADot
ENCODING 551
SWIDTH 432 0
DWIDTH 18 0
BBX 18 40 0 -9
BITMAP
000000
000000
000000
000000
000000
000000
000000
00E000
01F000
01F000
00E000
000000
000000
000000
07F800
0FFE00
0FFE00
0E0700
000700
000700
01FF00
07FF00
0FFF00
0E0700
1C0700
1C0700
1C0F00
1E1F00
0FFF00
0FF700
03E700
000000
000000
000000
000000
000000
000000
000000
000000
000000
ENDCHAR
STARTCHAR LtCapECedilla
ENCODING 552
SWIDTH 432 0
DWIDTH 18 0
BBX 18 40 0 -9
BITMAP
000000
000000
000000
000000
000000
000000
000000
000000
1FFF00
1FFF00
1FFF00
1C0000
1C0000
1C0000
1C0000
1C0000
1C0000
1FFC00
1FFC00
1FFC00
1C0000
1C0000
1C0000
1C0000
1C0000
1C0000
1C0000
1C0000
1FFF00
1FFF00
1FFF00
006000
00E000
007000
003800
03F800
03F800
03F000
000000
000000
ENDCHAR
STARTCHAR LtSmlECedilla
ENCODING 553
SWIDTH 432 0
DWIDTH 18 0
BBX 18 40 0 -9
BITMAP
000000
000000
000000
000000
000000
000000
000000
000000
000000
000000
000000
000000
000000
000000
00F000
03FC00
07FE00
0F0E00
0E0700
1C0700
1FFF00
1FFF00
1FFF00
1C0000
1C0000
1C0000
0E0000
0F0F00
07FF00
03FE00
00F800
006000
00E000
007000
003800
03F800
03F800
03F000
000000
000000
ENDCHAR
STARTCHAR LtCapODrssMacron
ENCODING 554
SWIDTH 432 0
DWIDTH 18 0
BBX 18 40 0 -9
BITMAP
000000
0FFC00
0FFC00
0FFC00
000000
073800
073800
073800
073800
000000
01E000
07F800
0FFC00
1E1E00
1C0E00
380700
380700
380700
380700
380700
380700
380700
380700
380700
380700
380700
1C0E00
1E1E00
0FFC00
07F800
01E000
000000
000000
000000
000000
000000
000000
000000
000000
000000
ENDCHAR
STARTCHAR LtSmlODrssMacron
ENCODING 555
SWIDTH 432 0
DWIDTH 18 0
BBX 18 40 0 -9
BITMAP
000000
000000
000000
07FE00
07FE00
07FE00
000000
000000
039C00
039C00
039C00
039C00
000000
000000
01F000
07FC00
0FFE00
0E0E00
1E0F00
1C0700
1C0700
1C0700
1C0700
1C0700
1C0700
1C0700
1E0F00
0E0E00
0FFE00
07FC00
01F000
000000
000000
000000
000000
000000
000000
000000
000000
000000
ENDCHAR
STARTCHAR LtCapOTildeMacron
ENCODING 556
SWIDTH 432 0
DWIDTH 18 0
BBX 18 40 0 -9
BITMAP
000000
0FFC00
0FFC00
0FFC00
000000
079C00
0FFC00
0E7800
000000
01E000
07F800
0FFC00
1E1E00
1C0E00
380700
380700
380700
380700
380700
380700
380700
380700
380700
380700
380700
380700
1C0E00
1E1E00
0FFC00
07F800
01E000
000000
000000
000000
000000
000000
000000
000000
000000
000000
ENDCHAR
STARTCHAR LtSmlOTildeMacron
ENCODING 557
SWIDTH 432 0
DWIDTH 18 0
BBX 18 40 0 -9
BITMAP
000000
000000
0FFC00
0FFC00
0FFC00
000000
000000
038C00
07DC00
0FFC00
0EF800
0C7000
000000
000000
01F000
07FC00
0FFE00
0E0E00
1E0F00
1C0700
1C0700
1C0700
1C0700
1C0700
1C0700
1C0700
1E0F00
0E0E00
0FFE00
07FC00
01F000
000000
000000
000000
000000
000000
000000
000000
000000
000000
ENDCHAR
STARTCHAR LtCapODot
ENCODING 558
SWIDTH 432 0
DWIDTH 18 0
BBX 18 40 0 -9
BITMAP
000000
000000
00E000
01F000
01F000
00E000
000000
000000
01E000
07F800
0FFC00
1E1E00
1C0E00
380700
380700
380700
380700
380700
380700
380700
380700
380700
380700
380700
380700
380700
1C0E00
1E1E00
0FFC00
07F800
01E000
000000
000000
000000
000000
000000
000000
000000
000000
000000
ENDCHAR
STARTCHAR LtSmlODot
ENCODING 559
SWIDTH 432 0
DWIDTH 18 0
BBX 18 40 0 -9
BITMAP
000000
000000
000000
000000
000000
000000
000000
00E000
01F000
01F000
00E000
000000
000000
000000
01F000
07FC00
0FFE00
0E0E00
1E0F00
1C0700
1C0700
1C0700
1C0700
1C0700
1C0700
1C0700
1E0F00
0E0E00
0FFE00
07FC00
01F000
000000
000000
000000
000000
000000
000000
000000
000000
000000
ENDCHAR
STARTCHAR LtCapODotMacron
ENCODING 560
SWIDTH 432 0
DWIDTH 18 0
BBX 18 40 0 -9
BITMAP
000000
07FC00
07FC00
07FC00
000000
00E000
01F000
01F000
00E000
000000
01E000
07F800
0FFC00
1E1E00
1C0E00
380700
380700
380700
380700
380700
380700
380700
380700
380700
380700
380700
1C0E00
1E1E00
0FFC00
07F800
01E000
000000
000000
000000
000000
000000
000000
000000
000000
000000
ENDCHAR
STARTCHAR LtSmlODotMacron
ENCODING 561
SWIDTH 432 0
DWIDTH 18 0
BBX 18 40 0 -9
BITMAP
000000
000000
000000
07FC00
07FC00
07FC00
000000
000000
00E000
01F000
01F000
00E000
000000
000000
01F000
07FC00
0FFE00
0E0E00
1E0F00
1C0700
1C0700
1C0700
1C0700
1C0700
1C0700
1C0700
1E0F00
0E0E00
0FFE00
07FC00
01F000
000000
000000
000000
000000
000000
000000
000000
000000
000000
ENDCHAR
STARTCHAR LtCapYMacron
ENCODING 562
SWIDTH 432 0
DWIDTH 18 0
BBX 18 40 0 -9
BITMAP
000000
000000
000000
07FC00
07FC00
07FC00
000000
000000
380380
380380
1C0700
1C0700
0E0E00
0E0E00
071C00
071C00
03B800
03B800
01F000
01F000
00E000
00E000
00E000
00E000
00E000
00E000
00E000
00E000
00E000
00E000
00E000
000000
000000
000000
000000
000000
000000
000000
000000
000000
ENDCHAR
STARTCHAR LtSmlYMacron
ENCODING 563
SWIDTH 432 0
DWIDTH 18 0
BBX 18 40 0 -9
BITMAP
000000
000000
000000
000000
000000
000000
000000
000000
07FC00
07FC00
07FC00
000000
000000
000000
1C0700
1C0700
1C0700
0E0700
0E0E00
070E00
070E00
070E00
039C00
039C00
01DC00
01DC00
01F800
00F800
00F800
007800
007000
007000
007000
00E000
1CE000
1FE000
1FC000
0F8000
000000
000000
ENDCHAR
STARTCHAR LtSmlLCurl
ENCODING 564
SWIDTH 432 0
DWIDTH 18 0
BBX 18 40 0 -9
BITMAP
000000
000000
000000
000000
000000
000000
000000
1F0000
1F0000
1F0000
070000
070000
070000
070000
070000
070000
070000
070000
070000
070000
070000
070000
070000
070000
070F00
071F80
071980
073980
3FFF80
3FFF00
3FFE00
006000
006000
000000
000000
000000
000000
000000
000000
000000
ENDCHAR
STARTCHAR LtSmlNCurl
ENCODING 565
SWIDTH 432 0
DWIDTH 18 0
BBX 18 40 0 -9
BITMAP
000000
000000
000000
000000
000000
000000
000000
000000
000000
000000
000000
000000
000000
000000
738000
77E000
7FE000
7CF000
787000
707000
707000
707000
707000
707000
707380
7077C0
7076C0
7076C0
707FC0
703F80
701F00
001800
001800
000000
000000
000000
000000
000000
000000
000000
ENDCHAR
STARTCHAR LtSmlTCurl
ENCODING 566
SWIDTH 432 0
DWIDTH 18 0
BBX 18 40 0 -9
BITMAP
000000
000000
000000
000000
000000
000000
000000
000000
010000
030000
070000
070000
070000
070000
3FF800
3FF800
3FF800
070000
070000
070000
070000
070000
070000
070000
070F00
071F80
073B80
03B380
03FF80
01FF00
00FE00
006000
006000
000000
000000
000000
000000
000000
000000
000000
ENDCHAR
STARTCHAR LtSmlJDotless
ENCODING 567
SWIDTH 432 0
DWIDTH 18 0
BBX 18 40 0 -9
BITMAP
000000
000000
000000
000000
000000
000000
000000
000000
000000
000000
000000
000000
000000
000000
03F800
03F800
03F800
003800
003800
003800
003800
003800
003800
003800
003800
003800
003800
003800
003800
003800
003800
003800
003800
383800
3C7800
3FF000
1FF000
0FC000
000000
000000
ENDCHAR
STARTCHAR LtSmlDB
ENCODING 568
SWIDTH 432 0
DWIDTH 18 0
BBX 18 40 0 -9
BITMAP
000000
000000
000000
000000
000000
000000
000000
00E000
00E000
00E000
00E000
00E000
00E000
00E000
03F800
0FFE00
0FFE00
1CE700
1CE700
38E380
38E380
38E380
38E380
38E380
38E380
38E380
1CE700
1CE700
0FFE00
0FFE00
03F800
000000
000000
000000
000000
000000
000000
000000
000000
000000
ENDCHAR
STARTCHAR LtSmlQP
ENCODING 569
SWIDTH 432 0
DWIDTH 18 0
BBX 18 40 0 -9
BITMAP
000000
000000
000000
000000
000000
000000
000000
000000
000000
000000
000000
000000
000000
000000
03F800
0FFE00
0FFE00
1CE700
1CE700
38E380
38E380
38E380
38E380
38E380
38E380
38E380
1CE700
1CE700
0FFE00
0FFE00
03F800
00E000
00E000
00E000
00E000
00E000
00E000
00E000
000000
000000
ENDCHAR
STARTCHAR LtCapAStroke
ENCODING 570
SWIDTH 432 0
DWIDTH 18 0
BBX 18 40 0 -9
BITMAP
000000
000000
000000
000000
000000
000000
000000
000700
00E600
00E600
00EE00
01FC00
01FC00
01F800
03B800
03B800
03B800
073C00
077C00
077C00
0E6E00
0FFE00
0FFE00
1FFF00
1DC700
1D8700
398380
3B8380
3B0380
7301C0
7701C0
060000
060000
000000
000000
000000
000000
000000
000000
000000
ENDCHAR
STARTCHAR LtCapCStroke
ENCODING 571
SWIDTH 432 0
DWIDTH 18 0
BBX 18 40 0 -9
BITMAP
000000
000000
000000
000000
000000
000000
000300
000300
00FF00
03FE00
07FE00
0F0F00
0E0F00
0E1C00
1C1800
1C1800
1C3800
1C3000
1C3000
1C7000
1C6000
1CE000
1CC000
1CC000
1DC000
0F8000
0F8700
0F8F00
07FE00
03FE00
07F800
060000
060000
000000
000000
000000
000000
000000
000000
000000
ENDCHAR
STARTCHAR LtSmlCStroke
ENCODING 572
SWIDTH 432 0
DWIDTH 18 0
BBX 18 40 0 -9
BITMAP
000000
000000
000000
000000
000000
000000
000000
000000
000000
000000
000000
000000
000E00
000C00
00FC00
03FE00
07FE00
0F1F00
0E3F00
1C3000
1C3000
1C7000
1C6000
1C6000
1CE000
1CC000
0EC700
0FCF00
07FE00
03FE00
03F800
030000
070000
000000
000000
000000
000000
000000
000000
000000
ENDCHAR
STARTCHAR LtCapLStrokeH
ENCODING 573
SWIDTH 432 0
DWIDTH 18 0
BBX 18 40 0 -9
BITMAP
000000
000000
000000
000000
000000
000000
000000
000000
0E0000
0E0000
0E0000
0E0000
0E0000
0E0000
0E0000
0E0000
0E0000
3FF000
3FF000
3FF000
0E0000
0E0000
0E0000
0E0000
0E0000
0E0000
0E0000
0E0000
0FFF80
0FFF80
0FFF80
000000
000000
000000
000000
000000
000000
000000
000000
000000
ENDCHAR
STARTCHAR LtCapTStrokeD
ENCODING 574
SWIDTH 432 0
DWIDTH 18 0
BBX 18 40 0 -9
BITMAP
000000
000000
000000
000000
000000
000000
000300
000300
3FFF80
3FFF80
3FFF80
00EE00
00EC00
00FC00
00F800
00F800
00F000
00F000
00E000
00E000
00E000
00E000
01E000
01E000
03E000
03E000
03E000
07E000
06E000
0EE000
0CE000
0C0000
0C0000
000000
000000
000000
000000
000000
000000
000000
ENDCHAR
STARTCHAR LtSmlSSwash
ENCODING 575
SWIDTH 432 0
DWIDTH 18 0
BBX 18 40 0 -9
BITMAP
000000
000000
000000
000000
000000
000000
000000
000000
000000
000000
000000
000000
000000
000000
03F800
0FFE00
0FFF00
1E0F00
1C0700
1C0000
0F0000
0FF000
07FC00
01FE00
001E00
000700
1C0700
1E0F00
1FFE00
0FFE00
07F800
03C000
01E000
00F000
007B80
003F80
001F80
000F00
000000
000000
ENDCHAR
STARTCHAR LtSmlZSwash
ENCODING 576
SWIDTH 432 0
DWIDTH 18 0
BBX 18 40 0 -9
BITMAP
000000
000000
000000
000000
000000
000000
000000
000000
000000
000000
000000
000000
000000
000000
1FFF00
1FFF00
1FFF00
000E00
001C00
003C00
007800
00F000
00E000
01E000
03C000
078000
070000
0E0000
1C0000
1F0000
1F8000
07C000
01E000
00F000
007B80
003F80
001F80
000F00
000000
000000
ENDCHAR
STARTCHAR LtCapGlot1
ENCODING 577
SWIDTH 432 0
DWIDTH 18 0
BBX 18 40 0 -9
BITMAP
000000
000000
000000
000000
000000
000000
000000
000000
07F800
1FFE00
1FFF00
3C0700
380380
380380
380380
000380
000380
000780
000F00
003E00
007C00
00F000
00E000
00E000
00E000
00E000
00E000
00E000
00E000
00E000
00E000
000000
000000
000000
000000
000000
000000
000000
000000
000000
ENDCHAR
STARTCHAR LtSmlGlot1
ENCODING 578
SWIDTH 432 0
DWIDTH 18 0
BBX 18 40 0 -9
BITMAP
000000
000000
000000
000000
000000
000000
000000
000000
000000
000000
000000
000000
000000
000000
03F800
0FFE00
0FFE00
1E0F00
1C0700
1C0700
1C0700
000700
000E00
003E00
007C00
00F000
00E000
00E000
00E000
00E000
00E000
000000
000000
000000
000000
000000
000000
000000
000000
000000
ENDCHAR
STARTCHAR LtCapBStroke
ENCODING 579
SWIDTH 432 0
DWIDTH 18 0
BBX 18 40 0 -9
BITMAP
000000
000000
000000
000000
000000
000000
000000
000000
1FF000
1FFC00
1FFC00
1C1E00
1C0E00
1C0E00
1C0E00
1C0E00
1C1C00
1FFC00
1FF800
1FFC00
1C1E00
1C0E00
1C0700
3FC700
3FC700
3FC700
1C0700
1C0F00
1FFE00
1FFE00
1FF800
000000
000000
000000
000000
000000
000000
000000
000000
000000
ENDCHAR
STARTCHAR LtCapUStroke
ENCODING 580
SWIDTH 432 0
DWIDTH 18 0
BBX 18 40 0 -9
BITMAP
000000
000000
000000
000000
000000
000000
000000
000000
1C0700
1C0700
1C0700
1C0700
1C0700
1C0700
1C0700
1C0700
3FFF80
3FFF80
3FFF80
1C0700
1C0700
1C0700
1C0700
1C0700
1C0700
1C0700
1C0700
0E0E00
0FFE00
07FC00
01F000
000000
000000
000000
000000
000000
000000
000000
000000
000000
ENDCHAR
STARTCHAR LtCapVTrnd
ENCODING 581
SWIDTH 432 0
DWIDTH 18 0
BBX 18 40 0 -9
BITMAP
000000
000000
000000
000000
000000
000000
000000
000000
00E000
00E000
00E000
01F000
01F000
01F000
03B800
03B800
03B800
071C00
071C00
071C00
0E0E00
0E0E00
0E0E00
1C0700
1C0700
1C0700
380380
380380
380380
7001C0
7001C0
000000
000000
000000
000000
000000
000000
000000
000000
000000
ENDCHAR
STARTCHAR LtCapEStroke
ENCODING 582
SWIDTH 432 0
DWIDTH 18 0
BBX 18 40 0 -9
BITMAP
000000
000000
000000
000000
000000
000000
000600
000600
1FFF00
1FFF00
1FFF00
1C0C00
1C1C00
1C1800
1C1800
1C3800
1C3000
1FFC00
1FFC00
1FFC00
1C6000
1CE000
1CC000
1CC000
1DC000
1D8000
1D8000
1F8000
1FFF00
1FFF00
1FFF00
060000
060000
000000
000000
000000
000000
000000
000000
000000
ENDCHAR
STARTCHAR LtSmlEStroke
ENCODING 583
SWIDTH 432 0
DWIDTH 18 0
BBX 18 40 0 -9
BITMAP
000000
000000
000000
000000
000000
000000
000000
000000
000000
000000
000000
000000
001800
001800
00FC00
03FC00
07FE00
0F3E00
0E3700
1C7700
1FFF00
1FFF00
1FFF00
1C6000
1CE000
1CC000
0EC000
0FCF00
07FF00
03FE00
01F800
018000
018000
000000
000000
000000
000000
000000
000000
000000
ENDCHAR
STARTCHAR LtCapJStroke
ENCODING 584
SWIDTH 432 0
DWIDTH 18 0
BBX 18 40 0 -9
BITMAP
000000
000000
000000
000000
000000
000000
000000
000000
001F00
001F00
001F00
000E00
000E00
000E00
000E00
000E00
000E00
007F80
007F80
007F80
000E00
000E00
000E00
1C0E00
1C0E00
1C0E00
1C0E00
0E1C00
0FFC00
07F800
03F000
000000
000000
000000
000000
000000
000000
000000
000000
000000
ENDCHAR
STARTCHAR LtSmlJStroke
ENCODING 585
SWIDTH 432 0
DWIDTH 18 0
BBX 18 40 0 -9
BITMAP
000000
000000
000000
000000
000000
000000
000000
003800
007C00
007C00
003800
000000
000000
000000
03F800
03F800
03F800
003800
003800
003800
003800
03FE00
03FE00
03FE00
003800
003800
003800
003800
003800
003800
003800
003800
003800
383800
3C7800
3FF000
1FF000
0FC000
000000
000000
ENDCHAR
STARTCHAR LtCapQHooktail
ENCODING 586
SWIDTH 432 0
DWIDTH 18 0
BBX 18 40 0 -9
BITMAP
000000
000000
000000
000000
000000
000000
000000
000000
03CE00
0FEE00
0FFE00
1E3E00
1C1E00
380E00
380E00
380E00
380E00
380E00
380E00
380E00
380E00
380E00
380E00
380E00
380E00
380E00
1C1E00
1E3E00
0FFE00
0FEE00
03CE00
000E00
000E00
000E00
000EC0
000FC0
0007C0
000380
000000
000000
ENDCHAR
STARTCHAR LtSmlQHooktail
ENCODING 587
SWIDTH 432 0
DWIDTH 18 0
BBX 18 40 0 -9
BITMAP
000000
000000
000000
000000
000000
000000
000000
000000
000000
000000
000000
000000
000000
000000
03CE00
07EE00
0FFE00
0E3E00
1C1E00
1C0E00
1C0E00
1C0E00
1C0E00
1C0E00
1C0E00
1C0E00
1C1E00
0E3E00
0FFE00
07EE00
03CE00
000E00
000E00
000E00
000EC0
000FC0
0007C0
000380
000000
000000
ENDCHAR
STARTCHAR LtCapRStroke
ENCODING 588
SWIDTH 432 0
DWIDTH 18 0
BBX 18 40 0 -9
BITMAP
000000
000000
000000
000000
000000
000000
000000
000000
1FE000
1FF800
1FFC00
1C1C00
1C0E00
1C0E00
1C0E00
1C0E00
1C1C00
1C3800
3FFF80
3FFF80
3FFF80
1C7000
1C7800
1C3800
1C3C00
1C1C00
1C1E00
1C0E00
1C0F00
1C0700
1C0780
000000
000000
000000
000000
000000
000000
000000
000000
000000
ENDCHAR
STARTCHAR LtSmlRStroke
ENCODING 589
SWIDTH 432 0
DWIDTH 18 0
BBX 18 40 0 -9
BITMAP
000000
000000
000000
000000
000000
000000
000000
000000
000000
000000
000000
000000
000000
000000
1E7C00
1EFE00
1FFF00
0F8F00
0F0700
0E0000
0E0000
0E0000
3FE000
3FE000
3FE000
0E0000
0E0000
0E0000
0E0000
0E0000
0E0000
000000
000000
000000
000000
000000
000000
000000
000000
000000
ENDCHAR
STARTCHAR LtCapYStroke
ENCODING 590
SWIDTH 432 0
DWIDTH 18 0
BBX 18 40 0 -9
BITMAP
000000
000000
000000
000000
000000
000000
000000
000000
380380
380380
1C0700
1C0700
0E0E00
3FFF80
3FFF80
3FFF80
031800
03B800
01F000
01F000
00E000
00E000
00E000
00E000
00E000
00E000
00E000
00E000
00E000
00E000
00E000
000000
000000
000000
000000
000000
000000
000000
000000
000000
ENDCHAR
STARTCHAR LtSmlYStroke
ENCODING 591
SWIDTH 432 0
DWIDTH 18 0
BBX 18 40 0 -9
BITMAP
000000
000000
000000
000000
000000
000000
000000
000000
000000
000000
000000
000000
000000
000000
1C0700
1C0700
1C0700
0E0700
0E0E00
3FFF80
3FFF80
3FFF80
038E00
039C00
01DC00
01DC00
01F800
00F800
00F800
007800
007000
007000
007000
00E000
1CE000
1FE000
1FC000
0F8000
000000
000000
ENDCHAR
STARTCHAR LtSmlATrnd
ENCODING 592
SWIDTH 432 0
DWIDTH 18 0
BBX 18 40 0 -9
BITMAP
000000
000000
000000
000000
000000
000000
000000
000000
000000
000000
000000
000000
000000
000000
3CF800
3DFE00
3FFE00
1F0F00
1E0700
1C0700
1C0700
1C0E00
1FFE00
1FFC00
1FF000
1C0000
1C0000
1C0E00
0FFE00
0FFE00
03FC00
000000
000000
000000
000000
000000
000000
000000
000000
000000
ENDCHAR
STARTCHAR LtSmlAScr
ENCODING 593
SWIDTH 432 0
DWIDTH 18 0
BBX 18 40 0 -9
BITMAP
000000
000000
000000
000000
000000
000000
000000
000000
000000
000000
000000
000000
000000
000000
03E700
07F700
0FFF00
0E1F00
1C0F00
1C0700
1C0700
1C0700
1C0700
1C0700
1C0700
1C0700
1C0F00
0E1F00
0FFF80
07F780
03E380
000000
000000
000000
000000
000000
000000
000000
000000
000000
ENDCHAR
STARTCHAR LtSmlAScrTrnd
ENCODING 594
SWIDTH 432 0
DWIDTH 18 0
BBX 18 40 0 -9
BITMAP
000000
000000
000000
000000
000000
000000
000000
000000
000000
000000
000000
000000
000000
000000
38F800
3DFC00
3FFE00
1F0E00
1E0700
1C0700
1C0700
1C0700
1C0700
1C0700
1C0700
1C0700
1E0700
1F0E00
1FFE00
1DFC00
1CF800
000000
000000
000000
000000
000000
000000
000000
000000
000000
ENDCHAR
STARTCHAR LtSmlBHook
ENCODING 595
SWIDTH 432 0
DWIDTH 18 0
BBX 18 40 0 -9
BITMAP
000000
000000
000000
000000
000000
000000
000000
078000
0FC000
1FE000
1CE000
1C0000
1C0000
1C0000
1CF800
1DFC00
1FFE00
1F0E00
1E0700
1C0700
1C0700
1C0700
1C0700
1C0700
1C0700
1C0700
1E0700
1F0E00
1FFE00
1DFC00
1CF800
000000
000000
000000
000000
000000
000000
000000
000000
000000
ENDCHAR
STARTCHAR LtSmlCTrnd
ENCODING 596
SWIDTH 432 0
DWIDTH 18 0
BBX 18 40 0 -9
BITMAP
000000
000000
000000
000000
000000
000000
000000
000000
000000
000000
000000
000000
000000
000000
03E000
0FF800
0FFC00
1E1E00
1C0E00
000700
000700
000700
000700
000700
000700
000700
1C0E00
1E1E00
0FFC00
0FF800
03E000
000000
000000
000000
000000
000000
000000
000000
000000
000000
ENDCHAR
STARTCHAR LtSmlCCurl
ENCODING 597
SWIDTH 432 0
DWIDTH 18 0
BBX 18 40 0 -9
BITMAP
000000
000000
000000
000000
000000
000000
000000
000000
000000
000000
000000
000000
000000
000000
00F800
03FE00
07FE00
0F0F00
0E0700
1C0000
1C0000
1C0000
1C0000
1C0000
1C1E00
1C3F00
0E7700
0F6700
07FF00
03FE00
00FC00
00C000
00C000
000000
000000
000000
000000
000000
000000
000000
ENDCHAR
STARTCHAR LtSmlDLhook
ENCODING 598
SWIDTH 432 0
DWIDTH 18 0
BBX 18 40 0 -9
BITMAP
000000
000000
000000
000000
000000
000000
000000
000E00
000E00
000E00
000E00
000E00
000E00
000E00
07CE00
0FEE00
1FFE00
1C3E00
381E00
380E00
380E00
380E00
380E00
380E00
380E00
380E00
381E00
1C3E00
1FFE00
0FEE00
07CE00
000E00
000E00
000E00
000EC0
000FC0
0007C0
000380
000000
000000
ENDCHAR
STARTCHAR LtSmlDHook
ENCODING 599
SWIDTH 432 0
DWIDTH 18 0
BBX 18 40 0 -9
BITMAP
000000
000000
000000
000000
000000
000000
000000
000780
000FC0
001FC0
001DC0
001C00
001C00
001C00
079C00
0FDC00
1FFC00
1C7C00
383C00
381C00
381C00
381C00
381C00
381C00
381C00
381C00
383C00
1C7C00
1FFC00
0FDC00
079C00
000000
000000
000000
000000
000000
000000
000000
000000
000000
ENDCHAR
ENDFONT
